<?xml version="1.0" encoding="utf-8" standalone="no"?>
<!DOCTYPE svg PUBLIC "-//W3C//DTD SVG 1.1//EN"
  "http://www.w3.org/Graphics/SVG/1.1/DTD/svg11.dtd">
<svg xmlns:xlink="http://www.w3.org/1999/xlink" width="432pt" height="360pt" viewBox="0 0 432 360" xmlns="http://www.w3.org/2000/svg" version="1.1">
 <metadata>
  <rdf:RDF xmlns:dc="http://purl.org/dc/elements/1.1/" xmlns:cc="http://creativecommons.org/ns#" xmlns:rdf="http://www.w3.org/1999/02/22-rdf-syntax-ns#">
   <cc:Work>
    <dc:type rdf:resource="http://purl.org/dc/dcmitype/StillImage"/>
    <dc:date>2023-03-30T15:20:56.804219</dc:date>
    <dc:format>image/svg+xml</dc:format>
    <dc:creator>
     <cc:Agent>
      <dc:title>Matplotlib v3.7.1, https://matplotlib.org/</dc:title>
     </cc:Agent>
    </dc:creator>
   </cc:Work>
  </rdf:RDF>
 </metadata>
 <defs>
  <style type="text/css">*{stroke-linejoin: round; stroke-linecap: butt}</style>
 </defs>
 <g id="figure_1">
  <g id="patch_1">
   <path d="M 0 360 
L 432 360 
L 432 0 
L 0 0 
z
" style="fill: #ffffff"/>
  </g>
  <g id="axes_1">
   <g id="patch_2">
    <path d="M 54 320.4 
L 388.8 320.4 
L 388.8 43.2 
L 54 43.2 
z
" style="fill: #ffffff"/>
   </g>
   <g id="PolyCollection_1">
    <defs>
     <path id="mc8e2b5ad73" d="M 145.123335 -152.474944 
L 130.276665 -152.474944 
L 127.985459 -154.267369 
L 125.231566 -156.059794 
L 122.004762 -157.85222 
L 118.322833 -159.644645 
L 114.237242 -161.437071 
L 109.836594 -163.229496 
L 105.246933 -165.021921 
L 100.6282 -166.814347 
L 96.166553 -168.606772 
L 92.062834 -170.399197 
L 88.518051 -172.191623 
L 85.717256 -173.984048 
L 83.813616 -175.776474 
L 82.914545 -177.568899 
L 83.071675 -179.361324 
L 84.275941 -181.15375 
L 86.45845 -182.946175 
L 89.497005 -184.7386 
L 93.227435 -186.531026 
L 97.458264 -188.323451 
L 101.986894 -190.115877 
L 106.615425 -191.908302 
L 111.164418 -193.700727 
L 115.483344 -195.493153 
L 119.457047 -197.285578 
L 123.008099 -199.078004 
L 126.095479 -200.870429 
L 128.710349 -202.662854 
L 130.869935 -204.45528 
L 132.610523 -206.247705 
L 133.980471 -208.04013 
L 135.033945 -209.832556 
L 135.825797 -211.624981 
L 136.407798 -213.417407 
L 136.826202 -215.209832 
L 137.120495 -217.002257 
L 137.323061 -218.794683 
L 137.459536 -220.587108 
L 137.549549 -222.379533 
L 137.607677 -224.171959 
L 137.644436 -225.964384 
L 137.667202 -227.75681 
L 137.68101 -229.549235 
L 137.689213 -231.34166 
L 137.693981 -233.134086 
L 137.696688 -234.926511 
L 137.698173 -236.718937 
L 137.698932 -238.511362 
L 137.699231 -240.303787 
L 137.699179 -242.096213 
L 137.698753 -243.888638 
L 137.697796 -245.681063 
L 137.695965 -247.473489 
L 137.69265 -249.265914 
L 137.686818 -251.05834 
L 137.676792 -252.850765 
L 137.659914 -254.64319 
L 137.632089 -256.435616 
L 137.587161 -258.228041 
L 137.516115 -260.020467 
L 137.4061 -261.812892 
L 137.239297 -263.605317 
L 136.991716 -265.397743 
L 136.632025 -267.190168 
L 136.120641 -268.982593 
L 135.409307 -270.775019 
L 134.441488 -272.567444 
L 133.153909 -274.35987 
L 131.479528 -276.152295 
L 129.352143 -277.94472 
L 126.712649 -279.737146 
L 123.516697 -281.529571 
L 119.743232 -283.321996 
L 115.403057 -285.114422 
L 110.546309 -286.906847 
L 105.267622 -288.699273 
L 99.707742 -290.491698 
L 94.050648 -292.284123 
L 88.515656 -294.076549 
L 83.344643 -295.868974 
L 78.785228 -297.6614 
L 75.071439 -299.453825 
L 72.403928 -301.24625 
L 70.932048 -303.038676 
L 70.74 -304.831101 
L 71.838864 -306.623526 
L 74.165535 -308.415952 
L 77.588728 -310.208377 
L 81.921242 -312.000803 
L 86.936898 -313.793228 
L 92.390023 -315.585653 
L 98.03514 -317.378079 
L 103.644725 -319.170504 
L 109.023296 -320.962929 
L 114.016795 -322.755355 
L 118.516931 -324.54778 
L 122.460803 -326.340206 
L 125.826672 -328.132631 
L 128.627035 -329.925056 
L 146.772965 -329.925056 
L 146.772965 -329.925056 
L 149.573328 -328.132631 
L 152.939197 -326.340206 
L 156.883069 -324.54778 
L 161.383205 -322.755355 
L 166.376704 -320.962929 
L 171.755275 -319.170504 
L 177.36486 -317.378079 
L 183.009977 -315.585653 
L 188.463102 -313.793228 
L 193.478758 -312.000803 
L 197.811272 -310.208377 
L 201.234465 -308.415952 
L 203.561136 -306.623526 
L 204.66 -304.831101 
L 204.467952 -303.038676 
L 202.996072 -301.24625 
L 200.328561 -299.453825 
L 196.614772 -297.6614 
L 192.055357 -295.868974 
L 186.884344 -294.076549 
L 181.349352 -292.284123 
L 175.692258 -290.491698 
L 170.132378 -288.699273 
L 164.853691 -286.906847 
L 159.996943 -285.114422 
L 155.656768 -283.321996 
L 151.883303 -281.529571 
L 148.687351 -279.737146 
L 146.047857 -277.94472 
L 143.920472 -276.152295 
L 142.246091 -274.35987 
L 140.958512 -272.567444 
L 139.990693 -270.775019 
L 139.279359 -268.982593 
L 138.767975 -267.190168 
L 138.408284 -265.397743 
L 138.160703 -263.605317 
L 137.9939 -261.812892 
L 137.883885 -260.020467 
L 137.812839 -258.228041 
L 137.767911 -256.435616 
L 137.740086 -254.64319 
L 137.723208 -252.850765 
L 137.713182 -251.05834 
L 137.70735 -249.265914 
L 137.704035 -247.473489 
L 137.702204 -245.681063 
L 137.701247 -243.888638 
L 137.700821 -242.096213 
L 137.700769 -240.303787 
L 137.701068 -238.511362 
L 137.701827 -236.718937 
L 137.703312 -234.926511 
L 137.706019 -233.134086 
L 137.710787 -231.34166 
L 137.71899 -229.549235 
L 137.732798 -227.75681 
L 137.755564 -225.964384 
L 137.792323 -224.171959 
L 137.850451 -222.379533 
L 137.940464 -220.587108 
L 138.076939 -218.794683 
L 138.279505 -217.002257 
L 138.573798 -215.209832 
L 138.992202 -213.417407 
L 139.574203 -211.624981 
L 140.366055 -209.832556 
L 141.419529 -208.04013 
L 142.789477 -206.247705 
L 144.530065 -204.45528 
L 146.689651 -202.662854 
L 149.304521 -200.870429 
L 152.391901 -199.078004 
L 155.942953 -197.285578 
L 159.916656 -195.493153 
L 164.235582 -193.700727 
L 168.784575 -191.908302 
L 173.413106 -190.115877 
L 177.941736 -188.323451 
L 182.172565 -186.531026 
L 185.902995 -184.7386 
L 188.94155 -182.946175 
L 191.124059 -181.15375 
L 192.328325 -179.361324 
L 192.485455 -177.568899 
L 191.586384 -175.776474 
L 189.682744 -173.984048 
L 186.881949 -172.191623 
L 183.337166 -170.399197 
L 179.233447 -168.606772 
L 174.7718 -166.814347 
L 170.153067 -165.021921 
L 165.563406 -163.229496 
L 161.162758 -161.437071 
L 157.077167 -159.644645 
L 153.395238 -157.85222 
L 150.168434 -156.059794 
L 147.414541 -154.267369 
L 145.123335 -152.474944 
z
" style="stroke: #3f3f3f; stroke-width: 1.5"/>
    </defs>
    <g clip-path="url(#pad3527e863)">
     <use xlink:href="#mc8e2b5ad73" x="0" y="360" style="fill: #3274a1; stroke: #3f3f3f; stroke-width: 1.5"/>
    </g>
   </g>
   <g id="PolyCollection_2">
    <defs>
     <path id="me9d96c2067" d="M 306.775207 -14.201573 
L 303.424793 -14.201573 
L 302.761536 -17.514673 
L 301.933449 -20.827772 
L 300.940549 -24.140872 
L 299.79996 -27.453972 
L 298.548874 -30.767071 
L 297.244995 -34.080171 
L 295.963693 -37.39327 
L 294.791665 -40.70637 
L 293.817637 -44.019469 
L 293.121422 -47.332569 
L 292.763154 -50.645668 
L 292.774723 -53.958768 
L 293.155089 -57.271867 
L 293.870438 -60.584967 
L 294.859141 -63.898066 
L 296.040512 -67.211166 
L 297.325639 -70.524265 
L 298.628282 -73.837365 
L 299.874006 -77.150464 
L 301.006319 -80.463564 
L 301.989287 -83.776663 
L 302.806906 -87.089763 
L 303.459983 -90.402863 
L 303.961602 -93.715962 
L 304.332197 -97.029062 
L 304.595038 -100.342161 
L 304.772585 -103.655261 
L 304.883867 -106.96836 
L 304.942745 -110.28146 
L 304.956783 -113.594559 
L 304.926448 -116.907659 
L 304.844398 -120.220758 
L 304.69481 -123.533858 
L 304.452877 -126.846957 
L 304.084821 -130.160057 
L 303.548937 -133.473156 
L 302.798245 -136.786256 
L 301.785213 -140.099355 
L 300.468729 -143.412455 
L 298.82295 -146.725554 
L 296.847034 -150.038654 
L 294.574084 -153.351754 
L 292.077213 -156.664853 
L 289.470617 -159.977953 
L 286.904104 -163.291052 
L 284.550619 -166.604152 
L 282.587811 -169.917251 
L 281.176189 -173.230351 
L 280.437523 -176.54345 
L 280.437523 -179.85655 
L 281.176188 -183.169649 
L 282.587811 -186.482749 
L 284.550619 -189.795848 
L 286.904103 -193.108948 
L 289.470614 -196.422047 
L 292.077204 -199.735147 
L 294.574061 -203.048246 
L 296.846976 -206.361346 
L 298.822811 -209.674446 
L 300.468403 -212.987545 
L 301.78447 -216.300645 
L 302.796606 -219.613744 
L 303.545429 -222.926844 
L 304.077536 -226.239943 
L 304.438201 -229.553043 
L 304.666132 -232.866142 
L 304.790037 -236.179242 
L 304.826489 -239.492341 
L 304.778484 -242.805441 
L 304.634234 -246.11854 
L 304.366039 -249.43164 
L 303.929455 -252.744739 
L 303.263367 -256.057839 
L 302.291903 -259.370938 
L 300.929229 -262.684038 
L 299.088126 -265.997137 
L 296.69266 -269.310237 
L 293.694339 -272.623337 
L 290.089954 -275.936436 
L 285.938071 -279.249536 
L 281.370386 -282.562635 
L 276.594018 -285.875735 
L 271.881879 -289.188834 
L 267.550184 -292.501934 
L 263.92494 -295.815033 
L 261.301993 -299.128133 
L 259.907317 -302.441232 
L 259.864898 -305.754332 
L 261.178547 -309.067431 
L 263.731336 -312.380531 
L 267.302771 -315.69363 
L 271.600208 -319.00673 
L 276.298313 -322.319829 
L 281.079203 -325.632929 
L 285.66652 -328.946028 
L 289.848681 -332.259128 
L 293.489313 -335.572228 
L 296.525632 -338.885327 
L 298.957574 -342.198427 
L 311.242426 -342.198427 
L 311.242426 -342.198427 
L 313.674368 -338.885327 
L 316.710687 -335.572228 
L 320.351319 -332.259128 
L 324.53348 -328.946028 
L 329.120797 -325.632929 
L 333.901687 -322.319829 
L 338.599792 -319.00673 
L 342.897229 -315.69363 
L 346.468664 -312.380531 
L 349.021453 -309.067431 
L 350.335102 -305.754332 
L 350.292683 -302.441232 
L 348.898007 -299.128133 
L 346.27506 -295.815033 
L 342.649816 -292.501934 
L 338.318121 -289.188834 
L 333.605982 -285.875735 
L 328.829614 -282.562635 
L 324.261929 -279.249536 
L 320.110046 -275.936436 
L 316.505661 -272.623337 
L 313.50734 -269.310237 
L 311.111874 -265.997137 
L 309.270771 -262.684038 
L 307.908097 -259.370938 
L 306.936633 -256.057839 
L 306.270545 -252.744739 
L 305.833961 -249.43164 
L 305.565766 -246.11854 
L 305.421516 -242.805441 
L 305.373511 -239.492341 
L 305.409963 -236.179242 
L 305.533868 -232.866142 
L 305.761799 -229.553043 
L 306.122464 -226.239943 
L 306.654571 -222.926844 
L 307.403394 -219.613744 
L 308.41553 -216.300645 
L 309.731597 -212.987545 
L 311.377189 -209.674446 
L 313.353024 -206.361346 
L 315.625939 -203.048246 
L 318.122796 -199.735147 
L 320.729386 -196.422047 
L 323.295897 -193.108948 
L 325.649381 -189.795848 
L 327.612189 -186.482749 
L 329.023812 -183.169649 
L 329.762477 -179.85655 
L 329.762477 -176.54345 
L 329.023811 -173.230351 
L 327.612189 -169.917251 
L 325.649381 -166.604152 
L 323.295896 -163.291052 
L 320.729383 -159.977953 
L 318.122787 -156.664853 
L 315.625916 -153.351754 
L 313.352966 -150.038654 
L 311.37705 -146.725554 
L 309.731271 -143.412455 
L 308.414787 -140.099355 
L 307.401755 -136.786256 
L 306.651063 -133.473156 
L 306.115179 -130.160057 
L 305.747123 -126.846957 
L 305.50519 -123.533858 
L 305.355602 -120.220758 
L 305.273552 -116.907659 
L 305.243217 -113.594559 
L 305.257255 -110.28146 
L 305.316133 -106.96836 
L 305.427415 -103.655261 
L 305.604962 -100.342161 
L 305.867803 -97.029062 
L 306.238398 -93.715962 
L 306.740017 -90.402863 
L 307.393094 -87.089763 
L 308.210713 -83.776663 
L 309.193681 -80.463564 
L 310.325994 -77.150464 
L 311.571718 -73.837365 
L 312.874361 -70.524265 
L 314.159488 -67.211166 
L 315.340859 -63.898066 
L 316.329562 -60.584967 
L 317.044911 -57.271867 
L 317.425277 -53.958768 
L 317.436846 -50.645668 
L 317.078578 -47.332569 
L 316.382363 -44.019469 
L 315.408335 -40.70637 
L 314.236307 -37.39327 
L 312.955005 -34.080171 
L 311.651126 -30.767071 
L 310.40004 -27.453972 
L 309.259451 -24.140872 
L 308.266551 -20.827772 
L 307.438464 -17.514673 
L 306.775207 -14.201573 
z
" style="stroke: #3f3f3f; stroke-width: 1.5"/>
    </defs>
    <g clip-path="url(#pad3527e863)">
     <use xlink:href="#me9d96c2067" x="0" y="360" style="fill: #e1812c; stroke: #3f3f3f; stroke-width: 1.5"/>
    </g>
   </g>
   <g id="matplotlib.axis_1">
    <g id="xtick_1">
     <g id="line2d_1">
      <defs>
       <path id="mc16b9f3e70" d="M 0 0 
L 0 3.5 
" style="stroke: #000000; stroke-width: 0.8"/>
      </defs>
      <g>
       <use xlink:href="#mc16b9f3e70" x="137.7" y="320.4" style="stroke: #000000; stroke-width: 0.8"/>
      </g>
     </g>
     <g id="text_1">
      <!-- Forced commit -->
      <g transform="translate(85.641875 338.037813) scale(0.14 -0.14)">
       <defs>
        <path id="DejaVuSans-46" d="M 628 4666 
L 3309 4666 
L 3309 4134 
L 1259 4134 
L 1259 2759 
L 3109 2759 
L 3109 2228 
L 1259 2228 
L 1259 0 
L 628 0 
L 628 4666 
z
" transform="scale(0.015625)"/>
        <path id="DejaVuSans-6f" d="M 1959 3097 
Q 1497 3097 1228 2736 
Q 959 2375 959 1747 
Q 959 1119 1226 758 
Q 1494 397 1959 397 
Q 2419 397 2687 759 
Q 2956 1122 2956 1747 
Q 2956 2369 2687 2733 
Q 2419 3097 1959 3097 
z
M 1959 3584 
Q 2709 3584 3137 3096 
Q 3566 2609 3566 1747 
Q 3566 888 3137 398 
Q 2709 -91 1959 -91 
Q 1206 -91 779 398 
Q 353 888 353 1747 
Q 353 2609 779 3096 
Q 1206 3584 1959 3584 
z
" transform="scale(0.015625)"/>
        <path id="DejaVuSans-72" d="M 2631 2963 
Q 2534 3019 2420 3045 
Q 2306 3072 2169 3072 
Q 1681 3072 1420 2755 
Q 1159 2438 1159 1844 
L 1159 0 
L 581 0 
L 581 3500 
L 1159 3500 
L 1159 2956 
Q 1341 3275 1631 3429 
Q 1922 3584 2338 3584 
Q 2397 3584 2469 3576 
Q 2541 3569 2628 3553 
L 2631 2963 
z
" transform="scale(0.015625)"/>
        <path id="DejaVuSans-63" d="M 3122 3366 
L 3122 2828 
Q 2878 2963 2633 3030 
Q 2388 3097 2138 3097 
Q 1578 3097 1268 2742 
Q 959 2388 959 1747 
Q 959 1106 1268 751 
Q 1578 397 2138 397 
Q 2388 397 2633 464 
Q 2878 531 3122 666 
L 3122 134 
Q 2881 22 2623 -34 
Q 2366 -91 2075 -91 
Q 1284 -91 818 406 
Q 353 903 353 1747 
Q 353 2603 823 3093 
Q 1294 3584 2113 3584 
Q 2378 3584 2631 3529 
Q 2884 3475 3122 3366 
z
" transform="scale(0.015625)"/>
        <path id="DejaVuSans-65" d="M 3597 1894 
L 3597 1613 
L 953 1613 
Q 991 1019 1311 708 
Q 1631 397 2203 397 
Q 2534 397 2845 478 
Q 3156 559 3463 722 
L 3463 178 
Q 3153 47 2828 -22 
Q 2503 -91 2169 -91 
Q 1331 -91 842 396 
Q 353 884 353 1716 
Q 353 2575 817 3079 
Q 1281 3584 2069 3584 
Q 2775 3584 3186 3129 
Q 3597 2675 3597 1894 
z
M 3022 2063 
Q 3016 2534 2758 2815 
Q 2500 3097 2075 3097 
Q 1594 3097 1305 2825 
Q 1016 2553 972 2059 
L 3022 2063 
z
" transform="scale(0.015625)"/>
        <path id="DejaVuSans-64" d="M 2906 2969 
L 2906 4863 
L 3481 4863 
L 3481 0 
L 2906 0 
L 2906 525 
Q 2725 213 2448 61 
Q 2172 -91 1784 -91 
Q 1150 -91 751 415 
Q 353 922 353 1747 
Q 353 2572 751 3078 
Q 1150 3584 1784 3584 
Q 2172 3584 2448 3432 
Q 2725 3281 2906 2969 
z
M 947 1747 
Q 947 1113 1208 752 
Q 1469 391 1925 391 
Q 2381 391 2643 752 
Q 2906 1113 2906 1747 
Q 2906 2381 2643 2742 
Q 2381 3103 1925 3103 
Q 1469 3103 1208 2742 
Q 947 2381 947 1747 
z
" transform="scale(0.015625)"/>
        <path id="DejaVuSans-20" transform="scale(0.015625)"/>
        <path id="DejaVuSans-6d" d="M 3328 2828 
Q 3544 3216 3844 3400 
Q 4144 3584 4550 3584 
Q 5097 3584 5394 3201 
Q 5691 2819 5691 2113 
L 5691 0 
L 5113 0 
L 5113 2094 
Q 5113 2597 4934 2840 
Q 4756 3084 4391 3084 
Q 3944 3084 3684 2787 
Q 3425 2491 3425 1978 
L 3425 0 
L 2847 0 
L 2847 2094 
Q 2847 2600 2669 2842 
Q 2491 3084 2119 3084 
Q 1678 3084 1418 2786 
Q 1159 2488 1159 1978 
L 1159 0 
L 581 0 
L 581 3500 
L 1159 3500 
L 1159 2956 
Q 1356 3278 1631 3431 
Q 1906 3584 2284 3584 
Q 2666 3584 2933 3390 
Q 3200 3197 3328 2828 
z
" transform="scale(0.015625)"/>
        <path id="DejaVuSans-69" d="M 603 3500 
L 1178 3500 
L 1178 0 
L 603 0 
L 603 3500 
z
M 603 4863 
L 1178 4863 
L 1178 4134 
L 603 4134 
L 603 4863 
z
" transform="scale(0.015625)"/>
        <path id="DejaVuSans-74" d="M 1172 4494 
L 1172 3500 
L 2356 3500 
L 2356 3053 
L 1172 3053 
L 1172 1153 
Q 1172 725 1289 603 
Q 1406 481 1766 481 
L 2356 481 
L 2356 0 
L 1766 0 
Q 1100 0 847 248 
Q 594 497 594 1153 
L 594 3053 
L 172 3053 
L 172 3500 
L 594 3500 
L 594 4494 
L 1172 4494 
z
" transform="scale(0.015625)"/>
       </defs>
       <use xlink:href="#DejaVuSans-46"/>
       <use xlink:href="#DejaVuSans-6f" x="53.894531"/>
       <use xlink:href="#DejaVuSans-72" x="115.076172"/>
       <use xlink:href="#DejaVuSans-63" x="153.939453"/>
       <use xlink:href="#DejaVuSans-65" x="208.919922"/>
       <use xlink:href="#DejaVuSans-64" x="270.443359"/>
       <use xlink:href="#DejaVuSans-20" x="333.919922"/>
       <use xlink:href="#DejaVuSans-63" x="365.707031"/>
       <use xlink:href="#DejaVuSans-6f" x="420.6875"/>
       <use xlink:href="#DejaVuSans-6d" x="481.869141"/>
       <use xlink:href="#DejaVuSans-6d" x="579.28125"/>
       <use xlink:href="#DejaVuSans-69" x="676.693359"/>
       <use xlink:href="#DejaVuSans-74" x="704.476562"/>
      </g>
     </g>
    </g>
    <g id="xtick_2">
     <g id="line2d_2">
      <g>
       <use xlink:href="#mc16b9f3e70" x="305.1" y="320.4" style="stroke: #000000; stroke-width: 0.8"/>
      </g>
     </g>
     <g id="text_2">
      <!-- Voting commit -->
      <g transform="translate(254.319375 338.037813) scale(0.14 -0.14)">
       <defs>
        <path id="DejaVuSans-56" d="M 1831 0 
L 50 4666 
L 709 4666 
L 2188 738 
L 3669 4666 
L 4325 4666 
L 2547 0 
L 1831 0 
z
" transform="scale(0.015625)"/>
        <path id="DejaVuSans-6e" d="M 3513 2113 
L 3513 0 
L 2938 0 
L 2938 2094 
Q 2938 2591 2744 2837 
Q 2550 3084 2163 3084 
Q 1697 3084 1428 2787 
Q 1159 2491 1159 1978 
L 1159 0 
L 581 0 
L 581 3500 
L 1159 3500 
L 1159 2956 
Q 1366 3272 1645 3428 
Q 1925 3584 2291 3584 
Q 2894 3584 3203 3211 
Q 3513 2838 3513 2113 
z
" transform="scale(0.015625)"/>
        <path id="DejaVuSans-67" d="M 2906 1791 
Q 2906 2416 2648 2759 
Q 2391 3103 1925 3103 
Q 1463 3103 1205 2759 
Q 947 2416 947 1791 
Q 947 1169 1205 825 
Q 1463 481 1925 481 
Q 2391 481 2648 825 
Q 2906 1169 2906 1791 
z
M 3481 434 
Q 3481 -459 3084 -895 
Q 2688 -1331 1869 -1331 
Q 1566 -1331 1297 -1286 
Q 1028 -1241 775 -1147 
L 775 -588 
Q 1028 -725 1275 -790 
Q 1522 -856 1778 -856 
Q 2344 -856 2625 -561 
Q 2906 -266 2906 331 
L 2906 616 
Q 2728 306 2450 153 
Q 2172 0 1784 0 
Q 1141 0 747 490 
Q 353 981 353 1791 
Q 353 2603 747 3093 
Q 1141 3584 1784 3584 
Q 2172 3584 2450 3431 
Q 2728 3278 2906 2969 
L 2906 3500 
L 3481 3500 
L 3481 434 
z
" transform="scale(0.015625)"/>
       </defs>
       <use xlink:href="#DejaVuSans-56"/>
       <use xlink:href="#DejaVuSans-6f" x="60.658203"/>
       <use xlink:href="#DejaVuSans-74" x="121.839844"/>
       <use xlink:href="#DejaVuSans-69" x="161.048828"/>
       <use xlink:href="#DejaVuSans-6e" x="188.832031"/>
       <use xlink:href="#DejaVuSans-67" x="252.210938"/>
       <use xlink:href="#DejaVuSans-20" x="315.6875"/>
       <use xlink:href="#DejaVuSans-63" x="347.474609"/>
       <use xlink:href="#DejaVuSans-6f" x="402.455078"/>
       <use xlink:href="#DejaVuSans-6d" x="463.636719"/>
       <use xlink:href="#DejaVuSans-6d" x="561.048828"/>
       <use xlink:href="#DejaVuSans-69" x="658.460938"/>
       <use xlink:href="#DejaVuSans-74" x="686.244141"/>
      </g>
     </g>
    </g>
    <g id="text_3">
     <!-- Method -->
     <g transform="translate(195.145625 355.587188) scale(0.14 -0.14)">
      <defs>
       <path id="DejaVuSans-4d" d="M 628 4666 
L 1569 4666 
L 2759 1491 
L 3956 4666 
L 4897 4666 
L 4897 0 
L 4281 0 
L 4281 4097 
L 3078 897 
L 2444 897 
L 1241 4097 
L 1241 0 
L 628 0 
L 628 4666 
z
" transform="scale(0.015625)"/>
       <path id="DejaVuSans-68" d="M 3513 2113 
L 3513 0 
L 2938 0 
L 2938 2094 
Q 2938 2591 2744 2837 
Q 2550 3084 2163 3084 
Q 1697 3084 1428 2787 
Q 1159 2491 1159 1978 
L 1159 0 
L 581 0 
L 581 4863 
L 1159 4863 
L 1159 2956 
Q 1366 3272 1645 3428 
Q 1925 3584 2291 3584 
Q 2894 3584 3203 3211 
Q 3513 2838 3513 2113 
z
" transform="scale(0.015625)"/>
      </defs>
      <use xlink:href="#DejaVuSans-4d"/>
      <use xlink:href="#DejaVuSans-65" x="86.279297"/>
      <use xlink:href="#DejaVuSans-74" x="147.802734"/>
      <use xlink:href="#DejaVuSans-68" x="187.011719"/>
      <use xlink:href="#DejaVuSans-6f" x="250.390625"/>
      <use xlink:href="#DejaVuSans-64" x="311.572266"/>
     </g>
    </g>
   </g>
   <g id="matplotlib.axis_2">
    <g id="ytick_1">
     <g id="line2d_3">
      <defs>
       <path id="m6a0bc2b1aa" d="M 0 0 
L -3.5 0 
" style="stroke: #000000; stroke-width: 0.8"/>
      </defs>
      <g>
       <use xlink:href="#m6a0bc2b1aa" x="54" y="307.8" style="stroke: #000000; stroke-width: 0.8"/>
      </g>
     </g>
     <g id="text_4">
      <!-- 3 -->
      <g transform="translate(38.0925 313.118906) scale(0.14 -0.14)">
       <defs>
        <path id="DejaVuSans-33" d="M 2597 2516 
Q 3050 2419 3304 2112 
Q 3559 1806 3559 1356 
Q 3559 666 3084 287 
Q 2609 -91 1734 -91 
Q 1441 -91 1130 -33 
Q 819 25 488 141 
L 488 750 
Q 750 597 1062 519 
Q 1375 441 1716 441 
Q 2309 441 2620 675 
Q 2931 909 2931 1356 
Q 2931 1769 2642 2001 
Q 2353 2234 1838 2234 
L 1294 2234 
L 1294 2753 
L 1863 2753 
Q 2328 2753 2575 2939 
Q 2822 3125 2822 3475 
Q 2822 3834 2567 4026 
Q 2313 4219 1838 4219 
Q 1578 4219 1281 4162 
Q 984 4106 628 3988 
L 628 4550 
Q 988 4650 1302 4700 
Q 1616 4750 1894 4750 
Q 2613 4750 3031 4423 
Q 3450 4097 3450 3541 
Q 3450 3153 3228 2886 
Q 3006 2619 2597 2516 
z
" transform="scale(0.015625)"/>
       </defs>
       <use xlink:href="#DejaVuSans-33"/>
      </g>
     </g>
    </g>
    <g id="ytick_2">
     <g id="line2d_4">
      <g>
       <use xlink:href="#m6a0bc2b1aa" x="54" y="181.8" style="stroke: #000000; stroke-width: 0.8"/>
      </g>
     </g>
     <g id="text_5">
      <!-- 4 -->
      <g transform="translate(38.0925 187.118906) scale(0.14 -0.14)">
       <defs>
        <path id="DejaVuSans-34" d="M 2419 4116 
L 825 1625 
L 2419 1625 
L 2419 4116 
z
M 2253 4666 
L 3047 4666 
L 3047 1625 
L 3713 1625 
L 3713 1100 
L 3047 1100 
L 3047 0 
L 2419 0 
L 2419 1100 
L 313 1100 
L 313 1709 
L 2253 4666 
z
" transform="scale(0.015625)"/>
       </defs>
       <use xlink:href="#DejaVuSans-34"/>
      </g>
     </g>
    </g>
    <g id="ytick_3">
     <g id="line2d_5">
      <g>
       <use xlink:href="#m6a0bc2b1aa" x="54" y="55.8" style="stroke: #000000; stroke-width: 0.8"/>
      </g>
     </g>
     <g id="text_6">
      <!-- 5 -->
      <g transform="translate(38.0925 61.118906) scale(0.14 -0.14)">
       <defs>
        <path id="DejaVuSans-35" d="M 691 4666 
L 3169 4666 
L 3169 4134 
L 1269 4134 
L 1269 2991 
Q 1406 3038 1543 3061 
Q 1681 3084 1819 3084 
Q 2600 3084 3056 2656 
Q 3513 2228 3513 1497 
Q 3513 744 3044 326 
Q 2575 -91 1722 -91 
Q 1428 -91 1123 -41 
Q 819 9 494 109 
L 494 744 
Q 775 591 1075 516 
Q 1375 441 1709 441 
Q 2250 441 2565 725 
Q 2881 1009 2881 1497 
Q 2881 1984 2565 2268 
Q 2250 2553 1709 2553 
Q 1456 2553 1204 2497 
Q 953 2441 691 2322 
L 691 4666 
z
" transform="scale(0.015625)"/>
       </defs>
       <use xlink:href="#DejaVuSans-35"/>
      </g>
     </g>
    </g>
    <g id="text_7">
     <!-- I felt happy performing the task -->
     <g transform="translate(30.765 309.11625) rotate(-90) scale(0.16 -0.16)">
      <defs>
       <path id="DejaVuSans-49" d="M 628 4666 
L 1259 4666 
L 1259 0 
L 628 0 
L 628 4666 
z
" transform="scale(0.015625)"/>
       <path id="DejaVuSans-66" d="M 2375 4863 
L 2375 4384 
L 1825 4384 
Q 1516 4384 1395 4259 
Q 1275 4134 1275 3809 
L 1275 3500 
L 2222 3500 
L 2222 3053 
L 1275 3053 
L 1275 0 
L 697 0 
L 697 3053 
L 147 3053 
L 147 3500 
L 697 3500 
L 697 3744 
Q 697 4328 969 4595 
Q 1241 4863 1831 4863 
L 2375 4863 
z
" transform="scale(0.015625)"/>
       <path id="DejaVuSans-6c" d="M 603 4863 
L 1178 4863 
L 1178 0 
L 603 0 
L 603 4863 
z
" transform="scale(0.015625)"/>
       <path id="DejaVuSans-61" d="M 2194 1759 
Q 1497 1759 1228 1600 
Q 959 1441 959 1056 
Q 959 750 1161 570 
Q 1363 391 1709 391 
Q 2188 391 2477 730 
Q 2766 1069 2766 1631 
L 2766 1759 
L 2194 1759 
z
M 3341 1997 
L 3341 0 
L 2766 0 
L 2766 531 
Q 2569 213 2275 61 
Q 1981 -91 1556 -91 
Q 1019 -91 701 211 
Q 384 513 384 1019 
Q 384 1609 779 1909 
Q 1175 2209 1959 2209 
L 2766 2209 
L 2766 2266 
Q 2766 2663 2505 2880 
Q 2244 3097 1772 3097 
Q 1472 3097 1187 3025 
Q 903 2953 641 2809 
L 641 3341 
Q 956 3463 1253 3523 
Q 1550 3584 1831 3584 
Q 2591 3584 2966 3190 
Q 3341 2797 3341 1997 
z
" transform="scale(0.015625)"/>
       <path id="DejaVuSans-70" d="M 1159 525 
L 1159 -1331 
L 581 -1331 
L 581 3500 
L 1159 3500 
L 1159 2969 
Q 1341 3281 1617 3432 
Q 1894 3584 2278 3584 
Q 2916 3584 3314 3078 
Q 3713 2572 3713 1747 
Q 3713 922 3314 415 
Q 2916 -91 2278 -91 
Q 1894 -91 1617 61 
Q 1341 213 1159 525 
z
M 3116 1747 
Q 3116 2381 2855 2742 
Q 2594 3103 2138 3103 
Q 1681 3103 1420 2742 
Q 1159 2381 1159 1747 
Q 1159 1113 1420 752 
Q 1681 391 2138 391 
Q 2594 391 2855 752 
Q 3116 1113 3116 1747 
z
" transform="scale(0.015625)"/>
       <path id="DejaVuSans-79" d="M 2059 -325 
Q 1816 -950 1584 -1140 
Q 1353 -1331 966 -1331 
L 506 -1331 
L 506 -850 
L 844 -850 
Q 1081 -850 1212 -737 
Q 1344 -625 1503 -206 
L 1606 56 
L 191 3500 
L 800 3500 
L 1894 763 
L 2988 3500 
L 3597 3500 
L 2059 -325 
z
" transform="scale(0.015625)"/>
       <path id="DejaVuSans-73" d="M 2834 3397 
L 2834 2853 
Q 2591 2978 2328 3040 
Q 2066 3103 1784 3103 
Q 1356 3103 1142 2972 
Q 928 2841 928 2578 
Q 928 2378 1081 2264 
Q 1234 2150 1697 2047 
L 1894 2003 
Q 2506 1872 2764 1633 
Q 3022 1394 3022 966 
Q 3022 478 2636 193 
Q 2250 -91 1575 -91 
Q 1294 -91 989 -36 
Q 684 19 347 128 
L 347 722 
Q 666 556 975 473 
Q 1284 391 1588 391 
Q 1994 391 2212 530 
Q 2431 669 2431 922 
Q 2431 1156 2273 1281 
Q 2116 1406 1581 1522 
L 1381 1569 
Q 847 1681 609 1914 
Q 372 2147 372 2553 
Q 372 3047 722 3315 
Q 1072 3584 1716 3584 
Q 2034 3584 2315 3537 
Q 2597 3491 2834 3397 
z
" transform="scale(0.015625)"/>
       <path id="DejaVuSans-6b" d="M 581 4863 
L 1159 4863 
L 1159 1991 
L 2875 3500 
L 3609 3500 
L 1753 1863 
L 3688 0 
L 2938 0 
L 1159 1709 
L 1159 0 
L 581 0 
L 581 4863 
z
" transform="scale(0.015625)"/>
      </defs>
      <use xlink:href="#DejaVuSans-49"/>
      <use xlink:href="#DejaVuSans-20" x="29.492188"/>
      <use xlink:href="#DejaVuSans-66" x="61.279297"/>
      <use xlink:href="#DejaVuSans-65" x="96.484375"/>
      <use xlink:href="#DejaVuSans-6c" x="158.007812"/>
      <use xlink:href="#DejaVuSans-74" x="185.791016"/>
      <use xlink:href="#DejaVuSans-20" x="225"/>
      <use xlink:href="#DejaVuSans-68" x="256.787109"/>
      <use xlink:href="#DejaVuSans-61" x="320.166016"/>
      <use xlink:href="#DejaVuSans-70" x="381.445312"/>
      <use xlink:href="#DejaVuSans-70" x="444.921875"/>
      <use xlink:href="#DejaVuSans-79" x="508.398438"/>
      <use xlink:href="#DejaVuSans-20" x="567.578125"/>
      <use xlink:href="#DejaVuSans-70" x="599.365234"/>
      <use xlink:href="#DejaVuSans-65" x="662.841797"/>
      <use xlink:href="#DejaVuSans-72" x="724.365234"/>
      <use xlink:href="#DejaVuSans-66" x="765.478516"/>
      <use xlink:href="#DejaVuSans-6f" x="800.683594"/>
      <use xlink:href="#DejaVuSans-72" x="861.865234"/>
      <use xlink:href="#DejaVuSans-6d" x="901.228516"/>
      <use xlink:href="#DejaVuSans-69" x="998.640625"/>
      <use xlink:href="#DejaVuSans-6e" x="1026.423828"/>
      <use xlink:href="#DejaVuSans-67" x="1089.802734"/>
      <use xlink:href="#DejaVuSans-20" x="1153.279297"/>
      <use xlink:href="#DejaVuSans-74" x="1185.066406"/>
      <use xlink:href="#DejaVuSans-68" x="1224.275391"/>
      <use xlink:href="#DejaVuSans-65" x="1287.654297"/>
      <use xlink:href="#DejaVuSans-20" x="1349.177734"/>
      <use xlink:href="#DejaVuSans-74" x="1380.964844"/>
      <use xlink:href="#DejaVuSans-61" x="1420.173828"/>
      <use xlink:href="#DejaVuSans-73" x="1481.453125"/>
      <use xlink:href="#DejaVuSans-6b" x="1533.552734"/>
     </g>
    </g>
   </g>
   <g id="patch_3">
    <path d="M 54 320.4 
L 54 43.2 
" style="fill: none; stroke: #000000; stroke-width: 0.8; stroke-linejoin: miter; stroke-linecap: square"/>
   </g>
   <g id="patch_4">
    <path d="M 388.8 320.4 
L 388.8 43.2 
" style="fill: none; stroke: #000000; stroke-width: 0.8; stroke-linejoin: miter; stroke-linecap: square"/>
   </g>
   <g id="patch_5">
    <path d="M 54 320.4 
L 388.8 320.4 
" style="fill: none; stroke: #000000; stroke-width: 0.8; stroke-linejoin: miter; stroke-linecap: square"/>
   </g>
   <g id="patch_6">
    <path d="M 54 43.2 
L 388.8 43.2 
" style="fill: none; stroke: #000000; stroke-width: 0.8; stroke-linejoin: miter; stroke-linecap: square"/>
   </g>
   <g id="PathCollection_1">
    <defs>
     <path id="C0_0_38567e4099" d="M 0 2.5 
C 0.663008 2.5 1.29895 2.236584 1.767767 1.767767 
C 2.236584 1.29895 2.5 0.663008 2.5 -0 
C 2.5 -0.663008 2.236584 -1.29895 1.767767 -1.767767 
C 1.29895 -2.236584 0.663008 -2.5 0 -2.5 
C -0.663008 -2.5 -1.29895 -2.236584 -1.767767 -1.767767 
C -2.236584 -1.29895 -2.5 -0.663008 -2.5 0 
C -2.5 0.663008 -2.236584 1.29895 -1.767767 1.767767 
C -1.29895 2.236584 -0.663008 2.5 0 2.5 
z
"/>
    </defs>
    <g clip-path="url(#pad3527e863)">
     <use xlink:href="#C0_0_38567e4099" x="137.7" y="55.8" style="fill: #262626; fill-opacity: 0.5"/>
    </g>
    <g clip-path="url(#pad3527e863)">
     <use xlink:href="#C0_0_38567e4099" x="158.7" y="55.8" style="fill: #262626; fill-opacity: 0.5"/>
    </g>
    <g clip-path="url(#pad3527e863)">
     <use xlink:href="#C0_0_38567e4099" x="132.45" y="181.8" style="fill: #262626; fill-opacity: 0.5"/>
    </g>
    <g clip-path="url(#pad3527e863)">
     <use xlink:href="#C0_0_38567e4099" x="116.7" y="55.8" style="fill: #262626; fill-opacity: 0.5"/>
    </g>
    <g clip-path="url(#pad3527e863)">
     <use xlink:href="#C0_0_38567e4099" x="153.45" y="55.8" style="fill: #262626; fill-opacity: 0.5"/>
    </g>
    <g clip-path="url(#pad3527e863)">
     <use xlink:href="#C0_0_38567e4099" x="121.95" y="55.8" style="fill: #262626; fill-opacity: 0.5"/>
    </g>
    <g clip-path="url(#pad3527e863)">
     <use xlink:href="#C0_0_38567e4099" x="148.2" y="55.8" style="fill: #262626; fill-opacity: 0.5"/>
    </g>
    <g clip-path="url(#pad3527e863)">
     <use xlink:href="#C0_0_38567e4099" x="111.45" y="55.8" style="fill: #262626; fill-opacity: 0.5"/>
    </g>
    <g clip-path="url(#pad3527e863)">
     <use xlink:href="#C0_0_38567e4099" x="121.95" y="181.8" style="fill: #262626; fill-opacity: 0.5"/>
    </g>
    <g clip-path="url(#pad3527e863)">
     <use xlink:href="#C0_0_38567e4099" x="127.2" y="55.8" style="fill: #262626; fill-opacity: 0.5"/>
    </g>
    <g clip-path="url(#pad3527e863)">
     <use xlink:href="#C0_0_38567e4099" x="116.7" y="181.8" style="fill: #262626; fill-opacity: 0.5"/>
    </g>
    <g clip-path="url(#pad3527e863)">
     <use xlink:href="#C0_0_38567e4099" x="158.7" y="181.8" style="fill: #262626; fill-opacity: 0.5"/>
    </g>
    <g clip-path="url(#pad3527e863)">
     <use xlink:href="#C0_0_38567e4099" x="142.95" y="55.8" style="fill: #262626; fill-opacity: 0.5"/>
    </g>
    <g clip-path="url(#pad3527e863)">
     <use xlink:href="#C0_0_38567e4099" x="148.2" y="181.8" style="fill: #262626; fill-opacity: 0.5"/>
    </g>
    <g clip-path="url(#pad3527e863)">
     <use xlink:href="#C0_0_38567e4099" x="132.45" y="55.8" style="fill: #262626; fill-opacity: 0.5"/>
    </g>
    <g clip-path="url(#pad3527e863)">
     <use xlink:href="#C0_0_38567e4099" x="127.2" y="181.8" style="fill: #262626; fill-opacity: 0.5"/>
    </g>
    <g clip-path="url(#pad3527e863)">
     <use xlink:href="#C0_0_38567e4099" x="142.95" y="181.8" style="fill: #262626; fill-opacity: 0.5"/>
    </g>
    <g clip-path="url(#pad3527e863)">
     <use xlink:href="#C0_0_38567e4099" x="137.7" y="181.8" style="fill: #262626; fill-opacity: 0.5"/>
    </g>
    <g clip-path="url(#pad3527e863)">
     <use xlink:href="#C0_0_38567e4099" x="153.45" y="181.8" style="fill: #262626; fill-opacity: 0.5"/>
    </g>
    <g clip-path="url(#pad3527e863)">
     <use xlink:href="#C0_0_38567e4099" x="163.95" y="55.8" style="fill: #262626; fill-opacity: 0.5"/>
    </g>
   </g>
   <g id="PathCollection_2">
    <defs>
     <path id="C1_0_8187dd0c83" d="M 0 2.5 
C 0.663008 2.5 1.29895 2.236584 1.767767 1.767767 
C 2.236584 1.29895 2.5 0.663008 2.5 -0 
C 2.5 -0.663008 2.236584 -1.29895 1.767767 -1.767767 
C 1.29895 -2.236584 0.663008 -2.5 0 -2.5 
C -0.663008 -2.5 -1.29895 -2.236584 -1.767767 -1.767767 
C -2.236584 -1.29895 -2.5 -0.663008 -2.5 0 
C -2.5 0.663008 -2.236584 1.29895 -1.767767 1.767767 
C -1.29895 2.236584 -0.663008 2.5 0 2.5 
z
"/>
    </defs>
    <g clip-path="url(#pad3527e863)">
     <use xlink:href="#C1_0_8187dd0c83" x="294.6" y="55.8" style="fill-opacity: 0.5"/>
    </g>
    <g clip-path="url(#pad3527e863)">
     <use xlink:href="#C1_0_8187dd0c83" x="305.1" y="181.8" style="fill-opacity: 0.5"/>
    </g>
    <g clip-path="url(#pad3527e863)">
     <use xlink:href="#C1_0_8187dd0c83" x="326.1" y="55.8" style="fill-opacity: 0.5"/>
    </g>
    <g clip-path="url(#pad3527e863)">
     <use xlink:href="#C1_0_8187dd0c83" x="310.35" y="181.8" style="fill-opacity: 0.5"/>
    </g>
    <g clip-path="url(#pad3527e863)">
     <use xlink:href="#C1_0_8187dd0c83" x="284.1" y="55.8" style="fill-opacity: 0.5"/>
    </g>
    <g clip-path="url(#pad3527e863)">
     <use xlink:href="#C1_0_8187dd0c83" x="320.85" y="55.8" style="fill-opacity: 0.5"/>
    </g>
    <g clip-path="url(#pad3527e863)">
     <use xlink:href="#C1_0_8187dd0c83" x="289.35" y="55.8" style="fill-opacity: 0.5"/>
    </g>
    <g clip-path="url(#pad3527e863)">
     <use xlink:href="#C1_0_8187dd0c83" x="315.6" y="55.8" style="fill-opacity: 0.5"/>
    </g>
    <g clip-path="url(#pad3527e863)">
     <use xlink:href="#C1_0_8187dd0c83" x="278.85" y="55.8" style="fill-opacity: 0.5"/>
    </g>
    <g clip-path="url(#pad3527e863)">
     <use xlink:href="#C1_0_8187dd0c83" x="305.1" y="307.8" style="fill-opacity: 0.5"/>
    </g>
    <g clip-path="url(#pad3527e863)">
     <use xlink:href="#C1_0_8187dd0c83" x="289.35" y="181.8" style="fill-opacity: 0.5"/>
    </g>
    <g clip-path="url(#pad3527e863)">
     <use xlink:href="#C1_0_8187dd0c83" x="310.35" y="307.8" style="fill-opacity: 0.5"/>
    </g>
    <g clip-path="url(#pad3527e863)">
     <use xlink:href="#C1_0_8187dd0c83" x="315.6" y="181.8" style="fill-opacity: 0.5"/>
    </g>
    <g clip-path="url(#pad3527e863)">
     <use xlink:href="#C1_0_8187dd0c83" x="310.35" y="55.8" style="fill-opacity: 0.5"/>
    </g>
    <g clip-path="url(#pad3527e863)">
     <use xlink:href="#C1_0_8187dd0c83" x="294.6" y="181.8" style="fill-opacity: 0.5"/>
    </g>
    <g clip-path="url(#pad3527e863)">
     <use xlink:href="#C1_0_8187dd0c83" x="299.85" y="55.8" style="fill-opacity: 0.5"/>
    </g>
    <g clip-path="url(#pad3527e863)">
     <use xlink:href="#C1_0_8187dd0c83" x="305.1" y="55.8" style="fill-opacity: 0.5"/>
    </g>
    <g clip-path="url(#pad3527e863)">
     <use xlink:href="#C1_0_8187dd0c83" x="299.85" y="181.8" style="fill-opacity: 0.5"/>
    </g>
    <g clip-path="url(#pad3527e863)">
     <use xlink:href="#C1_0_8187dd0c83" x="299.85" y="307.8" style="fill-opacity: 0.5"/>
    </g>
    <g clip-path="url(#pad3527e863)">
     <use xlink:href="#C1_0_8187dd0c83" x="331.35" y="55.8" style="fill-opacity: 0.5"/>
    </g>
   </g>
   <g id="line2d_6">
    <path d="M 70.74 55.8 
L 204.66 55.8 
" clip-path="url(#pad3527e863)" style="fill: none; stroke: #000000; stroke-linecap: square"/>
   </g>
   <g id="line2d_7">
    <path d="M 70.74 112.5 
L 204.66 112.5 
" clip-path="url(#pad3527e863)" style="fill: none; stroke-dasharray: 3.7,1.6; stroke-dashoffset: 0; stroke: #2ca02c"/>
   </g>
   <g id="line2d_8">
    <path d="M 238.14 55.8 
L 372.06 55.8 
" clip-path="url(#pad3527e863)" style="fill: none; stroke: #000000; stroke-linecap: square"/>
   </g>
   <g id="line2d_9">
    <path d="M 238.14 131.4 
L 372.06 131.4 
" clip-path="url(#pad3527e863)" style="fill: none; stroke-dasharray: 3.7,1.6; stroke-dashoffset: 0; stroke: #2ca02c"/>
   </g>
  </g>
 </g>
 <defs>
  <clipPath id="pad3527e863">
   <rect x="54" y="43.2" width="334.8" height="277.2"/>
  </clipPath>
 </defs>
</svg>
