<?xml version="1.0" encoding="utf-8" standalone="no"?>
<!DOCTYPE svg PUBLIC "-//W3C//DTD SVG 1.1//EN"
  "http://www.w3.org/Graphics/SVG/1.1/DTD/svg11.dtd">
<svg xmlns:xlink="http://www.w3.org/1999/xlink" width="432pt" height="360pt" viewBox="0 0 432 360" xmlns="http://www.w3.org/2000/svg" version="1.1">
 <metadata>
  <rdf:RDF xmlns:dc="http://purl.org/dc/elements/1.1/" xmlns:cc="http://creativecommons.org/ns#" xmlns:rdf="http://www.w3.org/1999/02/22-rdf-syntax-ns#">
   <cc:Work>
    <dc:type rdf:resource="http://purl.org/dc/dcmitype/StillImage"/>
    <dc:date>2023-03-30T15:20:56.235400</dc:date>
    <dc:format>image/svg+xml</dc:format>
    <dc:creator>
     <cc:Agent>
      <dc:title>Matplotlib v3.7.1, https://matplotlib.org/</dc:title>
     </cc:Agent>
    </dc:creator>
   </cc:Work>
  </rdf:RDF>
 </metadata>
 <defs>
  <style type="text/css">*{stroke-linejoin: round; stroke-linecap: butt}</style>
 </defs>
 <g id="figure_1">
  <g id="patch_1">
   <path d="M 0 360 
L 432 360 
L 432 0 
L 0 0 
z
" style="fill: #ffffff"/>
  </g>
  <g id="axes_1">
   <g id="patch_2">
    <path d="M 54 320.4 
L 388.8 320.4 
L 388.8 43.2 
L 54 43.2 
z
" style="fill: #ffffff"/>
   </g>
   <g id="PolyCollection_1">
    <defs>
     <path id="mc832422701" d="M 139.265541 -25.993814 
L 136.134459 -25.993814 
L 135.264347 -29.068686 
L 134.113126 -32.143559 
L 132.699418 -35.218431 
L 131.098724 -38.293304 
L 129.444968 -41.368176 
L 127.91361 -44.443049 
L 126.68623 -47.517921 
L 125.904049 -50.592793 
L 125.62425 -53.667666 
L 125.794578 -56.742538 
L 126.257132 -59.817411 
L 126.782775 -62.892283 
L 127.126895 -65.967156 
L 127.089718 -69.042028 
L 126.562926 -72.116901 
L 125.549366 -75.191773 
L 124.151958 -78.266645 
L 122.538094 -81.341518 
L 120.893036 -84.41639 
L 119.377748 -87.491263 
L 118.102843 -90.566135 
L 117.122931 -93.641008 
L 116.448057 -96.71588 
L 116.064166 -99.790753 
L 115.953817 -102.865625 
L 116.11054 -105.940497 
L 116.543321 -109.01537 
L 117.27028 -112.090242 
L 118.302876 -115.165115 
L 119.62468 -118.239987 
L 121.171785 -121.31486 
L 122.823777 -124.389732 
L 124.412714 -127.464605 
L 125.752167 -130.539477 
L 126.680427 -133.61435 
L 127.104857 -136.689222 
L 127.031394 -139.764094 
L 126.565996 -142.838967 
L 125.883035 -145.913839 
L 125.166527 -148.988712 
L 124.540251 -152.063584 
L 124.008539 -155.138457 
L 123.428582 -158.213329 
L 122.526973 -161.288202 
L 120.960114 -164.363074 
L 118.403914 -167.437946 
L 114.647752 -170.512819 
L 109.665113 -173.587691 
L 103.640318 -176.662564 
L 96.945658 -179.737436 
L 90.080286 -182.812309 
L 83.593613 -185.887181 
L 78.015828 -188.962054 
L 73.806309 -192.036926 
L 71.314669 -195.111798 
L 70.74 -198.186671 
L 72.079361 -201.261543 
L 75.074692 -204.336416 
L 79.186743 -207.411288 
L 83.630826 -210.486161 
L 87.49463 -213.561033 
L 89.926875 -216.635906 
L 90.351373 -219.710778 
L 88.640326 -222.78565 
L 85.184365 -225.860523 
L 80.825529 -228.935395 
L 76.663691 -232.010268 
L 73.790507 -235.08514 
L 73.030869 -238.160013 
L 74.768605 -241.234885 
L 78.901524 -244.309758 
L 84.923768 -247.38463 
L 92.091326 -250.459503 
L 99.606723 -253.534375 
L 106.767006 -256.609247 
L 113.046717 -259.68412 
L 118.118505 -262.758992 
L 121.833817 -265.833865 
L 124.189301 -268.908737 
L 125.295254 -271.98361 
L 125.349725 -275.058482 
L 124.613826 -278.133355 
L 123.383247 -281.208227 
L 121.955847 -284.283099 
L 120.600541 -287.357972 
L 119.534489 -290.432844 
L 118.912583 -293.507717 
L 118.827758 -296.582589 
L 119.316482 -299.657462 
L 120.363711 -302.732334 
L 121.905445 -305.807207 
L 123.831799 -308.882079 
L 125.995676 -311.956951 
L 128.230123 -315.031824 
L 130.372531 -318.106696 
L 132.289435 -321.181569 
L 133.894399 -324.256441 
L 135.154031 -327.331314 
L 136.081845 -330.406186 
L 139.318155 -330.406186 
L 139.318155 -330.406186 
L 140.245969 -327.331314 
L 141.505601 -324.256441 
L 143.110565 -321.181569 
L 145.027469 -318.106696 
L 147.169877 -315.031824 
L 149.404324 -311.956951 
L 151.568201 -308.882079 
L 153.494555 -305.807207 
L 155.036289 -302.732334 
L 156.083518 -299.657462 
L 156.572242 -296.582589 
L 156.487417 -293.507717 
L 155.865511 -290.432844 
L 154.799459 -287.357972 
L 153.444153 -284.283099 
L 152.016753 -281.208227 
L 150.786174 -278.133355 
L 150.050275 -275.058482 
L 150.104746 -271.98361 
L 151.210699 -268.908737 
L 153.566183 -265.833865 
L 157.281495 -262.758992 
L 162.353283 -259.68412 
L 168.632994 -256.609247 
L 175.793277 -253.534375 
L 183.308674 -250.459503 
L 190.476232 -247.38463 
L 196.498476 -244.309758 
L 200.631395 -241.234885 
L 202.369131 -238.160013 
L 201.609493 -235.08514 
L 198.736309 -232.010268 
L 194.574471 -228.935395 
L 190.215635 -225.860523 
L 186.759674 -222.78565 
L 185.048627 -219.710778 
L 185.473125 -216.635906 
L 187.90537 -213.561033 
L 191.769174 -210.486161 
L 196.213257 -207.411288 
L 200.325308 -204.336416 
L 203.320639 -201.261543 
L 204.66 -198.186671 
L 204.085331 -195.111798 
L 201.593691 -192.036926 
L 197.384172 -188.962054 
L 191.806387 -185.887181 
L 185.319714 -182.812309 
L 178.454342 -179.737436 
L 171.759682 -176.662564 
L 165.734887 -173.587691 
L 160.752248 -170.512819 
L 156.996086 -167.437946 
L 154.439886 -164.363074 
L 152.873027 -161.288202 
L 151.971418 -158.213329 
L 151.391461 -155.138457 
L 150.859749 -152.063584 
L 150.233473 -148.988712 
L 149.516965 -145.913839 
L 148.834004 -142.838967 
L 148.368606 -139.764094 
L 148.295143 -136.689222 
L 148.719573 -133.61435 
L 149.647833 -130.539477 
L 150.987286 -127.464605 
L 152.576223 -124.389732 
L 154.228215 -121.31486 
L 155.77532 -118.239987 
L 157.097124 -115.165115 
L 158.12972 -112.090242 
L 158.856679 -109.01537 
L 159.28946 -105.940497 
L 159.446183 -102.865625 
L 159.335834 -99.790753 
L 158.951943 -96.71588 
L 158.277069 -93.641008 
L 157.297157 -90.566135 
L 156.022252 -87.491263 
L 154.506964 -84.41639 
L 152.861906 -81.341518 
L 151.248042 -78.266645 
L 149.850634 -75.191773 
L 148.837074 -72.116901 
L 148.310282 -69.042028 
L 148.273105 -65.967156 
L 148.617225 -62.892283 
L 149.142868 -59.817411 
L 149.605422 -56.742538 
L 149.77575 -53.667666 
L 149.495951 -50.592793 
L 148.71377 -47.517921 
L 147.48639 -44.443049 
L 145.955032 -41.368176 
L 144.301276 -38.293304 
L 142.700582 -35.218431 
L 141.286874 -32.143559 
L 140.135653 -29.068686 
L 139.265541 -25.993814 
z
" style="stroke: #3f3f3f; stroke-width: 1.5"/>
    </defs>
    <g clip-path="url(#p133826399e)">
     <use xlink:href="#mc832422701" x="0" y="360" style="fill: #3274a1; stroke: #3f3f3f; stroke-width: 1.5"/>
    </g>
   </g>
   <g id="PolyCollection_2">
    <defs>
     <path id="mec88d08c52" d="M 306.601225 -41.657557 
L 303.598775 -41.657557 
L 302.847128 -44.585687 
L 301.869618 -47.513817 
L 300.673078 -50.441947 
L 299.299631 -53.370078 
L 297.828728 -56.298208 
L 296.369044 -59.226338 
L 295.039147 -62.154468 
L 293.939504 -65.082598 
L 293.122214 -68.010728 
L 292.567238 -70.938859 
L 292.173707 -73.866989 
L 291.77154 -76.795119 
L 291.153076 -79.723249 
L 290.118209 -82.651379 
L 288.521912 -85.579509 
L 286.311574 -88.50764 
L 283.544071 -91.43577 
L 280.378201 -94.3639 
L 277.045281 -97.29203 
L 273.806811 -100.22016 
L 270.910913 -103.14829 
L 268.558017 -106.07642 
L 266.881488 -109.004551 
L 265.943153 -111.932681 
L 265.739261 -114.860811 
L 266.211149 -117.788941 
L 267.256439 -120.717071 
L 268.739439 -123.645201 
L 270.501578 -126.573332 
L 272.373024 -129.501462 
L 274.185442 -132.429592 
L 275.784389 -135.357722 
L 277.039179 -138.285852 
L 277.848767 -141.213982 
L 278.143637 -144.142113 
L 277.885047 -147.070243 
L 277.063528 -149.998373 
L 275.698096 -152.926503 
L 273.836709 -155.854633 
L 271.557586 -158.782763 
L 268.970607 -161.710894 
L 266.218126 -164.639024 
L 263.474565 -167.567154 
L 260.943734 -170.495284 
L 258.851707 -173.423414 
L 257.432202 -176.351544 
L 256.901875 -179.279675 
L 257.42592 -182.207805 
L 259.079295 -185.135935 
L 261.813861 -188.064065 
L 265.443771 -190.992195 
L 269.658499 -193.920325 
L 274.065232 -196.848456 
L 278.252639 -199.776586 
L 281.860294 -202.704716 
L 284.635624 -205.632846 
L 286.464104 -208.560976 
L 287.366904 -211.489106 
L 287.469899 -214.417237 
L 286.955493 -217.345367 
L 286.011727 -220.273497 
L 284.791561 -223.201627 
L 283.390169 -226.129757 
L 281.841949 -229.057887 
L 280.133662 -231.986018 
L 278.2271 -234.914148 
L 276.084161 -237.842278 
L 273.688632 -240.770408 
L 271.061459 -243.698538 
L 268.268821 -246.626668 
L 265.424072 -249.554799 
L 262.685054 -252.482929 
L 260.247302 -255.411059 
L 258.331869 -258.339189 
L 257.165285 -261.267319 
L 256.949906 -264.195449 
L 257.826398 -267.12358 
L 259.835285 -270.05171 
L 262.888853 -272.97984 
L 266.765377 -275.90797 
L 271.133069 -278.8361 
L 275.602362 -281.76423 
L 279.795411 -284.69236 
L 283.415132 -287.620491 
L 286.295428 -290.548621 
L 288.419766 -293.476751 
L 289.904836 -296.404881 
L 290.956009 -299.333011 
L 291.80852 -302.261141 
L 292.670671 -305.189272 
L 293.682823 -308.117402 
L 294.899778 -311.045532 
L 296.296765 -313.973662 
L 297.792923 -316.901792 
L 299.28269 -319.829922 
L 300.665421 -322.758053 
L 301.866312 -325.686183 
L 302.845765 -328.614313 
L 303.598238 -331.542443 
L 306.601762 -331.542443 
L 306.601762 -331.542443 
L 307.354235 -328.614313 
L 308.333688 -325.686183 
L 309.534579 -322.758053 
L 310.91731 -319.829922 
L 312.407077 -316.901792 
L 313.903235 -313.973662 
L 315.300222 -311.045532 
L 316.517177 -308.117402 
L 317.529329 -305.189272 
L 318.39148 -302.261141 
L 319.243991 -299.333011 
L 320.295164 -296.404881 
L 321.780234 -293.476751 
L 323.904572 -290.548621 
L 326.784868 -287.620491 
L 330.404589 -284.69236 
L 334.597638 -281.76423 
L 339.066931 -278.8361 
L 343.434623 -275.90797 
L 347.311147 -272.97984 
L 350.364715 -270.05171 
L 352.373602 -267.12358 
L 353.250094 -264.195449 
L 353.034715 -261.267319 
L 351.868131 -258.339189 
L 349.952698 -255.411059 
L 347.514946 -252.482929 
L 344.775928 -249.554799 
L 341.931179 -246.626668 
L 339.138541 -243.698538 
L 336.511368 -240.770408 
L 334.115839 -237.842278 
L 331.9729 -234.914148 
L 330.066338 -231.986018 
L 328.358051 -229.057887 
L 326.809831 -226.129757 
L 325.408439 -223.201627 
L 324.188273 -220.273497 
L 323.244507 -217.345367 
L 322.730101 -214.417237 
L 322.833096 -211.489106 
L 323.735896 -208.560976 
L 325.564376 -205.632846 
L 328.339706 -202.704716 
L 331.947361 -199.776586 
L 336.134768 -196.848456 
L 340.541501 -193.920325 
L 344.756229 -190.992195 
L 348.386139 -188.064065 
L 351.120705 -185.135935 
L 352.77408 -182.207805 
L 353.298125 -179.279675 
L 352.767798 -176.351544 
L 351.348293 -173.423414 
L 349.256266 -170.495284 
L 346.725435 -167.567154 
L 343.981874 -164.639024 
L 341.229393 -161.710894 
L 338.642414 -158.782763 
L 336.363291 -155.854633 
L 334.501904 -152.926503 
L 333.136472 -149.998373 
L 332.314953 -147.070243 
L 332.056363 -144.142113 
L 332.351233 -141.213982 
L 333.160821 -138.285852 
L 334.415611 -135.357722 
L 336.014558 -132.429592 
L 337.826976 -129.501462 
L 339.698422 -126.573332 
L 341.460561 -123.645201 
L 342.943561 -120.717071 
L 343.988851 -117.788941 
L 344.460739 -114.860811 
L 344.256847 -111.932681 
L 343.318512 -109.004551 
L 341.641983 -106.07642 
L 339.289087 -103.14829 
L 336.393189 -100.22016 
L 333.154719 -97.29203 
L 329.821799 -94.3639 
L 326.655929 -91.43577 
L 323.888426 -88.50764 
L 321.678088 -85.579509 
L 320.081791 -82.651379 
L 319.046924 -79.723249 
L 318.42846 -76.795119 
L 318.026293 -73.866989 
L 317.632762 -70.938859 
L 317.077786 -68.010728 
L 316.260496 -65.082598 
L 315.160853 -62.154468 
L 313.830956 -59.226338 
L 312.371272 -56.298208 
L 310.900369 -53.370078 
L 309.526922 -50.441947 
L 308.330382 -47.513817 
L 307.352872 -44.585687 
L 306.601225 -41.657557 
z
" style="stroke: #3f3f3f; stroke-width: 1.5"/>
    </defs>
    <g clip-path="url(#p133826399e)">
     <use xlink:href="#mec88d08c52" x="0" y="360" style="fill: #e1812c; stroke: #3f3f3f; stroke-width: 1.5"/>
    </g>
   </g>
   <g id="matplotlib.axis_1">
    <g id="xtick_1">
     <g id="line2d_1">
      <defs>
       <path id="m59aa5d15fd" d="M 0 0 
L 0 3.5 
" style="stroke: #000000; stroke-width: 0.8"/>
      </defs>
      <g>
       <use xlink:href="#m59aa5d15fd" x="137.7" y="320.4" style="stroke: #000000; stroke-width: 0.8"/>
      </g>
     </g>
     <g id="text_1">
      <!-- Forced commit -->
      <g transform="translate(85.641875 338.037813) scale(0.14 -0.14)">
       <defs>
        <path id="DejaVuSans-46" d="M 628 4666 
L 3309 4666 
L 3309 4134 
L 1259 4134 
L 1259 2759 
L 3109 2759 
L 3109 2228 
L 1259 2228 
L 1259 0 
L 628 0 
L 628 4666 
z
" transform="scale(0.015625)"/>
        <path id="DejaVuSans-6f" d="M 1959 3097 
Q 1497 3097 1228 2736 
Q 959 2375 959 1747 
Q 959 1119 1226 758 
Q 1494 397 1959 397 
Q 2419 397 2687 759 
Q 2956 1122 2956 1747 
Q 2956 2369 2687 2733 
Q 2419 3097 1959 3097 
z
M 1959 3584 
Q 2709 3584 3137 3096 
Q 3566 2609 3566 1747 
Q 3566 888 3137 398 
Q 2709 -91 1959 -91 
Q 1206 -91 779 398 
Q 353 888 353 1747 
Q 353 2609 779 3096 
Q 1206 3584 1959 3584 
z
" transform="scale(0.015625)"/>
        <path id="DejaVuSans-72" d="M 2631 2963 
Q 2534 3019 2420 3045 
Q 2306 3072 2169 3072 
Q 1681 3072 1420 2755 
Q 1159 2438 1159 1844 
L 1159 0 
L 581 0 
L 581 3500 
L 1159 3500 
L 1159 2956 
Q 1341 3275 1631 3429 
Q 1922 3584 2338 3584 
Q 2397 3584 2469 3576 
Q 2541 3569 2628 3553 
L 2631 2963 
z
" transform="scale(0.015625)"/>
        <path id="DejaVuSans-63" d="M 3122 3366 
L 3122 2828 
Q 2878 2963 2633 3030 
Q 2388 3097 2138 3097 
Q 1578 3097 1268 2742 
Q 959 2388 959 1747 
Q 959 1106 1268 751 
Q 1578 397 2138 397 
Q 2388 397 2633 464 
Q 2878 531 3122 666 
L 3122 134 
Q 2881 22 2623 -34 
Q 2366 -91 2075 -91 
Q 1284 -91 818 406 
Q 353 903 353 1747 
Q 353 2603 823 3093 
Q 1294 3584 2113 3584 
Q 2378 3584 2631 3529 
Q 2884 3475 3122 3366 
z
" transform="scale(0.015625)"/>
        <path id="DejaVuSans-65" d="M 3597 1894 
L 3597 1613 
L 953 1613 
Q 991 1019 1311 708 
Q 1631 397 2203 397 
Q 2534 397 2845 478 
Q 3156 559 3463 722 
L 3463 178 
Q 3153 47 2828 -22 
Q 2503 -91 2169 -91 
Q 1331 -91 842 396 
Q 353 884 353 1716 
Q 353 2575 817 3079 
Q 1281 3584 2069 3584 
Q 2775 3584 3186 3129 
Q 3597 2675 3597 1894 
z
M 3022 2063 
Q 3016 2534 2758 2815 
Q 2500 3097 2075 3097 
Q 1594 3097 1305 2825 
Q 1016 2553 972 2059 
L 3022 2063 
z
" transform="scale(0.015625)"/>
        <path id="DejaVuSans-64" d="M 2906 2969 
L 2906 4863 
L 3481 4863 
L 3481 0 
L 2906 0 
L 2906 525 
Q 2725 213 2448 61 
Q 2172 -91 1784 -91 
Q 1150 -91 751 415 
Q 353 922 353 1747 
Q 353 2572 751 3078 
Q 1150 3584 1784 3584 
Q 2172 3584 2448 3432 
Q 2725 3281 2906 2969 
z
M 947 1747 
Q 947 1113 1208 752 
Q 1469 391 1925 391 
Q 2381 391 2643 752 
Q 2906 1113 2906 1747 
Q 2906 2381 2643 2742 
Q 2381 3103 1925 3103 
Q 1469 3103 1208 2742 
Q 947 2381 947 1747 
z
" transform="scale(0.015625)"/>
        <path id="DejaVuSans-20" transform="scale(0.015625)"/>
        <path id="DejaVuSans-6d" d="M 3328 2828 
Q 3544 3216 3844 3400 
Q 4144 3584 4550 3584 
Q 5097 3584 5394 3201 
Q 5691 2819 5691 2113 
L 5691 0 
L 5113 0 
L 5113 2094 
Q 5113 2597 4934 2840 
Q 4756 3084 4391 3084 
Q 3944 3084 3684 2787 
Q 3425 2491 3425 1978 
L 3425 0 
L 2847 0 
L 2847 2094 
Q 2847 2600 2669 2842 
Q 2491 3084 2119 3084 
Q 1678 3084 1418 2786 
Q 1159 2488 1159 1978 
L 1159 0 
L 581 0 
L 581 3500 
L 1159 3500 
L 1159 2956 
Q 1356 3278 1631 3431 
Q 1906 3584 2284 3584 
Q 2666 3584 2933 3390 
Q 3200 3197 3328 2828 
z
" transform="scale(0.015625)"/>
        <path id="DejaVuSans-69" d="M 603 3500 
L 1178 3500 
L 1178 0 
L 603 0 
L 603 3500 
z
M 603 4863 
L 1178 4863 
L 1178 4134 
L 603 4134 
L 603 4863 
z
" transform="scale(0.015625)"/>
        <path id="DejaVuSans-74" d="M 1172 4494 
L 1172 3500 
L 2356 3500 
L 2356 3053 
L 1172 3053 
L 1172 1153 
Q 1172 725 1289 603 
Q 1406 481 1766 481 
L 2356 481 
L 2356 0 
L 1766 0 
Q 1100 0 847 248 
Q 594 497 594 1153 
L 594 3053 
L 172 3053 
L 172 3500 
L 594 3500 
L 594 4494 
L 1172 4494 
z
" transform="scale(0.015625)"/>
       </defs>
       <use xlink:href="#DejaVuSans-46"/>
       <use xlink:href="#DejaVuSans-6f" x="53.894531"/>
       <use xlink:href="#DejaVuSans-72" x="115.076172"/>
       <use xlink:href="#DejaVuSans-63" x="153.939453"/>
       <use xlink:href="#DejaVuSans-65" x="208.919922"/>
       <use xlink:href="#DejaVuSans-64" x="270.443359"/>
       <use xlink:href="#DejaVuSans-20" x="333.919922"/>
       <use xlink:href="#DejaVuSans-63" x="365.707031"/>
       <use xlink:href="#DejaVuSans-6f" x="420.6875"/>
       <use xlink:href="#DejaVuSans-6d" x="481.869141"/>
       <use xlink:href="#DejaVuSans-6d" x="579.28125"/>
       <use xlink:href="#DejaVuSans-69" x="676.693359"/>
       <use xlink:href="#DejaVuSans-74" x="704.476562"/>
      </g>
     </g>
    </g>
    <g id="xtick_2">
     <g id="line2d_2">
      <g>
       <use xlink:href="#m59aa5d15fd" x="305.1" y="320.4" style="stroke: #000000; stroke-width: 0.8"/>
      </g>
     </g>
     <g id="text_2">
      <!-- Voting commit -->
      <g transform="translate(254.319375 338.037813) scale(0.14 -0.14)">
       <defs>
        <path id="DejaVuSans-56" d="M 1831 0 
L 50 4666 
L 709 4666 
L 2188 738 
L 3669 4666 
L 4325 4666 
L 2547 0 
L 1831 0 
z
" transform="scale(0.015625)"/>
        <path id="DejaVuSans-6e" d="M 3513 2113 
L 3513 0 
L 2938 0 
L 2938 2094 
Q 2938 2591 2744 2837 
Q 2550 3084 2163 3084 
Q 1697 3084 1428 2787 
Q 1159 2491 1159 1978 
L 1159 0 
L 581 0 
L 581 3500 
L 1159 3500 
L 1159 2956 
Q 1366 3272 1645 3428 
Q 1925 3584 2291 3584 
Q 2894 3584 3203 3211 
Q 3513 2838 3513 2113 
z
" transform="scale(0.015625)"/>
        <path id="DejaVuSans-67" d="M 2906 1791 
Q 2906 2416 2648 2759 
Q 2391 3103 1925 3103 
Q 1463 3103 1205 2759 
Q 947 2416 947 1791 
Q 947 1169 1205 825 
Q 1463 481 1925 481 
Q 2391 481 2648 825 
Q 2906 1169 2906 1791 
z
M 3481 434 
Q 3481 -459 3084 -895 
Q 2688 -1331 1869 -1331 
Q 1566 -1331 1297 -1286 
Q 1028 -1241 775 -1147 
L 775 -588 
Q 1028 -725 1275 -790 
Q 1522 -856 1778 -856 
Q 2344 -856 2625 -561 
Q 2906 -266 2906 331 
L 2906 616 
Q 2728 306 2450 153 
Q 2172 0 1784 0 
Q 1141 0 747 490 
Q 353 981 353 1791 
Q 353 2603 747 3093 
Q 1141 3584 1784 3584 
Q 2172 3584 2450 3431 
Q 2728 3278 2906 2969 
L 2906 3500 
L 3481 3500 
L 3481 434 
z
" transform="scale(0.015625)"/>
       </defs>
       <use xlink:href="#DejaVuSans-56"/>
       <use xlink:href="#DejaVuSans-6f" x="60.658203"/>
       <use xlink:href="#DejaVuSans-74" x="121.839844"/>
       <use xlink:href="#DejaVuSans-69" x="161.048828"/>
       <use xlink:href="#DejaVuSans-6e" x="188.832031"/>
       <use xlink:href="#DejaVuSans-67" x="252.210938"/>
       <use xlink:href="#DejaVuSans-20" x="315.6875"/>
       <use xlink:href="#DejaVuSans-63" x="347.474609"/>
       <use xlink:href="#DejaVuSans-6f" x="402.455078"/>
       <use xlink:href="#DejaVuSans-6d" x="463.636719"/>
       <use xlink:href="#DejaVuSans-6d" x="561.048828"/>
       <use xlink:href="#DejaVuSans-69" x="658.460938"/>
       <use xlink:href="#DejaVuSans-74" x="686.244141"/>
      </g>
     </g>
    </g>
    <g id="text_3">
     <!-- Method -->
     <g transform="translate(195.145625 355.587188) scale(0.14 -0.14)">
      <defs>
       <path id="DejaVuSans-4d" d="M 628 4666 
L 1569 4666 
L 2759 1491 
L 3956 4666 
L 4897 4666 
L 4897 0 
L 4281 0 
L 4281 4097 
L 3078 897 
L 2444 897 
L 1241 4097 
L 1241 0 
L 628 0 
L 628 4666 
z
" transform="scale(0.015625)"/>
       <path id="DejaVuSans-68" d="M 3513 2113 
L 3513 0 
L 2938 0 
L 2938 2094 
Q 2938 2591 2744 2837 
Q 2550 3084 2163 3084 
Q 1697 3084 1428 2787 
Q 1159 2491 1159 1978 
L 1159 0 
L 581 0 
L 581 4863 
L 1159 4863 
L 1159 2956 
Q 1366 3272 1645 3428 
Q 1925 3584 2291 3584 
Q 2894 3584 3203 3211 
Q 3513 2838 3513 2113 
z
" transform="scale(0.015625)"/>
      </defs>
      <use xlink:href="#DejaVuSans-4d"/>
      <use xlink:href="#DejaVuSans-65" x="86.279297"/>
      <use xlink:href="#DejaVuSans-74" x="147.802734"/>
      <use xlink:href="#DejaVuSans-68" x="187.011719"/>
      <use xlink:href="#DejaVuSans-6f" x="250.390625"/>
      <use xlink:href="#DejaVuSans-64" x="311.572266"/>
     </g>
    </g>
   </g>
   <g id="matplotlib.axis_2">
    <g id="ytick_1">
     <g id="line2d_3">
      <defs>
       <path id="mdb2e879053" d="M 0 0 
L -3.5 0 
" style="stroke: #000000; stroke-width: 0.8"/>
      </defs>
      <g>
       <use xlink:href="#mdb2e879053" x="54" y="307.8" style="stroke: #000000; stroke-width: 0.8"/>
      </g>
     </g>
     <g id="text_4">
      <!-- 60 -->
      <g transform="translate(29.185 313.118906) scale(0.14 -0.14)">
       <defs>
        <path id="DejaVuSans-36" d="M 2113 2584 
Q 1688 2584 1439 2293 
Q 1191 2003 1191 1497 
Q 1191 994 1439 701 
Q 1688 409 2113 409 
Q 2538 409 2786 701 
Q 3034 994 3034 1497 
Q 3034 2003 2786 2293 
Q 2538 2584 2113 2584 
z
M 3366 4563 
L 3366 3988 
Q 3128 4100 2886 4159 
Q 2644 4219 2406 4219 
Q 1781 4219 1451 3797 
Q 1122 3375 1075 2522 
Q 1259 2794 1537 2939 
Q 1816 3084 2150 3084 
Q 2853 3084 3261 2657 
Q 3669 2231 3669 1497 
Q 3669 778 3244 343 
Q 2819 -91 2113 -91 
Q 1303 -91 875 529 
Q 447 1150 447 2328 
Q 447 3434 972 4092 
Q 1497 4750 2381 4750 
Q 2619 4750 2861 4703 
Q 3103 4656 3366 4563 
z
" transform="scale(0.015625)"/>
        <path id="DejaVuSans-30" d="M 2034 4250 
Q 1547 4250 1301 3770 
Q 1056 3291 1056 2328 
Q 1056 1369 1301 889 
Q 1547 409 2034 409 
Q 2525 409 2770 889 
Q 3016 1369 3016 2328 
Q 3016 3291 2770 3770 
Q 2525 4250 2034 4250 
z
M 2034 4750 
Q 2819 4750 3233 4129 
Q 3647 3509 3647 2328 
Q 3647 1150 3233 529 
Q 2819 -91 2034 -91 
Q 1250 -91 836 529 
Q 422 1150 422 2328 
Q 422 3509 836 4129 
Q 1250 4750 2034 4750 
z
" transform="scale(0.015625)"/>
       </defs>
       <use xlink:href="#DejaVuSans-36"/>
       <use xlink:href="#DejaVuSans-30" x="63.623047"/>
      </g>
     </g>
    </g>
    <g id="ytick_2">
     <g id="line2d_4">
      <g>
       <use xlink:href="#mdb2e879053" x="54" y="274.2" style="stroke: #000000; stroke-width: 0.8"/>
      </g>
     </g>
     <g id="text_5">
      <!-- 65 -->
      <g transform="translate(29.185 279.518906) scale(0.14 -0.14)">
       <defs>
        <path id="DejaVuSans-35" d="M 691 4666 
L 3169 4666 
L 3169 4134 
L 1269 4134 
L 1269 2991 
Q 1406 3038 1543 3061 
Q 1681 3084 1819 3084 
Q 2600 3084 3056 2656 
Q 3513 2228 3513 1497 
Q 3513 744 3044 326 
Q 2575 -91 1722 -91 
Q 1428 -91 1123 -41 
Q 819 9 494 109 
L 494 744 
Q 775 591 1075 516 
Q 1375 441 1709 441 
Q 2250 441 2565 725 
Q 2881 1009 2881 1497 
Q 2881 1984 2565 2268 
Q 2250 2553 1709 2553 
Q 1456 2553 1204 2497 
Q 953 2441 691 2322 
L 691 4666 
z
" transform="scale(0.015625)"/>
       </defs>
       <use xlink:href="#DejaVuSans-36"/>
       <use xlink:href="#DejaVuSans-35" x="63.623047"/>
      </g>
     </g>
    </g>
    <g id="ytick_3">
     <g id="line2d_5">
      <g>
       <use xlink:href="#mdb2e879053" x="54" y="240.6" style="stroke: #000000; stroke-width: 0.8"/>
      </g>
     </g>
     <g id="text_6">
      <!-- 70 -->
      <g transform="translate(29.185 245.918906) scale(0.14 -0.14)">
       <defs>
        <path id="DejaVuSans-37" d="M 525 4666 
L 3525 4666 
L 3525 4397 
L 1831 0 
L 1172 0 
L 2766 4134 
L 525 4134 
L 525 4666 
z
" transform="scale(0.015625)"/>
       </defs>
       <use xlink:href="#DejaVuSans-37"/>
       <use xlink:href="#DejaVuSans-30" x="63.623047"/>
      </g>
     </g>
    </g>
    <g id="ytick_4">
     <g id="line2d_6">
      <g>
       <use xlink:href="#mdb2e879053" x="54" y="207" style="stroke: #000000; stroke-width: 0.8"/>
      </g>
     </g>
     <g id="text_7">
      <!-- 75 -->
      <g transform="translate(29.185 212.318906) scale(0.14 -0.14)">
       <use xlink:href="#DejaVuSans-37"/>
       <use xlink:href="#DejaVuSans-35" x="63.623047"/>
      </g>
     </g>
    </g>
    <g id="ytick_5">
     <g id="line2d_7">
      <g>
       <use xlink:href="#mdb2e879053" x="54" y="173.4" style="stroke: #000000; stroke-width: 0.8"/>
      </g>
     </g>
     <g id="text_8">
      <!-- 80 -->
      <g transform="translate(29.185 178.718906) scale(0.14 -0.14)">
       <defs>
        <path id="DejaVuSans-38" d="M 2034 2216 
Q 1584 2216 1326 1975 
Q 1069 1734 1069 1313 
Q 1069 891 1326 650 
Q 1584 409 2034 409 
Q 2484 409 2743 651 
Q 3003 894 3003 1313 
Q 3003 1734 2745 1975 
Q 2488 2216 2034 2216 
z
M 1403 2484 
Q 997 2584 770 2862 
Q 544 3141 544 3541 
Q 544 4100 942 4425 
Q 1341 4750 2034 4750 
Q 2731 4750 3128 4425 
Q 3525 4100 3525 3541 
Q 3525 3141 3298 2862 
Q 3072 2584 2669 2484 
Q 3125 2378 3379 2068 
Q 3634 1759 3634 1313 
Q 3634 634 3220 271 
Q 2806 -91 2034 -91 
Q 1263 -91 848 271 
Q 434 634 434 1313 
Q 434 1759 690 2068 
Q 947 2378 1403 2484 
z
M 1172 3481 
Q 1172 3119 1398 2916 
Q 1625 2713 2034 2713 
Q 2441 2713 2670 2916 
Q 2900 3119 2900 3481 
Q 2900 3844 2670 4047 
Q 2441 4250 2034 4250 
Q 1625 4250 1398 4047 
Q 1172 3844 1172 3481 
z
" transform="scale(0.015625)"/>
       </defs>
       <use xlink:href="#DejaVuSans-38"/>
       <use xlink:href="#DejaVuSans-30" x="63.623047"/>
      </g>
     </g>
    </g>
    <g id="ytick_6">
     <g id="line2d_8">
      <g>
       <use xlink:href="#mdb2e879053" x="54" y="139.8" style="stroke: #000000; stroke-width: 0.8"/>
      </g>
     </g>
     <g id="text_9">
      <!-- 85 -->
      <g transform="translate(29.185 145.118906) scale(0.14 -0.14)">
       <use xlink:href="#DejaVuSans-38"/>
       <use xlink:href="#DejaVuSans-35" x="63.623047"/>
      </g>
     </g>
    </g>
    <g id="ytick_7">
     <g id="line2d_9">
      <g>
       <use xlink:href="#mdb2e879053" x="54" y="106.2" style="stroke: #000000; stroke-width: 0.8"/>
      </g>
     </g>
     <g id="text_10">
      <!-- 90 -->
      <g transform="translate(29.185 111.518906) scale(0.14 -0.14)">
       <defs>
        <path id="DejaVuSans-39" d="M 703 97 
L 703 672 
Q 941 559 1184 500 
Q 1428 441 1663 441 
Q 2288 441 2617 861 
Q 2947 1281 2994 2138 
Q 2813 1869 2534 1725 
Q 2256 1581 1919 1581 
Q 1219 1581 811 2004 
Q 403 2428 403 3163 
Q 403 3881 828 4315 
Q 1253 4750 1959 4750 
Q 2769 4750 3195 4129 
Q 3622 3509 3622 2328 
Q 3622 1225 3098 567 
Q 2575 -91 1691 -91 
Q 1453 -91 1209 -44 
Q 966 3 703 97 
z
M 1959 2075 
Q 2384 2075 2632 2365 
Q 2881 2656 2881 3163 
Q 2881 3666 2632 3958 
Q 2384 4250 1959 4250 
Q 1534 4250 1286 3958 
Q 1038 3666 1038 3163 
Q 1038 2656 1286 2365 
Q 1534 2075 1959 2075 
z
" transform="scale(0.015625)"/>
       </defs>
       <use xlink:href="#DejaVuSans-39"/>
       <use xlink:href="#DejaVuSans-30" x="63.623047"/>
      </g>
     </g>
    </g>
    <g id="ytick_8">
     <g id="line2d_10">
      <g>
       <use xlink:href="#mdb2e879053" x="54" y="72.6" style="stroke: #000000; stroke-width: 0.8"/>
      </g>
     </g>
     <g id="text_11">
      <!-- 95 -->
      <g transform="translate(29.185 77.918906) scale(0.14 -0.14)">
       <use xlink:href="#DejaVuSans-39"/>
       <use xlink:href="#DejaVuSans-35" x="63.623047"/>
      </g>
     </g>
    </g>
    <g id="text_12">
     <!-- SUS -->
     <g transform="translate(22.273438 195.810937) rotate(-90) scale(0.14 -0.14)">
      <defs>
       <path id="DejaVuSans-53" d="M 3425 4513 
L 3425 3897 
Q 3066 4069 2747 4153 
Q 2428 4238 2131 4238 
Q 1616 4238 1336 4038 
Q 1056 3838 1056 3469 
Q 1056 3159 1242 3001 
Q 1428 2844 1947 2747 
L 2328 2669 
Q 3034 2534 3370 2195 
Q 3706 1856 3706 1288 
Q 3706 609 3251 259 
Q 2797 -91 1919 -91 
Q 1588 -91 1214 -16 
Q 841 59 441 206 
L 441 856 
Q 825 641 1194 531 
Q 1563 422 1919 422 
Q 2459 422 2753 634 
Q 3047 847 3047 1241 
Q 3047 1584 2836 1778 
Q 2625 1972 2144 2069 
L 1759 2144 
Q 1053 2284 737 2584 
Q 422 2884 422 3419 
Q 422 4038 858 4394 
Q 1294 4750 2059 4750 
Q 2388 4750 2728 4690 
Q 3069 4631 3425 4513 
z
" transform="scale(0.015625)"/>
       <path id="DejaVuSans-55" d="M 556 4666 
L 1191 4666 
L 1191 1831 
Q 1191 1081 1462 751 
Q 1734 422 2344 422 
Q 2950 422 3222 751 
Q 3494 1081 3494 1831 
L 3494 4666 
L 4128 4666 
L 4128 1753 
Q 4128 841 3676 375 
Q 3225 -91 2344 -91 
Q 1459 -91 1007 375 
Q 556 841 556 1753 
L 556 4666 
z
" transform="scale(0.015625)"/>
      </defs>
      <use xlink:href="#DejaVuSans-53"/>
      <use xlink:href="#DejaVuSans-55" x="63.476562"/>
      <use xlink:href="#DejaVuSans-53" x="136.669922"/>
     </g>
    </g>
   </g>
   <g id="patch_3">
    <path d="M 54 320.4 
L 54 43.2 
" style="fill: none; stroke: #000000; stroke-width: 0.8; stroke-linejoin: miter; stroke-linecap: square"/>
   </g>
   <g id="patch_4">
    <path d="M 388.8 320.4 
L 388.8 43.2 
" style="fill: none; stroke: #000000; stroke-width: 0.8; stroke-linejoin: miter; stroke-linecap: square"/>
   </g>
   <g id="patch_5">
    <path d="M 54 320.4 
L 388.8 320.4 
" style="fill: none; stroke: #000000; stroke-width: 0.8; stroke-linejoin: miter; stroke-linecap: square"/>
   </g>
   <g id="patch_6">
    <path d="M 54 43.2 
L 388.8 43.2 
" style="fill: none; stroke: #000000; stroke-width: 0.8; stroke-linejoin: miter; stroke-linecap: square"/>
   </g>
   <g id="PathCollection_1">
    <defs>
     <path id="C0_0_fc57e61ce3" d="M 0 2.5 
C 0.663008 2.5 1.29895 2.236584 1.767767 1.767767 
C 2.236584 1.29895 2.5 0.663008 2.5 -0 
C 2.5 -0.663008 2.236584 -1.29895 1.767767 -1.767767 
C 1.29895 -2.236584 0.663008 -2.5 0 -2.5 
C -0.663008 -2.5 -1.29895 -2.236584 -1.767767 -1.767767 
C -2.236584 -1.29895 -2.5 -0.663008 -2.5 0 
C -2.5 0.663008 -2.236584 1.29895 -1.767767 1.767767 
C -1.29895 2.236584 -0.663008 2.5 0 2.5 
z
"/>
    </defs>
    <g clip-path="url(#p133826399e)">
     <use xlink:href="#C0_0_fc57e61ce3" x="137.7" y="106.2" style="fill: #262626; fill-opacity: 0.5"/>
    </g>
    <g clip-path="url(#p133826399e)">
     <use xlink:href="#C0_0_fc57e61ce3" x="137.7" y="240.6" style="fill: #262626; fill-opacity: 0.5"/>
    </g>
    <g clip-path="url(#p133826399e)">
     <use xlink:href="#C0_0_fc57e61ce3" x="127.2" y="156.6" style="fill: #262626; fill-opacity: 0.5"/>
    </g>
    <g clip-path="url(#p133826399e)">
     <use xlink:href="#C0_0_fc57e61ce3" x="137.7" y="72.6" style="fill: #262626; fill-opacity: 0.5"/>
    </g>
    <g clip-path="url(#p133826399e)">
     <use xlink:href="#C0_0_fc57e61ce3" x="142.95" y="123" style="fill: #262626; fill-opacity: 0.5"/>
    </g>
    <g clip-path="url(#p133826399e)">
     <use xlink:href="#C0_0_fc57e61ce3" x="132.45" y="156.6" style="fill: #262626; fill-opacity: 0.5"/>
    </g>
    <g clip-path="url(#p133826399e)">
     <use xlink:href="#C0_0_fc57e61ce3" x="137.7" y="123" style="fill: #262626; fill-opacity: 0.5"/>
    </g>
    <g clip-path="url(#p133826399e)">
     <use xlink:href="#C0_0_fc57e61ce3" x="127.2" y="123" style="fill: #262626; fill-opacity: 0.5"/>
    </g>
    <g clip-path="url(#p133826399e)">
     <use xlink:href="#C0_0_fc57e61ce3" x="142.95" y="173.4" style="fill: #262626; fill-opacity: 0.5"/>
    </g>
    <g clip-path="url(#p133826399e)">
     <use xlink:href="#C0_0_fc57e61ce3" x="137.7" y="55.8" style="fill: #262626; fill-opacity: 0.5"/>
    </g>
    <g clip-path="url(#p133826399e)">
     <use xlink:href="#C0_0_fc57e61ce3" x="137.7" y="274.2" style="fill: #262626; fill-opacity: 0.5"/>
    </g>
    <g clip-path="url(#p133826399e)">
     <use xlink:href="#C0_0_fc57e61ce3" x="132.45" y="123" style="fill: #262626; fill-opacity: 0.5"/>
    </g>
    <g clip-path="url(#p133826399e)">
     <use xlink:href="#C0_0_fc57e61ce3" x="132.45" y="173.4" style="fill: #262626; fill-opacity: 0.5"/>
    </g>
    <g clip-path="url(#p133826399e)">
     <use xlink:href="#C0_0_fc57e61ce3" x="142.95" y="156.6" style="fill: #262626; fill-opacity: 0.5"/>
    </g>
    <g clip-path="url(#p133826399e)">
     <use xlink:href="#C0_0_fc57e61ce3" x="137.7" y="173.4" style="fill: #262626; fill-opacity: 0.5"/>
    </g>
    <g clip-path="url(#p133826399e)">
     <use xlink:href="#C0_0_fc57e61ce3" x="137.7" y="257.4" style="fill: #262626; fill-opacity: 0.5"/>
    </g>
    <g clip-path="url(#p133826399e)">
     <use xlink:href="#C0_0_fc57e61ce3" x="137.7" y="307.8" style="fill: #262626; fill-opacity: 0.5"/>
    </g>
    <g clip-path="url(#p133826399e)">
     <use xlink:href="#C0_0_fc57e61ce3" x="137.7" y="207" style="fill: #262626; fill-opacity: 0.5"/>
    </g>
    <g clip-path="url(#p133826399e)">
     <use xlink:href="#C0_0_fc57e61ce3" x="137.7" y="156.6" style="fill: #262626; fill-opacity: 0.5"/>
    </g>
    <g clip-path="url(#p133826399e)">
     <use xlink:href="#C0_0_fc57e61ce3" x="148.2" y="123" style="fill: #262626; fill-opacity: 0.5"/>
    </g>
   </g>
   <g id="PathCollection_2">
    <defs>
     <path id="C1_0_4aeaf43e76" d="M 0 2.5 
C 0.663008 2.5 1.29895 2.236584 1.767767 1.767767 
C 2.236584 1.29895 2.5 0.663008 2.5 -0 
C 2.5 -0.663008 2.236584 -1.29895 1.767767 -1.767767 
C 1.29895 -2.236584 0.663008 -2.5 0 -2.5 
C -0.663008 -2.5 -1.29895 -2.236584 -1.767767 -1.767767 
C -2.236584 -1.29895 -2.5 -0.663008 -2.5 0 
C -2.5 0.663008 -2.236584 1.29895 -1.767767 1.767767 
C -1.29895 2.236584 -0.663008 2.5 0 2.5 
z
"/>
    </defs>
    <g clip-path="url(#p133826399e)">
     <use xlink:href="#C1_0_4aeaf43e76" x="305.1" y="106.2" style="fill-opacity: 0.5"/>
    </g>
    <g clip-path="url(#p133826399e)">
     <use xlink:href="#C1_0_4aeaf43e76" x="305.1" y="257.4" style="fill-opacity: 0.5"/>
    </g>
    <g clip-path="url(#p133826399e)">
     <use xlink:href="#C1_0_4aeaf43e76" x="299.85" y="106.2" style="fill-opacity: 0.5"/>
    </g>
    <g clip-path="url(#p133826399e)">
     <use xlink:href="#C1_0_4aeaf43e76" x="299.85" y="240.6" style="fill-opacity: 0.5"/>
    </g>
    <g clip-path="url(#p133826399e)">
     <use xlink:href="#C1_0_4aeaf43e76" x="299.85" y="89.4" style="fill-opacity: 0.5"/>
    </g>
    <g clip-path="url(#p133826399e)">
     <use xlink:href="#C1_0_4aeaf43e76" x="305.1" y="89.4" style="fill-opacity: 0.5"/>
    </g>
    <g clip-path="url(#p133826399e)">
     <use xlink:href="#C1_0_4aeaf43e76" x="305.1" y="139.8" style="fill-opacity: 0.5"/>
    </g>
    <g clip-path="url(#p133826399e)">
     <use xlink:href="#C1_0_4aeaf43e76" x="299.85" y="173.4" style="fill-opacity: 0.5"/>
    </g>
    <g clip-path="url(#p133826399e)">
     <use xlink:href="#C1_0_4aeaf43e76" x="305.1" y="55.8" style="fill-opacity: 0.5"/>
    </g>
    <g clip-path="url(#p133826399e)">
     <use xlink:href="#C1_0_4aeaf43e76" x="310.35" y="89.4" style="fill-opacity: 0.5"/>
    </g>
    <g clip-path="url(#p133826399e)">
     <use xlink:href="#C1_0_4aeaf43e76" x="299.85" y="257.4" style="fill-opacity: 0.5"/>
    </g>
    <g clip-path="url(#p133826399e)">
     <use xlink:href="#C1_0_4aeaf43e76" x="305.1" y="123" style="fill-opacity: 0.5"/>
    </g>
    <g clip-path="url(#p133826399e)">
     <use xlink:href="#C1_0_4aeaf43e76" x="310.35" y="173.4" style="fill-opacity: 0.5"/>
    </g>
    <g clip-path="url(#p133826399e)">
     <use xlink:href="#C1_0_4aeaf43e76" x="299.85" y="190.2" style="fill-opacity: 0.5"/>
    </g>
    <g clip-path="url(#p133826399e)">
     <use xlink:href="#C1_0_4aeaf43e76" x="305.1" y="190.2" style="fill-opacity: 0.5"/>
    </g>
    <g clip-path="url(#p133826399e)">
     <use xlink:href="#C1_0_4aeaf43e76" x="305.1" y="291" style="fill-opacity: 0.5"/>
    </g>
    <g clip-path="url(#p133826399e)">
     <use xlink:href="#C1_0_4aeaf43e76" x="305.1" y="223.8" style="fill-opacity: 0.5"/>
    </g>
    <g clip-path="url(#p133826399e)">
     <use xlink:href="#C1_0_4aeaf43e76" x="305.1" y="173.4" style="fill-opacity: 0.5"/>
    </g>
    <g clip-path="url(#p133826399e)">
     <use xlink:href="#C1_0_4aeaf43e76" x="305.1" y="207" style="fill-opacity: 0.5"/>
    </g>
    <g clip-path="url(#p133826399e)">
     <use xlink:href="#C1_0_4aeaf43e76" x="305.1" y="240.6" style="fill-opacity: 0.5"/>
    </g>
   </g>
   <g id="line2d_11">
    <path d="M 70.74 156.6 
L 204.66 156.6 
" clip-path="url(#p133826399e)" style="fill: none; stroke: #000000; stroke-linecap: square"/>
   </g>
   <g id="line2d_12">
    <path d="M 70.74 164.16 
L 204.66 164.16 
" clip-path="url(#p133826399e)" style="fill: none; stroke-dasharray: 3.7,1.6; stroke-dashoffset: 0; stroke: #2ca02c"/>
   </g>
   <g id="line2d_13">
    <path d="M 238.14 173.4 
L 372.06 173.4 
" clip-path="url(#p133826399e)" style="fill: none; stroke: #000000; stroke-linecap: square"/>
   </g>
   <g id="line2d_14">
    <path d="M 238.14 170.88 
L 372.06 170.88 
" clip-path="url(#p133826399e)" style="fill: none; stroke-dasharray: 3.7,1.6; stroke-dashoffset: 0; stroke: #2ca02c"/>
   </g>
  </g>
 </g>
 <defs>
  <clipPath id="p133826399e">
   <rect x="54" y="43.2" width="334.8" height="277.2"/>
  </clipPath>
 </defs>
</svg>
