<?xml version="1.0" encoding="utf-8" standalone="no"?>
<!DOCTYPE svg PUBLIC "-//W3C//DTD SVG 1.1//EN"
  "http://www.w3.org/Graphics/SVG/1.1/DTD/svg11.dtd">
<svg xmlns:xlink="http://www.w3.org/1999/xlink" width="432pt" height="360pt" viewBox="0 0 432 360" xmlns="http://www.w3.org/2000/svg" version="1.1">
 <metadata>
  <rdf:RDF xmlns:dc="http://purl.org/dc/elements/1.1/" xmlns:cc="http://creativecommons.org/ns#" xmlns:rdf="http://www.w3.org/1999/02/22-rdf-syntax-ns#">
   <cc:Work>
    <dc:type rdf:resource="http://purl.org/dc/dcmitype/StillImage"/>
    <dc:date>2023-03-30T15:21:01.415173</dc:date>
    <dc:format>image/svg+xml</dc:format>
    <dc:creator>
     <cc:Agent>
      <dc:title>Matplotlib v3.7.1, https://matplotlib.org/</dc:title>
     </cc:Agent>
    </dc:creator>
   </cc:Work>
  </rdf:RDF>
 </metadata>
 <defs>
  <style type="text/css">*{stroke-linejoin: round; stroke-linecap: butt}</style>
 </defs>
 <g id="figure_1">
  <g id="patch_1">
   <path d="M 0 360 
L 432 360 
L 432 0 
L 0 0 
z
" style="fill: #ffffff"/>
  </g>
  <g id="axes_1">
   <g id="patch_2">
    <path d="M 54 320.4 
L 388.8 320.4 
L 388.8 43.2 
L 54 43.2 
z
" style="fill: #ffffff"/>
   </g>
   <g id="PolyCollection_1">
    <defs>
     <path id="m0b98392d9c" d="M 141.991749 -99.467409 
L 133.408251 -99.467409 
L 131.640131 -101.018962 
L 129.346068 -102.570514 
L 126.45489 -104.122067 
L 122.918068 -105.673619 
L 118.722121 -107.225172 
L 113.900148 -108.776725 
L 108.540392 -110.328277 
L 102.789677 -111.87983 
L 96.849971 -113.431382 
L 90.96721 -114.982935 
L 85.412749 -116.534487 
L 80.459272 -118.08604 
L 76.35423 -119.637593 
L 73.294736 -121.189145 
L 71.407917 -122.740698 
L 70.74 -124.29225 
L 71.255902 -125.843803 
L 72.849204 -127.395355 
L 75.360409 -128.946908 
L 78.599918 -130.498461 
L 82.371451 -132.050013 
L 86.491943 -133.601566 
L 90.805044 -135.153118 
L 95.187036 -136.704671 
L 99.545741 -138.256223 
L 103.814361 -139.807776 
L 107.94296 -141.359329 
L 111.89022 -142.910881 
L 115.61747 -144.462434 
L 119.085902 -146.013986 
L 122.256815 -147.565539 
L 125.093937 -149.117091 
L 127.566435 -150.668644 
L 129.651352 -152.220197 
L 131.33459 -153.771749 
L 132.610196 -155.323302 
L 133.478273 -156.874854 
L 133.942276 -158.426407 
L 134.006622 -159.977959 
L 133.675424 -161.529512 
L 132.952863 -163.081065 
L 131.845219 -164.632617 
L 130.364127 -166.18417 
L 128.530177 -167.735722 
L 126.375806 -169.287275 
L 123.946435 -170.838827 
L 121.299187 -172.39038 
L 118.499055 -173.941933 
L 115.613126 -175.493485 
L 112.70411 -177.045038 
L 109.824828 -178.59659 
L 107.015302 -180.148143 
L 104.303617 -181.699695 
L 101.710793 -183.251248 
L 99.25881 -184.802801 
L 96.979871 -186.354353 
L 94.924352 -187.905906 
L 93.164863 -189.457458 
L 91.794515 -191.009011 
L 90.918747 -192.560563 
L 90.641554 -194.112116 
L 91.048372 -195.663669 
L 92.188746 -197.215221 
L 94.062097 -198.766774 
L 96.609292 -200.318326 
L 99.711516 -201.869879 
L 103.196485 -203.421431 
L 106.850701 -204.972984 
L 110.435541 -206.524537 
L 113.70473 -208.076089 
L 116.421116 -209.627642 
L 118.371471 -211.179194 
L 119.378998 -212.730747 
L 119.313943 -214.282299 
L 118.10301 -215.833852 
L 115.738006 -217.385405 
L 112.283392 -218.936957 
L 107.8815 -220.48851 
L 102.753366 -222.040062 
L 97.192862 -223.591615 
L 91.552275 -225.143167 
L 86.218713 -226.69472 
L 81.582554 -228.246273 
L 78.001095 -229.797825 
L 75.762167 -231.349378 
L 75.053231 -232.90093 
L 75.941081 -234.452483 
L 78.36575 -236.004035 
L 82.149831 -237.555588 
L 87.021742 -239.107141 
L 92.649078 -240.658693 
L 98.676635 -242.210246 
L 104.763286 -243.761798 
L 110.612616 -245.313351 
L 115.993866 -246.864903 
L 120.751776 -248.416456 
L 124.805926 -249.968009 
L 128.141751 -251.519561 
L 130.796223 -253.071114 
L 144.603777 -253.071114 
L 144.603777 -253.071114 
L 147.258249 -251.519561 
L 150.594074 -249.968009 
L 154.648224 -248.416456 
L 159.406134 -246.864903 
L 164.787384 -245.313351 
L 170.636714 -243.761798 
L 176.723365 -242.210246 
L 182.750922 -240.658693 
L 188.378258 -239.107141 
L 193.250169 -237.555588 
L 197.03425 -236.004035 
L 199.458919 -234.452483 
L 200.346769 -232.90093 
L 199.637833 -231.349378 
L 197.398905 -229.797825 
L 193.817446 -228.246273 
L 189.181287 -226.69472 
L 183.847725 -225.143167 
L 178.207138 -223.591615 
L 172.646634 -222.040062 
L 167.5185 -220.48851 
L 163.116608 -218.936957 
L 159.661994 -217.385405 
L 157.29699 -215.833852 
L 156.086057 -214.282299 
L 156.021002 -212.730747 
L 157.028529 -211.179194 
L 158.978884 -209.627642 
L 161.69527 -208.076089 
L 164.964459 -206.524537 
L 168.549299 -204.972984 
L 172.203515 -203.421431 
L 175.688484 -201.869879 
L 178.790708 -200.318326 
L 181.337903 -198.766774 
L 183.211254 -197.215221 
L 184.351628 -195.663669 
L 184.758446 -194.112116 
L 184.481253 -192.560563 
L 183.605485 -191.009011 
L 182.235137 -189.457458 
L 180.475648 -187.905906 
L 178.420129 -186.354353 
L 176.14119 -184.802801 
L 173.689207 -183.251248 
L 171.096383 -181.699695 
L 168.384698 -180.148143 
L 165.575172 -178.59659 
L 162.69589 -177.045038 
L 159.786874 -175.493485 
L 156.900945 -173.941933 
L 154.100813 -172.39038 
L 151.453565 -170.838827 
L 149.024194 -169.287275 
L 146.869823 -167.735722 
L 145.035873 -166.18417 
L 143.554781 -164.632617 
L 142.447137 -163.081065 
L 141.724576 -161.529512 
L 141.393378 -159.977959 
L 141.457724 -158.426407 
L 141.921727 -156.874854 
L 142.789804 -155.323302 
L 144.06541 -153.771749 
L 145.748648 -152.220197 
L 147.833565 -150.668644 
L 150.306063 -149.117091 
L 153.143185 -147.565539 
L 156.314098 -146.013986 
L 159.78253 -144.462434 
L 163.50978 -142.910881 
L 167.45704 -141.359329 
L 171.585639 -139.807776 
L 175.854259 -138.256223 
L 180.212964 -136.704671 
L 184.594956 -135.153118 
L 188.908057 -133.601566 
L 193.028549 -132.050013 
L 196.800082 -130.498461 
L 200.039591 -128.946908 
L 202.550796 -127.395355 
L 204.144098 -125.843803 
L 204.66 -124.29225 
L 203.992083 -122.740698 
L 202.105264 -121.189145 
L 199.04577 -119.637593 
L 194.940728 -118.08604 
L 189.987251 -116.534487 
L 184.43279 -114.982935 
L 178.550029 -113.431382 
L 172.610323 -111.87983 
L 166.859608 -110.328277 
L 161.499852 -108.776725 
L 156.677879 -107.225172 
L 152.481932 -105.673619 
L 148.94511 -104.122067 
L 146.053932 -102.570514 
L 143.759869 -101.018962 
L 141.991749 -99.467409 
z
" style="stroke: #3f3f3f; stroke-width: 1.5"/>
    </defs>
    <g clip-path="url(#p1be91196ee)">
     <use xlink:href="#m0b98392d9c" x="0" y="360" style="fill: #3274a1; stroke: #3f3f3f; stroke-width: 1.5"/>
    </g>
   </g>
   <g id="PolyCollection_2">
    <defs>
     <path id="mbb68a77481" d="M 306.772349 -13.592868 
L 303.427651 -13.592868 
L 302.708768 -16.918264 
L 301.766381 -20.243661 
L 300.566201 -23.569058 
L 299.080896 -26.894454 
L 297.294331 -30.219851 
L 295.205566 -33.545247 
L 292.832121 -36.870644 
L 290.212122 -40.196041 
L 287.40504 -43.521437 
L 284.490872 -46.846834 
L 281.567756 -50.17223 
L 278.748026 -53.497627 
L 276.152758 -56.823024 
L 273.904904 -60.14842 
L 272.121221 -63.473817 
L 270.903389 -66.799214 
L 270.329016 -70.12461 
L 270.443511 -73.450007 
L 271.253952 -76.775403 
L 272.726082 -80.1008 
L 274.785204 -83.426197 
L 277.321257 -86.751593 
L 280.197607 -90.07699 
L 283.262494 -93.402386 
L 286.361541 -96.727783 
L 289.349657 -100.05318 
L 292.100803 -103.378576 
L 294.514667 -106.703973 
L 296.519917 -110.029369 
L 298.074406 -113.354766 
L 299.163173 -116.680163 
L 299.795278 -120.005559 
L 300.00041 -123.330956 
L 299.825793 -126.656353 
L 299.333456 -129.981749 
L 298.597443 -133.307146 
L 297.700332 -136.632542 
L 296.72849 -139.957939 
L 295.765868 -143.283336 
L 294.886726 -146.608732 
L 294.148297 -149.934129 
L 293.584819 -153.259525 
L 293.204417 -156.584922 
L 292.989968 -159.910319 
L 292.904267 -163.235715 
L 292.898872 -166.561112 
L 292.925045 -169.886508 
L 292.944582 -173.211905 
L 292.938214 -176.537302 
L 292.909708 -179.862698 
L 292.884686 -183.188095 
L 292.90437 -186.513492 
L 293.015536 -189.838888 
L 293.258751 -193.164285 
L 293.657251 -196.489681 
L 294.208529 -199.815078 
L 294.880037 -203.140475 
L 295.609509 -206.465871 
L 296.309581 -209.791268 
L 296.875781 -213.116664 
L 297.196761 -216.442061 
L 297.165665 -219.767458 
L 296.691768 -223.092854 
L 295.711672 -226.418251 
L 294.199376 -229.743647 
L 292.174288 -233.069044 
L 289.705997 -236.394441 
L 286.914355 -239.719837 
L 283.963636 -243.045234 
L 281.050075 -246.370631 
L 278.383279 -249.696027 
L 276.163293 -253.021424 
L 274.556475 -256.34682 
L 273.674105 -259.672217 
L 273.557695 -262.997614 
L 274.17403 -266.32301 
L 275.421278 -269.648407 
L 277.145364 -272.973803 
L 279.163768 -276.2992 
L 281.292415 -279.624597 
L 283.370851 -282.949993 
L 285.281347 -286.27539 
L 286.959054 -289.600786 
L 288.392193 -292.926183 
L 289.61334 -296.25158 
L 290.684415 -299.576976 
L 291.678964 -302.902373 
L 292.665369 -306.22777 
L 293.693971 -309.553166 
L 294.789884 -312.878563 
L 295.951883 -316.203959 
L 297.156489 -319.529356 
L 298.365497 -322.854753 
L 299.534842 -326.180149 
L 300.622855 -329.505546 
L 301.596496 -332.830942 
L 302.434868 -336.156339 
L 303.130002 -339.481736 
L 303.685459 -342.807132 
L 306.514541 -342.807132 
L 306.514541 -342.807132 
L 307.069998 -339.481736 
L 307.765132 -336.156339 
L 308.603504 -332.830942 
L 309.577145 -329.505546 
L 310.665158 -326.180149 
L 311.834503 -322.854753 
L 313.043511 -319.529356 
L 314.248117 -316.203959 
L 315.410116 -312.878563 
L 316.506029 -309.553166 
L 317.534631 -306.22777 
L 318.521036 -302.902373 
L 319.515585 -299.576976 
L 320.58666 -296.25158 
L 321.807807 -292.926183 
L 323.240946 -289.600786 
L 324.918653 -286.27539 
L 326.829149 -282.949993 
L 328.907585 -279.624597 
L 331.036232 -276.2992 
L 333.054636 -272.973803 
L 334.778722 -269.648407 
L 336.02597 -266.32301 
L 336.642305 -262.997614 
L 336.525895 -259.672217 
L 335.643525 -256.34682 
L 334.036707 -253.021424 
L 331.816721 -249.696027 
L 329.149925 -246.370631 
L 326.236364 -243.045234 
L 323.285645 -239.719837 
L 320.494003 -236.394441 
L 318.025712 -233.069044 
L 316.000624 -229.743647 
L 314.488328 -226.418251 
L 313.508232 -223.092854 
L 313.034335 -219.767458 
L 313.003239 -216.442061 
L 313.324219 -213.116664 
L 313.890419 -209.791268 
L 314.590491 -206.465871 
L 315.319963 -203.140475 
L 315.991471 -199.815078 
L 316.542749 -196.489681 
L 316.941249 -193.164285 
L 317.184464 -189.838888 
L 317.29563 -186.513492 
L 317.315314 -183.188095 
L 317.290292 -179.862698 
L 317.261786 -176.537302 
L 317.255418 -173.211905 
L 317.274955 -169.886508 
L 317.301128 -166.561112 
L 317.295733 -163.235715 
L 317.210032 -159.910319 
L 316.995583 -156.584922 
L 316.615181 -153.259525 
L 316.051703 -149.934129 
L 315.313274 -146.608732 
L 314.434132 -143.283336 
L 313.47151 -139.957939 
L 312.499668 -136.632542 
L 311.602557 -133.307146 
L 310.866544 -129.981749 
L 310.374207 -126.656353 
L 310.19959 -123.330956 
L 310.404722 -120.005559 
L 311.036827 -116.680163 
L 312.125594 -113.354766 
L 313.680083 -110.029369 
L 315.685333 -106.703973 
L 318.099197 -103.378576 
L 320.850343 -100.05318 
L 323.838459 -96.727783 
L 326.937506 -93.402386 
L 330.002393 -90.07699 
L 332.878743 -86.751593 
L 335.414796 -83.426197 
L 337.473918 -80.1008 
L 338.946048 -76.775403 
L 339.756489 -73.450007 
L 339.870984 -70.12461 
L 339.296611 -66.799214 
L 338.078779 -63.473817 
L 336.295096 -60.14842 
L 334.047242 -56.823024 
L 331.451974 -53.497627 
L 328.632244 -50.17223 
L 325.709128 -46.846834 
L 322.79496 -43.521437 
L 319.987878 -40.196041 
L 317.367879 -36.870644 
L 314.994434 -33.545247 
L 312.905669 -30.219851 
L 311.119104 -26.894454 
L 309.633799 -23.569058 
L 308.433619 -20.243661 
L 307.491232 -16.918264 
L 306.772349 -13.592868 
z
" style="stroke: #3f3f3f; stroke-width: 1.5"/>
    </defs>
    <g clip-path="url(#p1be91196ee)">
     <use xlink:href="#mbb68a77481" x="0" y="360" style="fill: #e1812c; stroke: #3f3f3f; stroke-width: 1.5"/>
    </g>
   </g>
   <g id="matplotlib.axis_1">
    <g id="xtick_1">
     <g id="line2d_1">
      <defs>
       <path id="m71061c3349" d="M 0 0 
L 0 3.5 
" style="stroke: #000000; stroke-width: 0.8"/>
      </defs>
      <g>
       <use xlink:href="#m71061c3349" x="137.7" y="320.4" style="stroke: #000000; stroke-width: 0.8"/>
      </g>
     </g>
     <g id="text_1">
      <!-- Forced commit -->
      <g transform="translate(85.641875 338.037813) scale(0.14 -0.14)">
       <defs>
        <path id="DejaVuSans-46" d="M 628 4666 
L 3309 4666 
L 3309 4134 
L 1259 4134 
L 1259 2759 
L 3109 2759 
L 3109 2228 
L 1259 2228 
L 1259 0 
L 628 0 
L 628 4666 
z
" transform="scale(0.015625)"/>
        <path id="DejaVuSans-6f" d="M 1959 3097 
Q 1497 3097 1228 2736 
Q 959 2375 959 1747 
Q 959 1119 1226 758 
Q 1494 397 1959 397 
Q 2419 397 2687 759 
Q 2956 1122 2956 1747 
Q 2956 2369 2687 2733 
Q 2419 3097 1959 3097 
z
M 1959 3584 
Q 2709 3584 3137 3096 
Q 3566 2609 3566 1747 
Q 3566 888 3137 398 
Q 2709 -91 1959 -91 
Q 1206 -91 779 398 
Q 353 888 353 1747 
Q 353 2609 779 3096 
Q 1206 3584 1959 3584 
z
" transform="scale(0.015625)"/>
        <path id="DejaVuSans-72" d="M 2631 2963 
Q 2534 3019 2420 3045 
Q 2306 3072 2169 3072 
Q 1681 3072 1420 2755 
Q 1159 2438 1159 1844 
L 1159 0 
L 581 0 
L 581 3500 
L 1159 3500 
L 1159 2956 
Q 1341 3275 1631 3429 
Q 1922 3584 2338 3584 
Q 2397 3584 2469 3576 
Q 2541 3569 2628 3553 
L 2631 2963 
z
" transform="scale(0.015625)"/>
        <path id="DejaVuSans-63" d="M 3122 3366 
L 3122 2828 
Q 2878 2963 2633 3030 
Q 2388 3097 2138 3097 
Q 1578 3097 1268 2742 
Q 959 2388 959 1747 
Q 959 1106 1268 751 
Q 1578 397 2138 397 
Q 2388 397 2633 464 
Q 2878 531 3122 666 
L 3122 134 
Q 2881 22 2623 -34 
Q 2366 -91 2075 -91 
Q 1284 -91 818 406 
Q 353 903 353 1747 
Q 353 2603 823 3093 
Q 1294 3584 2113 3584 
Q 2378 3584 2631 3529 
Q 2884 3475 3122 3366 
z
" transform="scale(0.015625)"/>
        <path id="DejaVuSans-65" d="M 3597 1894 
L 3597 1613 
L 953 1613 
Q 991 1019 1311 708 
Q 1631 397 2203 397 
Q 2534 397 2845 478 
Q 3156 559 3463 722 
L 3463 178 
Q 3153 47 2828 -22 
Q 2503 -91 2169 -91 
Q 1331 -91 842 396 
Q 353 884 353 1716 
Q 353 2575 817 3079 
Q 1281 3584 2069 3584 
Q 2775 3584 3186 3129 
Q 3597 2675 3597 1894 
z
M 3022 2063 
Q 3016 2534 2758 2815 
Q 2500 3097 2075 3097 
Q 1594 3097 1305 2825 
Q 1016 2553 972 2059 
L 3022 2063 
z
" transform="scale(0.015625)"/>
        <path id="DejaVuSans-64" d="M 2906 2969 
L 2906 4863 
L 3481 4863 
L 3481 0 
L 2906 0 
L 2906 525 
Q 2725 213 2448 61 
Q 2172 -91 1784 -91 
Q 1150 -91 751 415 
Q 353 922 353 1747 
Q 353 2572 751 3078 
Q 1150 3584 1784 3584 
Q 2172 3584 2448 3432 
Q 2725 3281 2906 2969 
z
M 947 1747 
Q 947 1113 1208 752 
Q 1469 391 1925 391 
Q 2381 391 2643 752 
Q 2906 1113 2906 1747 
Q 2906 2381 2643 2742 
Q 2381 3103 1925 3103 
Q 1469 3103 1208 2742 
Q 947 2381 947 1747 
z
" transform="scale(0.015625)"/>
        <path id="DejaVuSans-20" transform="scale(0.015625)"/>
        <path id="DejaVuSans-6d" d="M 3328 2828 
Q 3544 3216 3844 3400 
Q 4144 3584 4550 3584 
Q 5097 3584 5394 3201 
Q 5691 2819 5691 2113 
L 5691 0 
L 5113 0 
L 5113 2094 
Q 5113 2597 4934 2840 
Q 4756 3084 4391 3084 
Q 3944 3084 3684 2787 
Q 3425 2491 3425 1978 
L 3425 0 
L 2847 0 
L 2847 2094 
Q 2847 2600 2669 2842 
Q 2491 3084 2119 3084 
Q 1678 3084 1418 2786 
Q 1159 2488 1159 1978 
L 1159 0 
L 581 0 
L 581 3500 
L 1159 3500 
L 1159 2956 
Q 1356 3278 1631 3431 
Q 1906 3584 2284 3584 
Q 2666 3584 2933 3390 
Q 3200 3197 3328 2828 
z
" transform="scale(0.015625)"/>
        <path id="DejaVuSans-69" d="M 603 3500 
L 1178 3500 
L 1178 0 
L 603 0 
L 603 3500 
z
M 603 4863 
L 1178 4863 
L 1178 4134 
L 603 4134 
L 603 4863 
z
" transform="scale(0.015625)"/>
        <path id="DejaVuSans-74" d="M 1172 4494 
L 1172 3500 
L 2356 3500 
L 2356 3053 
L 1172 3053 
L 1172 1153 
Q 1172 725 1289 603 
Q 1406 481 1766 481 
L 2356 481 
L 2356 0 
L 1766 0 
Q 1100 0 847 248 
Q 594 497 594 1153 
L 594 3053 
L 172 3053 
L 172 3500 
L 594 3500 
L 594 4494 
L 1172 4494 
z
" transform="scale(0.015625)"/>
       </defs>
       <use xlink:href="#DejaVuSans-46"/>
       <use xlink:href="#DejaVuSans-6f" x="53.894531"/>
       <use xlink:href="#DejaVuSans-72" x="115.076172"/>
       <use xlink:href="#DejaVuSans-63" x="153.939453"/>
       <use xlink:href="#DejaVuSans-65" x="208.919922"/>
       <use xlink:href="#DejaVuSans-64" x="270.443359"/>
       <use xlink:href="#DejaVuSans-20" x="333.919922"/>
       <use xlink:href="#DejaVuSans-63" x="365.707031"/>
       <use xlink:href="#DejaVuSans-6f" x="420.6875"/>
       <use xlink:href="#DejaVuSans-6d" x="481.869141"/>
       <use xlink:href="#DejaVuSans-6d" x="579.28125"/>
       <use xlink:href="#DejaVuSans-69" x="676.693359"/>
       <use xlink:href="#DejaVuSans-74" x="704.476562"/>
      </g>
     </g>
    </g>
    <g id="xtick_2">
     <g id="line2d_2">
      <g>
       <use xlink:href="#m71061c3349" x="305.1" y="320.4" style="stroke: #000000; stroke-width: 0.8"/>
      </g>
     </g>
     <g id="text_2">
      <!-- Voting commit -->
      <g transform="translate(254.319375 338.037813) scale(0.14 -0.14)">
       <defs>
        <path id="DejaVuSans-56" d="M 1831 0 
L 50 4666 
L 709 4666 
L 2188 738 
L 3669 4666 
L 4325 4666 
L 2547 0 
L 1831 0 
z
" transform="scale(0.015625)"/>
        <path id="DejaVuSans-6e" d="M 3513 2113 
L 3513 0 
L 2938 0 
L 2938 2094 
Q 2938 2591 2744 2837 
Q 2550 3084 2163 3084 
Q 1697 3084 1428 2787 
Q 1159 2491 1159 1978 
L 1159 0 
L 581 0 
L 581 3500 
L 1159 3500 
L 1159 2956 
Q 1366 3272 1645 3428 
Q 1925 3584 2291 3584 
Q 2894 3584 3203 3211 
Q 3513 2838 3513 2113 
z
" transform="scale(0.015625)"/>
        <path id="DejaVuSans-67" d="M 2906 1791 
Q 2906 2416 2648 2759 
Q 2391 3103 1925 3103 
Q 1463 3103 1205 2759 
Q 947 2416 947 1791 
Q 947 1169 1205 825 
Q 1463 481 1925 481 
Q 2391 481 2648 825 
Q 2906 1169 2906 1791 
z
M 3481 434 
Q 3481 -459 3084 -895 
Q 2688 -1331 1869 -1331 
Q 1566 -1331 1297 -1286 
Q 1028 -1241 775 -1147 
L 775 -588 
Q 1028 -725 1275 -790 
Q 1522 -856 1778 -856 
Q 2344 -856 2625 -561 
Q 2906 -266 2906 331 
L 2906 616 
Q 2728 306 2450 153 
Q 2172 0 1784 0 
Q 1141 0 747 490 
Q 353 981 353 1791 
Q 353 2603 747 3093 
Q 1141 3584 1784 3584 
Q 2172 3584 2450 3431 
Q 2728 3278 2906 2969 
L 2906 3500 
L 3481 3500 
L 3481 434 
z
" transform="scale(0.015625)"/>
       </defs>
       <use xlink:href="#DejaVuSans-56"/>
       <use xlink:href="#DejaVuSans-6f" x="60.658203"/>
       <use xlink:href="#DejaVuSans-74" x="121.839844"/>
       <use xlink:href="#DejaVuSans-69" x="161.048828"/>
       <use xlink:href="#DejaVuSans-6e" x="188.832031"/>
       <use xlink:href="#DejaVuSans-67" x="252.210938"/>
       <use xlink:href="#DejaVuSans-20" x="315.6875"/>
       <use xlink:href="#DejaVuSans-63" x="347.474609"/>
       <use xlink:href="#DejaVuSans-6f" x="402.455078"/>
       <use xlink:href="#DejaVuSans-6d" x="463.636719"/>
       <use xlink:href="#DejaVuSans-6d" x="561.048828"/>
       <use xlink:href="#DejaVuSans-69" x="658.460938"/>
       <use xlink:href="#DejaVuSans-74" x="686.244141"/>
      </g>
     </g>
    </g>
    <g id="text_3">
     <!-- method -->
     <g transform="translate(194.366875 355.587188) scale(0.14 -0.14)">
      <defs>
       <path id="DejaVuSans-68" d="M 3513 2113 
L 3513 0 
L 2938 0 
L 2938 2094 
Q 2938 2591 2744 2837 
Q 2550 3084 2163 3084 
Q 1697 3084 1428 2787 
Q 1159 2491 1159 1978 
L 1159 0 
L 581 0 
L 581 4863 
L 1159 4863 
L 1159 2956 
Q 1366 3272 1645 3428 
Q 1925 3584 2291 3584 
Q 2894 3584 3203 3211 
Q 3513 2838 3513 2113 
z
" transform="scale(0.015625)"/>
      </defs>
      <use xlink:href="#DejaVuSans-6d"/>
      <use xlink:href="#DejaVuSans-65" x="97.412109"/>
      <use xlink:href="#DejaVuSans-74" x="158.935547"/>
      <use xlink:href="#DejaVuSans-68" x="198.144531"/>
      <use xlink:href="#DejaVuSans-6f" x="261.523438"/>
      <use xlink:href="#DejaVuSans-64" x="322.705078"/>
     </g>
    </g>
   </g>
   <g id="matplotlib.axis_2">
    <g id="ytick_1">
     <g id="line2d_3">
      <defs>
       <path id="m673ceccd96" d="M 0 0 
L -3.5 0 
" style="stroke: #000000; stroke-width: 0.8"/>
      </defs>
      <g>
       <use xlink:href="#m673ceccd96" x="54" y="284.399448" style="stroke: #000000; stroke-width: 0.8"/>
      </g>
     </g>
     <g id="text_4">
      <!-- 15 -->
      <g transform="translate(29.185 289.718355) scale(0.14 -0.14)">
       <defs>
        <path id="DejaVuSans-31" d="M 794 531 
L 1825 531 
L 1825 4091 
L 703 3866 
L 703 4441 
L 1819 4666 
L 2450 4666 
L 2450 531 
L 3481 531 
L 3481 0 
L 794 0 
L 794 531 
z
" transform="scale(0.015625)"/>
        <path id="DejaVuSans-35" d="M 691 4666 
L 3169 4666 
L 3169 4134 
L 1269 4134 
L 1269 2991 
Q 1406 3038 1543 3061 
Q 1681 3084 1819 3084 
Q 2600 3084 3056 2656 
Q 3513 2228 3513 1497 
Q 3513 744 3044 326 
Q 2575 -91 1722 -91 
Q 1428 -91 1123 -41 
Q 819 9 494 109 
L 494 744 
Q 775 591 1075 516 
Q 1375 441 1709 441 
Q 2250 441 2565 725 
Q 2881 1009 2881 1497 
Q 2881 1984 2565 2268 
Q 2250 2553 1709 2553 
Q 1456 2553 1204 2497 
Q 953 2441 691 2322 
L 691 4666 
z
" transform="scale(0.015625)"/>
       </defs>
       <use xlink:href="#DejaVuSans-31"/>
       <use xlink:href="#DejaVuSans-35" x="63.623047"/>
      </g>
     </g>
    </g>
    <g id="ytick_2">
     <g id="line2d_4">
      <g>
       <use xlink:href="#m673ceccd96" x="54" y="245.784677" style="stroke: #000000; stroke-width: 0.8"/>
      </g>
     </g>
     <g id="text_5">
      <!-- 20 -->
      <g transform="translate(29.185 251.103583) scale(0.14 -0.14)">
       <defs>
        <path id="DejaVuSans-32" d="M 1228 531 
L 3431 531 
L 3431 0 
L 469 0 
L 469 531 
Q 828 903 1448 1529 
Q 2069 2156 2228 2338 
Q 2531 2678 2651 2914 
Q 2772 3150 2772 3378 
Q 2772 3750 2511 3984 
Q 2250 4219 1831 4219 
Q 1534 4219 1204 4116 
Q 875 4013 500 3803 
L 500 4441 
Q 881 4594 1212 4672 
Q 1544 4750 1819 4750 
Q 2544 4750 2975 4387 
Q 3406 4025 3406 3419 
Q 3406 3131 3298 2873 
Q 3191 2616 2906 2266 
Q 2828 2175 2409 1742 
Q 1991 1309 1228 531 
z
" transform="scale(0.015625)"/>
        <path id="DejaVuSans-30" d="M 2034 4250 
Q 1547 4250 1301 3770 
Q 1056 3291 1056 2328 
Q 1056 1369 1301 889 
Q 1547 409 2034 409 
Q 2525 409 2770 889 
Q 3016 1369 3016 2328 
Q 3016 3291 2770 3770 
Q 2525 4250 2034 4250 
z
M 2034 4750 
Q 2819 4750 3233 4129 
Q 3647 3509 3647 2328 
Q 3647 1150 3233 529 
Q 2819 -91 2034 -91 
Q 1250 -91 836 529 
Q 422 1150 422 2328 
Q 422 3509 836 4129 
Q 1250 4750 2034 4750 
z
" transform="scale(0.015625)"/>
       </defs>
       <use xlink:href="#DejaVuSans-32"/>
       <use xlink:href="#DejaVuSans-30" x="63.623047"/>
      </g>
     </g>
    </g>
    <g id="ytick_3">
     <g id="line2d_5">
      <g>
       <use xlink:href="#m673ceccd96" x="54" y="207.169905" style="stroke: #000000; stroke-width: 0.8"/>
      </g>
     </g>
     <g id="text_6">
      <!-- 25 -->
      <g transform="translate(29.185 212.488811) scale(0.14 -0.14)">
       <use xlink:href="#DejaVuSans-32"/>
       <use xlink:href="#DejaVuSans-35" x="63.623047"/>
      </g>
     </g>
    </g>
    <g id="ytick_4">
     <g id="line2d_6">
      <g>
       <use xlink:href="#m673ceccd96" x="54" y="168.555133" style="stroke: #000000; stroke-width: 0.8"/>
      </g>
     </g>
     <g id="text_7">
      <!-- 30 -->
      <g transform="translate(29.185 173.87404) scale(0.14 -0.14)">
       <defs>
        <path id="DejaVuSans-33" d="M 2597 2516 
Q 3050 2419 3304 2112 
Q 3559 1806 3559 1356 
Q 3559 666 3084 287 
Q 2609 -91 1734 -91 
Q 1441 -91 1130 -33 
Q 819 25 488 141 
L 488 750 
Q 750 597 1062 519 
Q 1375 441 1716 441 
Q 2309 441 2620 675 
Q 2931 909 2931 1356 
Q 2931 1769 2642 2001 
Q 2353 2234 1838 2234 
L 1294 2234 
L 1294 2753 
L 1863 2753 
Q 2328 2753 2575 2939 
Q 2822 3125 2822 3475 
Q 2822 3834 2567 4026 
Q 2313 4219 1838 4219 
Q 1578 4219 1281 4162 
Q 984 4106 628 3988 
L 628 4550 
Q 988 4650 1302 4700 
Q 1616 4750 1894 4750 
Q 2613 4750 3031 4423 
Q 3450 4097 3450 3541 
Q 3450 3153 3228 2886 
Q 3006 2619 2597 2516 
z
" transform="scale(0.015625)"/>
       </defs>
       <use xlink:href="#DejaVuSans-33"/>
       <use xlink:href="#DejaVuSans-30" x="63.623047"/>
      </g>
     </g>
    </g>
    <g id="ytick_5">
     <g id="line2d_7">
      <g>
       <use xlink:href="#m673ceccd96" x="54" y="129.940362" style="stroke: #000000; stroke-width: 0.8"/>
      </g>
     </g>
     <g id="text_8">
      <!-- 35 -->
      <g transform="translate(29.185 135.259268) scale(0.14 -0.14)">
       <use xlink:href="#DejaVuSans-33"/>
       <use xlink:href="#DejaVuSans-35" x="63.623047"/>
      </g>
     </g>
    </g>
    <g id="ytick_6">
     <g id="line2d_8">
      <g>
       <use xlink:href="#m673ceccd96" x="54" y="91.32559" style="stroke: #000000; stroke-width: 0.8"/>
      </g>
     </g>
     <g id="text_9">
      <!-- 40 -->
      <g transform="translate(29.185 96.644496) scale(0.14 -0.14)">
       <defs>
        <path id="DejaVuSans-34" d="M 2419 4116 
L 825 1625 
L 2419 1625 
L 2419 4116 
z
M 2253 4666 
L 3047 4666 
L 3047 1625 
L 3713 1625 
L 3713 1100 
L 3047 1100 
L 3047 0 
L 2419 0 
L 2419 1100 
L 313 1100 
L 313 1709 
L 2253 4666 
z
" transform="scale(0.015625)"/>
       </defs>
       <use xlink:href="#DejaVuSans-34"/>
       <use xlink:href="#DejaVuSans-30" x="63.623047"/>
      </g>
     </g>
    </g>
    <g id="ytick_7">
     <g id="line2d_9">
      <g>
       <use xlink:href="#m673ceccd96" x="54" y="52.710818" style="stroke: #000000; stroke-width: 0.8"/>
      </g>
     </g>
     <g id="text_10">
      <!-- 45 -->
      <g transform="translate(29.185 58.029725) scale(0.14 -0.14)">
       <use xlink:href="#DejaVuSans-34"/>
       <use xlink:href="#DejaVuSans-35" x="63.623047"/>
      </g>
     </g>
    </g>
    <g id="text_11">
     <!-- Time talking (%) -->
     <g transform="translate(22.273437 239.346563) rotate(-90) scale(0.14 -0.14)">
      <defs>
       <path id="DejaVuSans-54" d="M -19 4666 
L 3928 4666 
L 3928 4134 
L 2272 4134 
L 2272 0 
L 1638 0 
L 1638 4134 
L -19 4134 
L -19 4666 
z
" transform="scale(0.015625)"/>
       <path id="DejaVuSans-61" d="M 2194 1759 
Q 1497 1759 1228 1600 
Q 959 1441 959 1056 
Q 959 750 1161 570 
Q 1363 391 1709 391 
Q 2188 391 2477 730 
Q 2766 1069 2766 1631 
L 2766 1759 
L 2194 1759 
z
M 3341 1997 
L 3341 0 
L 2766 0 
L 2766 531 
Q 2569 213 2275 61 
Q 1981 -91 1556 -91 
Q 1019 -91 701 211 
Q 384 513 384 1019 
Q 384 1609 779 1909 
Q 1175 2209 1959 2209 
L 2766 2209 
L 2766 2266 
Q 2766 2663 2505 2880 
Q 2244 3097 1772 3097 
Q 1472 3097 1187 3025 
Q 903 2953 641 2809 
L 641 3341 
Q 956 3463 1253 3523 
Q 1550 3584 1831 3584 
Q 2591 3584 2966 3190 
Q 3341 2797 3341 1997 
z
" transform="scale(0.015625)"/>
       <path id="DejaVuSans-6c" d="M 603 4863 
L 1178 4863 
L 1178 0 
L 603 0 
L 603 4863 
z
" transform="scale(0.015625)"/>
       <path id="DejaVuSans-6b" d="M 581 4863 
L 1159 4863 
L 1159 1991 
L 2875 3500 
L 3609 3500 
L 1753 1863 
L 3688 0 
L 2938 0 
L 1159 1709 
L 1159 0 
L 581 0 
L 581 4863 
z
" transform="scale(0.015625)"/>
       <path id="DejaVuSans-28" d="M 1984 4856 
Q 1566 4138 1362 3434 
Q 1159 2731 1159 2009 
Q 1159 1288 1364 580 
Q 1569 -128 1984 -844 
L 1484 -844 
Q 1016 -109 783 600 
Q 550 1309 550 2009 
Q 550 2706 781 3412 
Q 1013 4119 1484 4856 
L 1984 4856 
z
" transform="scale(0.015625)"/>
       <path id="DejaVuSans-25" d="M 4653 2053 
Q 4381 2053 4226 1822 
Q 4072 1591 4072 1178 
Q 4072 772 4226 539 
Q 4381 306 4653 306 
Q 4919 306 5073 539 
Q 5228 772 5228 1178 
Q 5228 1588 5073 1820 
Q 4919 2053 4653 2053 
z
M 4653 2450 
Q 5147 2450 5437 2106 
Q 5728 1763 5728 1178 
Q 5728 594 5436 251 
Q 5144 -91 4653 -91 
Q 4153 -91 3862 251 
Q 3572 594 3572 1178 
Q 3572 1766 3864 2108 
Q 4156 2450 4653 2450 
z
M 1428 4353 
Q 1159 4353 1004 4120 
Q 850 3888 850 3481 
Q 850 3069 1003 2837 
Q 1156 2606 1428 2606 
Q 1700 2606 1854 2837 
Q 2009 3069 2009 3481 
Q 2009 3884 1853 4118 
Q 1697 4353 1428 4353 
z
M 4250 4750 
L 4750 4750 
L 1831 -91 
L 1331 -91 
L 4250 4750 
z
M 1428 4750 
Q 1922 4750 2215 4408 
Q 2509 4066 2509 3481 
Q 2509 2891 2217 2550 
Q 1925 2209 1428 2209 
Q 931 2209 642 2551 
Q 353 2894 353 3481 
Q 353 4063 643 4406 
Q 934 4750 1428 4750 
z
" transform="scale(0.015625)"/>
       <path id="DejaVuSans-29" d="M 513 4856 
L 1013 4856 
Q 1481 4119 1714 3412 
Q 1947 2706 1947 2009 
Q 1947 1309 1714 600 
Q 1481 -109 1013 -844 
L 513 -844 
Q 928 -128 1133 580 
Q 1338 1288 1338 2009 
Q 1338 2731 1133 3434 
Q 928 4138 513 4856 
z
" transform="scale(0.015625)"/>
      </defs>
      <use xlink:href="#DejaVuSans-54"/>
      <use xlink:href="#DejaVuSans-69" x="57.958984"/>
      <use xlink:href="#DejaVuSans-6d" x="85.742188"/>
      <use xlink:href="#DejaVuSans-65" x="183.154297"/>
      <use xlink:href="#DejaVuSans-20" x="244.677734"/>
      <use xlink:href="#DejaVuSans-74" x="276.464844"/>
      <use xlink:href="#DejaVuSans-61" x="315.673828"/>
      <use xlink:href="#DejaVuSans-6c" x="376.953125"/>
      <use xlink:href="#DejaVuSans-6b" x="404.736328"/>
      <use xlink:href="#DejaVuSans-69" x="462.646484"/>
      <use xlink:href="#DejaVuSans-6e" x="490.429688"/>
      <use xlink:href="#DejaVuSans-67" x="553.808594"/>
      <use xlink:href="#DejaVuSans-20" x="617.285156"/>
      <use xlink:href="#DejaVuSans-28" x="649.072266"/>
      <use xlink:href="#DejaVuSans-25" x="688.085938"/>
      <use xlink:href="#DejaVuSans-29" x="783.105469"/>
     </g>
    </g>
   </g>
   <g id="patch_3">
    <path d="M 54 320.4 
L 54 43.2 
" style="fill: none; stroke: #000000; stroke-width: 0.8; stroke-linejoin: miter; stroke-linecap: square"/>
   </g>
   <g id="patch_4">
    <path d="M 388.8 320.4 
L 388.8 43.2 
" style="fill: none; stroke: #000000; stroke-width: 0.8; stroke-linejoin: miter; stroke-linecap: square"/>
   </g>
   <g id="patch_5">
    <path d="M 54 320.4 
L 388.8 320.4 
" style="fill: none; stroke: #000000; stroke-width: 0.8; stroke-linejoin: miter; stroke-linecap: square"/>
   </g>
   <g id="patch_6">
    <path d="M 54 43.2 
L 388.8 43.2 
" style="fill: none; stroke: #000000; stroke-width: 0.8; stroke-linejoin: miter; stroke-linecap: square"/>
   </g>
   <g id="PathCollection_1">
    <defs>
     <path id="C0_0_895cb1d3cb" d="M 0 2.5 
C 0.663008 2.5 1.29895 2.236584 1.767767 1.767767 
C 2.236584 1.29895 2.5 0.663008 2.5 -0 
C 2.5 -0.663008 2.236584 -1.29895 1.767767 -1.767767 
C 1.29895 -2.236584 0.663008 -2.5 0 -2.5 
C -0.663008 -2.5 -1.29895 -2.236584 -1.767767 -1.767767 
C -2.236584 -1.29895 -2.5 -0.663008 -2.5 0 
C -2.5 0.663008 -2.236584 1.29895 -1.767767 1.767767 
C -1.29895 2.236584 -0.663008 2.5 0 2.5 
z
"/>
    </defs>
    <g clip-path="url(#p1be91196ee)">
     <use xlink:href="#C0_0_895cb1d3cb" x="142.216802" y="126.078884" style="fill: #262626; fill-opacity: 0.5"/>
    </g>
    <g clip-path="url(#p1be91196ee)">
     <use xlink:href="#C0_0_895cb1d3cb" x="137.7" y="221.843518" style="fill: #262626; fill-opacity: 0.5"/>
    </g>
    <g clip-path="url(#p1be91196ee)">
     <use xlink:href="#C0_0_895cb1d3cb" x="135.727746" y="160.832179" style="fill: #262626; fill-opacity: 0.5"/>
    </g>
    <g clip-path="url(#p1be91196ee)">
     <use xlink:href="#C0_0_895cb1d3cb" x="137.7" y="128.627459" style="fill: #262626; fill-opacity: 0.5"/>
    </g>
    <g clip-path="url(#p1be91196ee)">
     <use xlink:href="#C0_0_895cb1d3cb" x="137.7" y="241.382593" style="fill: #262626; fill-opacity: 0.5"/>
    </g>
    <g clip-path="url(#p1be91196ee)">
     <use xlink:href="#C0_0_895cb1d3cb" x="132.472594" y="235.435918" style="fill: #262626; fill-opacity: 0.5"/>
    </g>
    <g clip-path="url(#p1be91196ee)">
     <use xlink:href="#C0_0_895cb1d3cb" x="132.824052" y="126.77395" style="fill: #262626; fill-opacity: 0.5"/>
    </g>
    <g clip-path="url(#p1be91196ee)">
     <use xlink:href="#C0_0_895cb1d3cb" x="137.7" y="235.899295" style="fill: #262626; fill-opacity: 0.5"/>
    </g>
    <g clip-path="url(#p1be91196ee)">
     <use xlink:href="#C0_0_895cb1d3cb" x="137.7" y="165.465952" style="fill: #262626; fill-opacity: 0.5"/>
    </g>
    <g clip-path="url(#p1be91196ee)">
     <use xlink:href="#C0_0_895cb1d3cb" x="137.7" y="179.367269" style="fill: #262626; fill-opacity: 0.5"/>
    </g>
   </g>
   <g id="PathCollection_2">
    <defs>
     <path id="C1_0_a6efca0cbd" d="M 0 2.5 
C 0.663008 2.5 1.29895 2.236584 1.767767 1.767767 
C 2.236584 1.29895 2.5 0.663008 2.5 -0 
C 2.5 -0.663008 2.236584 -1.29895 1.767767 -1.767767 
C 1.29895 -2.236584 0.663008 -2.5 0 -2.5 
C -0.663008 -2.5 -1.29895 -2.236584 -1.767767 -1.767767 
C -2.236584 -1.29895 -2.5 -0.663008 -2.5 0 
C -2.5 0.663008 -2.236584 1.29895 -1.767767 1.767767 
C -1.29895 2.236584 -0.663008 2.5 0 2.5 
z
"/>
    </defs>
    <g clip-path="url(#p1be91196ee)">
     <use xlink:href="#C1_0_a6efca0cbd" x="305.1" y="55.8" style="fill-opacity: 0.5"/>
    </g>
    <g clip-path="url(#p1be91196ee)">
     <use xlink:href="#C1_0_a6efca0cbd" x="305.1" y="205.779773" style="fill-opacity: 0.5"/>
    </g>
    <g clip-path="url(#p1be91196ee)">
     <use xlink:href="#C1_0_a6efca0cbd" x="305.1" y="307.8" style="fill-opacity: 0.5"/>
    </g>
    <g clip-path="url(#p1be91196ee)">
     <use xlink:href="#C1_0_a6efca0cbd" x="305.1" y="274.359608" style="fill-opacity: 0.5"/>
    </g>
    <g clip-path="url(#p1be91196ee)">
     <use xlink:href="#C1_0_a6efca0cbd" x="305.1" y="94.260313" style="fill-opacity: 0.5"/>
    </g>
    <g clip-path="url(#p1be91196ee)">
     <use xlink:href="#C1_0_a6efca0cbd" x="305.1" y="285.017285" style="fill-opacity: 0.5"/>
    </g>
    <g clip-path="url(#p1be91196ee)">
     <use xlink:href="#C1_0_a6efca0cbd" x="305.1" y="102.369415" style="fill-opacity: 0.5"/>
    </g>
    <g clip-path="url(#p1be91196ee)">
     <use xlink:href="#C1_0_a6efca0cbd" x="305.1" y="165.69764" style="fill-opacity: 0.5"/>
    </g>
    <g clip-path="url(#p1be91196ee)">
     <use xlink:href="#C1_0_a6efca0cbd" x="299.913004" y="101.597119" style="fill-opacity: 0.5"/>
    </g>
    <g clip-path="url(#p1be91196ee)">
     <use xlink:href="#C1_0_a6efca0cbd" x="305.1" y="291.659025" style="fill-opacity: 0.5"/>
    </g>
   </g>
   <g id="line2d_10">
    <path d="M 70.74 172.41661 
L 204.66 172.41661 
" clip-path="url(#p1be91196ee)" style="fill: none; stroke: #000000; stroke-linecap: square"/>
   </g>
   <g id="line2d_11">
    <path d="M 70.74 182.170702 
L 204.66 182.170702 
" clip-path="url(#p1be91196ee)" style="fill: none; stroke-dasharray: 3.7,1.6; stroke-dashoffset: 0; stroke: #2ca02c"/>
   </g>
   <g id="line2d_12">
    <path d="M 238.14 185.738707 
L 372.06 185.738707 
" clip-path="url(#p1be91196ee)" style="fill: none; stroke: #000000; stroke-linecap: square"/>
   </g>
   <g id="line2d_13">
    <path d="M 238.14 188.434018 
L 372.06 188.434018 
" clip-path="url(#p1be91196ee)" style="fill: none; stroke-dasharray: 3.7,1.6; stroke-dashoffset: 0; stroke: #2ca02c"/>
   </g>
  </g>
 </g>
 <defs>
  <clipPath id="p1be91196ee">
   <rect x="54" y="43.2" width="334.8" height="277.2"/>
  </clipPath>
 </defs>
</svg>
