<?xml version="1.0" encoding="utf-8" standalone="no"?>
<!DOCTYPE svg PUBLIC "-//W3C//DTD SVG 1.1//EN"
  "http://www.w3.org/Graphics/SVG/1.1/DTD/svg11.dtd">
<svg xmlns:xlink="http://www.w3.org/1999/xlink" width="432pt" height="360pt" viewBox="0 0 432 360" xmlns="http://www.w3.org/2000/svg" version="1.1">
 <metadata>
  <rdf:RDF xmlns:dc="http://purl.org/dc/elements/1.1/" xmlns:cc="http://creativecommons.org/ns#" xmlns:rdf="http://www.w3.org/1999/02/22-rdf-syntax-ns#">
   <cc:Work>
    <dc:type rdf:resource="http://purl.org/dc/dcmitype/StillImage"/>
    <dc:date>2023-03-30T15:20:57.816154</dc:date>
    <dc:format>image/svg+xml</dc:format>
    <dc:creator>
     <cc:Agent>
      <dc:title>Matplotlib v3.7.1, https://matplotlib.org/</dc:title>
     </cc:Agent>
    </dc:creator>
   </cc:Work>
  </rdf:RDF>
 </metadata>
 <defs>
  <style type="text/css">*{stroke-linejoin: round; stroke-linecap: butt}</style>
 </defs>
 <g id="figure_1">
  <g id="patch_1">
   <path d="M 0 360 
L 432 360 
L 432 0 
L 0 0 
z
" style="fill: #ffffff"/>
  </g>
  <g id="axes_1">
   <g id="patch_2">
    <path d="M 54 320.4 
L 388.8 320.4 
L 388.8 43.2 
L 54 43.2 
z
" style="fill: #ffffff"/>
   </g>
   <g id="PolyCollection_1">
    <defs>
     <path id="m474c9dd112" d="M 139.808181 -19.275152 
L 135.591819 -19.275152 
L 134.59394 -22.485755 
L 133.279445 -25.696358 
L 131.618654 -28.906961 
L 129.606792 -32.117564 
L 127.27109 -35.328167 
L 124.673822 -38.53877 
L 121.909846 -41.749373 
L 119.098383 -44.959976 
L 116.37022 -48.170579 
L 113.852773 -51.381182 
L 111.656116 -54.591785 
L 109.862885 -57.802388 
L 108.523941 -61.012991 
L 107.660159 -64.223594 
L 107.269121 -67.434197 
L 107.334249 -70.6448 
L 107.833427 -73.855403 
L 108.744476 -77.066006 
L 110.046003 -80.276609 
L 111.713655 -83.487212 
L 113.713461 -86.697815 
L 115.994999 -89.908418 
L 118.487331 -93.119021 
L 121.09986 -96.329624 
L 123.728675 -99.540227 
L 126.2672 -102.75083 
L 128.618533 -105.961433 
L 130.706407 -109.172036 
L 132.482155 -112.382639 
L 133.92628 -115.593242 
L 135.044723 -118.803845 
L 135.861103 -122.014448 
L 136.406893 -125.225051 
L 136.711499 -128.435654 
L 136.793868 -131.646257 
L 136.656635 -134.85686 
L 136.28333 -138.067463 
L 135.638776 -141.278066 
L 134.672503 -144.488669 
L 133.324814 -147.699272 
L 131.534858 -150.909875 
L 129.249874 -154.120478 
L 126.434699 -157.331081 
L 123.080767 -160.541684 
L 119.214179 -163.752287 
L 114.902657 -166.96289 
L 110.261226 -170.173493 
L 105.455821 -173.384096 
L 100.703057 -176.594699 
L 96.263407 -179.805301 
L 92.424878 -183.015904 
L 89.475597 -186.226507 
L 87.666522 -189.43711 
L 87.169318 -192.647713 
L 88.037701 -195.858316 
L 90.182032 -199.068919 
L 93.365482 -202.279522 
L 97.225945 -205.490125 
L 101.322025 -208.700728 
L 105.195748 -211.911331 
L 108.440687 -215.121934 
L 110.762966 -218.332537 
L 112.0241 -221.54314 
L 112.258244 -224.753743 
L 111.661119 -227.964346 
L 110.552819 -231.174949 
L 109.32117 -234.385552 
L 108.355699 -237.596155 
L 107.984005 -240.806758 
L 108.421884 -244.017361 
L 109.745761 -247.227964 
L 111.89119 -250.438567 
L 114.675497 -253.64917 
L 117.837631 -256.859773 
L 121.085246 -260.070376 
L 124.138927 -263.280979 
L 126.765964 -266.491582 
L 128.800202 -269.702185 
L 130.148655 -272.912788 
L 130.788507 -276.123391 
L 130.759021 -279.333994 
L 130.151913 -282.544597 
L 129.101673 -285.7552 
L 127.775311 -288.965803 
L 126.359869 -292.176406 
L 125.046443 -295.387009 
L 124.010933 -298.597612 
L 123.393786 -301.808215 
L 123.282545 -305.018818 
L 123.701308 -308.229421 
L 124.610039 -311.440024 
L 125.914365 -314.650627 
L 127.483816 -317.86123 
L 129.174399 -321.071833 
L 130.850607 -324.282436 
L 132.402572 -327.493039 
L 133.755775 -330.703642 
L 134.872902 -333.914245 
L 135.749248 -337.124848 
L 139.650752 -337.124848 
L 139.650752 -337.124848 
L 140.527098 -333.914245 
L 141.644225 -330.703642 
L 142.997428 -327.493039 
L 144.549393 -324.282436 
L 146.225601 -321.071833 
L 147.916184 -317.86123 
L 149.485635 -314.650627 
L 150.789961 -311.440024 
L 151.698692 -308.229421 
L 152.117455 -305.018818 
L 152.006214 -301.808215 
L 151.389067 -298.597612 
L 150.353557 -295.387009 
L 149.040131 -292.176406 
L 147.624689 -288.965803 
L 146.298327 -285.7552 
L 145.248087 -282.544597 
L 144.640979 -279.333994 
L 144.611493 -276.123391 
L 145.251345 -272.912788 
L 146.599798 -269.702185 
L 148.634036 -266.491582 
L 151.261073 -263.280979 
L 154.314754 -260.070376 
L 157.562369 -256.859773 
L 160.724503 -253.64917 
L 163.50881 -250.438567 
L 165.654239 -247.227964 
L 166.978116 -244.017361 
L 167.415995 -240.806758 
L 167.044301 -237.596155 
L 166.07883 -234.385552 
L 164.847181 -231.174949 
L 163.738881 -227.964346 
L 163.141756 -224.753743 
L 163.3759 -221.54314 
L 164.637034 -218.332537 
L 166.959313 -215.121934 
L 170.204252 -211.911331 
L 174.077975 -208.700728 
L 178.174055 -205.490125 
L 182.034518 -202.279522 
L 185.217968 -199.068919 
L 187.362299 -195.858316 
L 188.230682 -192.647713 
L 187.733478 -189.43711 
L 185.924403 -186.226507 
L 182.975122 -183.015904 
L 179.136593 -179.805301 
L 174.696943 -176.594699 
L 169.944179 -173.384096 
L 165.138774 -170.173493 
L 160.497343 -166.96289 
L 156.185821 -163.752287 
L 152.319233 -160.541684 
L 148.965301 -157.331081 
L 146.150126 -154.120478 
L 143.865142 -150.909875 
L 142.075186 -147.699272 
L 140.727497 -144.488669 
L 139.761224 -141.278066 
L 139.11667 -138.067463 
L 138.743365 -134.85686 
L 138.606132 -131.646257 
L 138.688501 -128.435654 
L 138.993107 -125.225051 
L 139.538897 -122.014448 
L 140.355277 -118.803845 
L 141.47372 -115.593242 
L 142.917845 -112.382639 
L 144.693593 -109.172036 
L 146.781467 -105.961433 
L 149.1328 -102.75083 
L 151.671325 -99.540227 
L 154.30014 -96.329624 
L 156.912669 -93.119021 
L 159.405001 -89.908418 
L 161.686539 -86.697815 
L 163.686345 -83.487212 
L 165.353997 -80.276609 
L 166.655524 -77.066006 
L 167.566573 -73.855403 
L 168.065751 -70.6448 
L 168.130879 -67.434197 
L 167.739841 -64.223594 
L 166.876059 -61.012991 
L 165.537115 -57.802388 
L 163.743884 -54.591785 
L 161.547227 -51.381182 
L 159.02978 -48.170579 
L 156.301617 -44.959976 
L 153.490154 -41.749373 
L 150.726178 -38.53877 
L 148.12891 -35.328167 
L 145.793208 -32.117564 
L 143.781346 -28.906961 
L 142.120555 -25.696358 
L 140.80606 -22.485755 
L 139.808181 -19.275152 
z
" style="stroke: #3f3f3f; stroke-width: 1.5"/>
    </defs>
    <g clip-path="url(#p41cedf47fc)">
     <use xlink:href="#m474c9dd112" x="0" y="360" style="fill: #3274a1; stroke: #3f3f3f; stroke-width: 1.5"/>
    </g>
   </g>
   <g id="PolyCollection_2">
    <defs>
     <path id="m671cbdd362" d="M 307.903992 -95.857343 
L 302.296008 -95.857343 
L 300.970337 -98.193215 
L 299.265291 -100.529087 
L 297.191193 -102.864959 
L 294.814503 -105.200832 
L 292.264193 -107.536704 
L 289.725169 -109.872576 
L 287.416461 -112.208448 
L 285.556008 -114.544321 
L 284.318409 -116.880193 
L 283.795404 -119.216065 
L 283.96966 -121.551937 
L 284.710032 -123.88781 
L 285.791437 -126.223682 
L 286.9363 -128.559554 
L 287.868974 -130.895426 
L 288.371301 -133.231299 
L 288.327088 -135.567171 
L 287.74578 -137.903043 
L 286.7601 -140.238915 
L 285.598027 -142.574788 
L 284.534928 -144.91066 
L 283.835979 -147.246532 
L 283.701129 -149.582404 
L 284.224221 -151.918277 
L 285.374448 -154.254149 
L 287.002958 -156.590021 
L 288.871692 -158.925893 
L 290.69706 -161.261766 
L 292.199016 -163.597638 
L 293.146578 -165.93351 
L 293.393047 -168.269382 
L 292.896877 -170.605255 
L 291.726288 -172.941127 
L 290.047191 -175.276999 
L 288.095233 -177.612871 
L 286.134556 -179.948744 
L 284.40846 -182.284616 
L 283.090007 -184.620488 
L 282.242482 -186.95636 
L 281.79921 -189.292232 
L 281.568951 -191.628105 
L 281.267484 -193.963977 
L 280.569687 -196.299849 
L 279.171455 -198.635721 
L 276.848703 -200.971594 
L 273.502024 -203.307466 
L 269.179594 -205.643338 
L 264.076115 -207.97921 
L 258.51034 -210.315083 
L 252.886845 -212.650955 
L 247.648958 -214.986827 
L 243.229445 -217.322699 
L 240.004486 -219.658572 
L 238.255218 -221.994444 
L 238.14 -224.330316 
L 239.679448 -226.666188 
L 242.75518 -229.002061 
L 247.121946 -231.337933 
L 252.431711 -233.673805 
L 258.267334 -236.009677 
L 264.182941 -238.34555 
L 269.747642 -240.681422 
L 274.588692 -243.017294 
L 278.429527 -245.353166 
L 281.117478 -247.689039 
L 282.636084 -250.024911 
L 283.098307 -252.360783 
L 282.719977 -254.696655 
L 281.777075 -257.032528 
L 280.554884 -259.3684 
L 279.300045 -261.704272 
L 278.186596 -264.040144 
L 277.303585 -266.376017 
L 276.665425 -268.711889 
L 276.239016 -271.047761 
L 275.976415 -273.383633 
L 275.840798 -275.719506 
L 275.817218 -278.055378 
L 275.906826 -280.39125 
L 276.110674 -282.727122 
L 276.413758 -285.062995 
L 276.779432 -287.398867 
L 277.159085 -289.734739 
L 277.514248 -292.070611 
L 277.841777 -294.406484 
L 278.190352 -296.742356 
L 278.659348 -299.078228 
L 279.378018 -301.4141 
L 280.470739 -303.749973 
L 282.019683 -306.085845 
L 284.037257 -308.421717 
L 286.457047 -310.757589 
L 289.145385 -313.093462 
L 291.928877 -315.429334 
L 294.628838 -317.765206 
L 297.09274 -320.101078 
L 299.21528 -322.436951 
L 300.945997 -324.772823 
L 302.284655 -327.108695 
L 307.915345 -327.108695 
L 307.915345 -327.108695 
L 309.254003 -324.772823 
L 310.98472 -322.436951 
L 313.10726 -320.101078 
L 315.571162 -317.765206 
L 318.271123 -315.429334 
L 321.054615 -313.093462 
L 323.742953 -310.757589 
L 326.162743 -308.421717 
L 328.180317 -306.085845 
L 329.729261 -303.749973 
L 330.821982 -301.4141 
L 331.540652 -299.078228 
L 332.009648 -296.742356 
L 332.358223 -294.406484 
L 332.685752 -292.070611 
L 333.040915 -289.734739 
L 333.420568 -287.398867 
L 333.786242 -285.062995 
L 334.089326 -282.727122 
L 334.293174 -280.39125 
L 334.382782 -278.055378 
L 334.359202 -275.719506 
L 334.223585 -273.383633 
L 333.960984 -271.047761 
L 333.534575 -268.711889 
L 332.896415 -266.376017 
L 332.013404 -264.040144 
L 330.899955 -261.704272 
L 329.645116 -259.3684 
L 328.422925 -257.032528 
L 327.480023 -254.696655 
L 327.101693 -252.360783 
L 327.563916 -250.024911 
L 329.082522 -247.689039 
L 331.770473 -245.353166 
L 335.611308 -243.017294 
L 340.452358 -240.681422 
L 346.017059 -238.34555 
L 351.932666 -236.009677 
L 357.768289 -233.673805 
L 363.078054 -231.337933 
L 367.44482 -229.002061 
L 370.520552 -226.666188 
L 372.06 -224.330316 
L 371.944782 -221.994444 
L 370.195514 -219.658572 
L 366.970555 -217.322699 
L 362.551042 -214.986827 
L 357.313155 -212.650955 
L 351.68966 -210.315083 
L 346.123885 -207.97921 
L 341.020406 -205.643338 
L 336.697976 -203.307466 
L 333.351297 -200.971594 
L 331.028545 -198.635721 
L 329.630313 -196.299849 
L 328.932516 -193.963977 
L 328.631049 -191.628105 
L 328.40079 -189.292232 
L 327.957518 -186.95636 
L 327.109993 -184.620488 
L 325.79154 -182.284616 
L 324.065444 -179.948744 
L 322.104767 -177.612871 
L 320.152809 -175.276999 
L 318.473712 -172.941127 
L 317.303123 -170.605255 
L 316.806953 -168.269382 
L 317.053422 -165.93351 
L 318.000984 -163.597638 
L 319.50294 -161.261766 
L 321.328308 -158.925893 
L 323.197042 -156.590021 
L 324.825552 -154.254149 
L 325.975779 -151.918277 
L 326.498871 -149.582404 
L 326.364021 -147.246532 
L 325.665072 -144.91066 
L 324.601973 -142.574788 
L 323.4399 -140.238915 
L 322.45422 -137.903043 
L 321.872912 -135.567171 
L 321.828699 -133.231299 
L 322.331026 -130.895426 
L 323.2637 -128.559554 
L 324.408563 -126.223682 
L 325.489968 -123.88781 
L 326.23034 -121.551937 
L 326.404596 -119.216065 
L 325.881591 -116.880193 
L 324.643992 -114.544321 
L 322.783539 -112.208448 
L 320.474831 -109.872576 
L 317.935807 -107.536704 
L 315.385497 -105.200832 
L 313.008807 -102.864959 
L 310.934709 -100.529087 
L 309.229663 -98.193215 
L 307.903992 -95.857343 
z
" style="stroke: #3f3f3f; stroke-width: 1.5"/>
    </defs>
    <g clip-path="url(#p41cedf47fc)">
     <use xlink:href="#m671cbdd362" x="0" y="360" style="fill: #e1812c; stroke: #3f3f3f; stroke-width: 1.5"/>
    </g>
   </g>
   <g id="matplotlib.axis_1">
    <g id="xtick_1">
     <g id="line2d_1">
      <defs>
       <path id="m5cb9db511f" d="M 0 0 
L 0 3.5 
" style="stroke: #000000; stroke-width: 0.8"/>
      </defs>
      <g>
       <use xlink:href="#m5cb9db511f" x="137.7" y="320.4" style="stroke: #000000; stroke-width: 0.8"/>
      </g>
     </g>
     <g id="text_1">
      <!-- Forced commit -->
      <g transform="translate(85.641875 338.037813) scale(0.14 -0.14)">
       <defs>
        <path id="DejaVuSans-46" d="M 628 4666 
L 3309 4666 
L 3309 4134 
L 1259 4134 
L 1259 2759 
L 3109 2759 
L 3109 2228 
L 1259 2228 
L 1259 0 
L 628 0 
L 628 4666 
z
" transform="scale(0.015625)"/>
        <path id="DejaVuSans-6f" d="M 1959 3097 
Q 1497 3097 1228 2736 
Q 959 2375 959 1747 
Q 959 1119 1226 758 
Q 1494 397 1959 397 
Q 2419 397 2687 759 
Q 2956 1122 2956 1747 
Q 2956 2369 2687 2733 
Q 2419 3097 1959 3097 
z
M 1959 3584 
Q 2709 3584 3137 3096 
Q 3566 2609 3566 1747 
Q 3566 888 3137 398 
Q 2709 -91 1959 -91 
Q 1206 -91 779 398 
Q 353 888 353 1747 
Q 353 2609 779 3096 
Q 1206 3584 1959 3584 
z
" transform="scale(0.015625)"/>
        <path id="DejaVuSans-72" d="M 2631 2963 
Q 2534 3019 2420 3045 
Q 2306 3072 2169 3072 
Q 1681 3072 1420 2755 
Q 1159 2438 1159 1844 
L 1159 0 
L 581 0 
L 581 3500 
L 1159 3500 
L 1159 2956 
Q 1341 3275 1631 3429 
Q 1922 3584 2338 3584 
Q 2397 3584 2469 3576 
Q 2541 3569 2628 3553 
L 2631 2963 
z
" transform="scale(0.015625)"/>
        <path id="DejaVuSans-63" d="M 3122 3366 
L 3122 2828 
Q 2878 2963 2633 3030 
Q 2388 3097 2138 3097 
Q 1578 3097 1268 2742 
Q 959 2388 959 1747 
Q 959 1106 1268 751 
Q 1578 397 2138 397 
Q 2388 397 2633 464 
Q 2878 531 3122 666 
L 3122 134 
Q 2881 22 2623 -34 
Q 2366 -91 2075 -91 
Q 1284 -91 818 406 
Q 353 903 353 1747 
Q 353 2603 823 3093 
Q 1294 3584 2113 3584 
Q 2378 3584 2631 3529 
Q 2884 3475 3122 3366 
z
" transform="scale(0.015625)"/>
        <path id="DejaVuSans-65" d="M 3597 1894 
L 3597 1613 
L 953 1613 
Q 991 1019 1311 708 
Q 1631 397 2203 397 
Q 2534 397 2845 478 
Q 3156 559 3463 722 
L 3463 178 
Q 3153 47 2828 -22 
Q 2503 -91 2169 -91 
Q 1331 -91 842 396 
Q 353 884 353 1716 
Q 353 2575 817 3079 
Q 1281 3584 2069 3584 
Q 2775 3584 3186 3129 
Q 3597 2675 3597 1894 
z
M 3022 2063 
Q 3016 2534 2758 2815 
Q 2500 3097 2075 3097 
Q 1594 3097 1305 2825 
Q 1016 2553 972 2059 
L 3022 2063 
z
" transform="scale(0.015625)"/>
        <path id="DejaVuSans-64" d="M 2906 2969 
L 2906 4863 
L 3481 4863 
L 3481 0 
L 2906 0 
L 2906 525 
Q 2725 213 2448 61 
Q 2172 -91 1784 -91 
Q 1150 -91 751 415 
Q 353 922 353 1747 
Q 353 2572 751 3078 
Q 1150 3584 1784 3584 
Q 2172 3584 2448 3432 
Q 2725 3281 2906 2969 
z
M 947 1747 
Q 947 1113 1208 752 
Q 1469 391 1925 391 
Q 2381 391 2643 752 
Q 2906 1113 2906 1747 
Q 2906 2381 2643 2742 
Q 2381 3103 1925 3103 
Q 1469 3103 1208 2742 
Q 947 2381 947 1747 
z
" transform="scale(0.015625)"/>
        <path id="DejaVuSans-20" transform="scale(0.015625)"/>
        <path id="DejaVuSans-6d" d="M 3328 2828 
Q 3544 3216 3844 3400 
Q 4144 3584 4550 3584 
Q 5097 3584 5394 3201 
Q 5691 2819 5691 2113 
L 5691 0 
L 5113 0 
L 5113 2094 
Q 5113 2597 4934 2840 
Q 4756 3084 4391 3084 
Q 3944 3084 3684 2787 
Q 3425 2491 3425 1978 
L 3425 0 
L 2847 0 
L 2847 2094 
Q 2847 2600 2669 2842 
Q 2491 3084 2119 3084 
Q 1678 3084 1418 2786 
Q 1159 2488 1159 1978 
L 1159 0 
L 581 0 
L 581 3500 
L 1159 3500 
L 1159 2956 
Q 1356 3278 1631 3431 
Q 1906 3584 2284 3584 
Q 2666 3584 2933 3390 
Q 3200 3197 3328 2828 
z
" transform="scale(0.015625)"/>
        <path id="DejaVuSans-69" d="M 603 3500 
L 1178 3500 
L 1178 0 
L 603 0 
L 603 3500 
z
M 603 4863 
L 1178 4863 
L 1178 4134 
L 603 4134 
L 603 4863 
z
" transform="scale(0.015625)"/>
        <path id="DejaVuSans-74" d="M 1172 4494 
L 1172 3500 
L 2356 3500 
L 2356 3053 
L 1172 3053 
L 1172 1153 
Q 1172 725 1289 603 
Q 1406 481 1766 481 
L 2356 481 
L 2356 0 
L 1766 0 
Q 1100 0 847 248 
Q 594 497 594 1153 
L 594 3053 
L 172 3053 
L 172 3500 
L 594 3500 
L 594 4494 
L 1172 4494 
z
" transform="scale(0.015625)"/>
       </defs>
       <use xlink:href="#DejaVuSans-46"/>
       <use xlink:href="#DejaVuSans-6f" x="53.894531"/>
       <use xlink:href="#DejaVuSans-72" x="115.076172"/>
       <use xlink:href="#DejaVuSans-63" x="153.939453"/>
       <use xlink:href="#DejaVuSans-65" x="208.919922"/>
       <use xlink:href="#DejaVuSans-64" x="270.443359"/>
       <use xlink:href="#DejaVuSans-20" x="333.919922"/>
       <use xlink:href="#DejaVuSans-63" x="365.707031"/>
       <use xlink:href="#DejaVuSans-6f" x="420.6875"/>
       <use xlink:href="#DejaVuSans-6d" x="481.869141"/>
       <use xlink:href="#DejaVuSans-6d" x="579.28125"/>
       <use xlink:href="#DejaVuSans-69" x="676.693359"/>
       <use xlink:href="#DejaVuSans-74" x="704.476562"/>
      </g>
     </g>
    </g>
    <g id="xtick_2">
     <g id="line2d_2">
      <g>
       <use xlink:href="#m5cb9db511f" x="305.1" y="320.4" style="stroke: #000000; stroke-width: 0.8"/>
      </g>
     </g>
     <g id="text_2">
      <!-- Voting commit -->
      <g transform="translate(254.319375 338.037813) scale(0.14 -0.14)">
       <defs>
        <path id="DejaVuSans-56" d="M 1831 0 
L 50 4666 
L 709 4666 
L 2188 738 
L 3669 4666 
L 4325 4666 
L 2547 0 
L 1831 0 
z
" transform="scale(0.015625)"/>
        <path id="DejaVuSans-6e" d="M 3513 2113 
L 3513 0 
L 2938 0 
L 2938 2094 
Q 2938 2591 2744 2837 
Q 2550 3084 2163 3084 
Q 1697 3084 1428 2787 
Q 1159 2491 1159 1978 
L 1159 0 
L 581 0 
L 581 3500 
L 1159 3500 
L 1159 2956 
Q 1366 3272 1645 3428 
Q 1925 3584 2291 3584 
Q 2894 3584 3203 3211 
Q 3513 2838 3513 2113 
z
" transform="scale(0.015625)"/>
        <path id="DejaVuSans-67" d="M 2906 1791 
Q 2906 2416 2648 2759 
Q 2391 3103 1925 3103 
Q 1463 3103 1205 2759 
Q 947 2416 947 1791 
Q 947 1169 1205 825 
Q 1463 481 1925 481 
Q 2391 481 2648 825 
Q 2906 1169 2906 1791 
z
M 3481 434 
Q 3481 -459 3084 -895 
Q 2688 -1331 1869 -1331 
Q 1566 -1331 1297 -1286 
Q 1028 -1241 775 -1147 
L 775 -588 
Q 1028 -725 1275 -790 
Q 1522 -856 1778 -856 
Q 2344 -856 2625 -561 
Q 2906 -266 2906 331 
L 2906 616 
Q 2728 306 2450 153 
Q 2172 0 1784 0 
Q 1141 0 747 490 
Q 353 981 353 1791 
Q 353 2603 747 3093 
Q 1141 3584 1784 3584 
Q 2172 3584 2450 3431 
Q 2728 3278 2906 2969 
L 2906 3500 
L 3481 3500 
L 3481 434 
z
" transform="scale(0.015625)"/>
       </defs>
       <use xlink:href="#DejaVuSans-56"/>
       <use xlink:href="#DejaVuSans-6f" x="60.658203"/>
       <use xlink:href="#DejaVuSans-74" x="121.839844"/>
       <use xlink:href="#DejaVuSans-69" x="161.048828"/>
       <use xlink:href="#DejaVuSans-6e" x="188.832031"/>
       <use xlink:href="#DejaVuSans-67" x="252.210938"/>
       <use xlink:href="#DejaVuSans-20" x="315.6875"/>
       <use xlink:href="#DejaVuSans-63" x="347.474609"/>
       <use xlink:href="#DejaVuSans-6f" x="402.455078"/>
       <use xlink:href="#DejaVuSans-6d" x="463.636719"/>
       <use xlink:href="#DejaVuSans-6d" x="561.048828"/>
       <use xlink:href="#DejaVuSans-69" x="658.460938"/>
       <use xlink:href="#DejaVuSans-74" x="686.244141"/>
      </g>
     </g>
    </g>
    <g id="text_3">
     <!-- Method -->
     <g transform="translate(195.145625 355.587188) scale(0.14 -0.14)">
      <defs>
       <path id="DejaVuSans-4d" d="M 628 4666 
L 1569 4666 
L 2759 1491 
L 3956 4666 
L 4897 4666 
L 4897 0 
L 4281 0 
L 4281 4097 
L 3078 897 
L 2444 897 
L 1241 4097 
L 1241 0 
L 628 0 
L 628 4666 
z
" transform="scale(0.015625)"/>
       <path id="DejaVuSans-68" d="M 3513 2113 
L 3513 0 
L 2938 0 
L 2938 2094 
Q 2938 2591 2744 2837 
Q 2550 3084 2163 3084 
Q 1697 3084 1428 2787 
Q 1159 2491 1159 1978 
L 1159 0 
L 581 0 
L 581 4863 
L 1159 4863 
L 1159 2956 
Q 1366 3272 1645 3428 
Q 1925 3584 2291 3584 
Q 2894 3584 3203 3211 
Q 3513 2838 3513 2113 
z
" transform="scale(0.015625)"/>
      </defs>
      <use xlink:href="#DejaVuSans-4d"/>
      <use xlink:href="#DejaVuSans-65" x="86.279297"/>
      <use xlink:href="#DejaVuSans-74" x="147.802734"/>
      <use xlink:href="#DejaVuSans-68" x="187.011719"/>
      <use xlink:href="#DejaVuSans-6f" x="250.390625"/>
      <use xlink:href="#DejaVuSans-64" x="311.572266"/>
     </g>
    </g>
   </g>
   <g id="matplotlib.axis_2">
    <g id="ytick_1">
     <g id="line2d_3">
      <defs>
       <path id="m840c3e7f2f" d="M 0 0 
L -3.5 0 
" style="stroke: #000000; stroke-width: 0.8"/>
      </defs>
      <g>
       <use xlink:href="#m840c3e7f2f" x="54" y="293.535849" style="stroke: #000000; stroke-width: 0.8"/>
      </g>
     </g>
     <g id="text_4">
      <!-- 300 -->
      <g transform="translate(20.2775 298.854755) scale(0.14 -0.14)">
       <defs>
        <path id="DejaVuSans-33" d="M 2597 2516 
Q 3050 2419 3304 2112 
Q 3559 1806 3559 1356 
Q 3559 666 3084 287 
Q 2609 -91 1734 -91 
Q 1441 -91 1130 -33 
Q 819 25 488 141 
L 488 750 
Q 750 597 1062 519 
Q 1375 441 1716 441 
Q 2309 441 2620 675 
Q 2931 909 2931 1356 
Q 2931 1769 2642 2001 
Q 2353 2234 1838 2234 
L 1294 2234 
L 1294 2753 
L 1863 2753 
Q 2328 2753 2575 2939 
Q 2822 3125 2822 3475 
Q 2822 3834 2567 4026 
Q 2313 4219 1838 4219 
Q 1578 4219 1281 4162 
Q 984 4106 628 3988 
L 628 4550 
Q 988 4650 1302 4700 
Q 1616 4750 1894 4750 
Q 2613 4750 3031 4423 
Q 3450 4097 3450 3541 
Q 3450 3153 3228 2886 
Q 3006 2619 2597 2516 
z
" transform="scale(0.015625)"/>
        <path id="DejaVuSans-30" d="M 2034 4250 
Q 1547 4250 1301 3770 
Q 1056 3291 1056 2328 
Q 1056 1369 1301 889 
Q 1547 409 2034 409 
Q 2525 409 2770 889 
Q 3016 1369 3016 2328 
Q 3016 3291 2770 3770 
Q 2525 4250 2034 4250 
z
M 2034 4750 
Q 2819 4750 3233 4129 
Q 3647 3509 3647 2328 
Q 3647 1150 3233 529 
Q 2819 -91 2034 -91 
Q 1250 -91 836 529 
Q 422 1150 422 2328 
Q 422 3509 836 4129 
Q 1250 4750 2034 4750 
z
" transform="scale(0.015625)"/>
       </defs>
       <use xlink:href="#DejaVuSans-33"/>
       <use xlink:href="#DejaVuSans-30" x="63.623047"/>
       <use xlink:href="#DejaVuSans-30" x="127.246094"/>
      </g>
     </g>
    </g>
    <g id="ytick_2">
     <g id="line2d_4">
      <g>
       <use xlink:href="#m840c3e7f2f" x="54" y="253.913208" style="stroke: #000000; stroke-width: 0.8"/>
      </g>
     </g>
     <g id="text_5">
      <!-- 350 -->
      <g transform="translate(20.2775 259.232114) scale(0.14 -0.14)">
       <defs>
        <path id="DejaVuSans-35" d="M 691 4666 
L 3169 4666 
L 3169 4134 
L 1269 4134 
L 1269 2991 
Q 1406 3038 1543 3061 
Q 1681 3084 1819 3084 
Q 2600 3084 3056 2656 
Q 3513 2228 3513 1497 
Q 3513 744 3044 326 
Q 2575 -91 1722 -91 
Q 1428 -91 1123 -41 
Q 819 9 494 109 
L 494 744 
Q 775 591 1075 516 
Q 1375 441 1709 441 
Q 2250 441 2565 725 
Q 2881 1009 2881 1497 
Q 2881 1984 2565 2268 
Q 2250 2553 1709 2553 
Q 1456 2553 1204 2497 
Q 953 2441 691 2322 
L 691 4666 
z
" transform="scale(0.015625)"/>
       </defs>
       <use xlink:href="#DejaVuSans-33"/>
       <use xlink:href="#DejaVuSans-35" x="63.623047"/>
       <use xlink:href="#DejaVuSans-30" x="127.246094"/>
      </g>
     </g>
    </g>
    <g id="ytick_3">
     <g id="line2d_5">
      <g>
       <use xlink:href="#m840c3e7f2f" x="54" y="214.290566" style="stroke: #000000; stroke-width: 0.8"/>
      </g>
     </g>
     <g id="text_6">
      <!-- 400 -->
      <g transform="translate(20.2775 219.609472) scale(0.14 -0.14)">
       <defs>
        <path id="DejaVuSans-34" d="M 2419 4116 
L 825 1625 
L 2419 1625 
L 2419 4116 
z
M 2253 4666 
L 3047 4666 
L 3047 1625 
L 3713 1625 
L 3713 1100 
L 3047 1100 
L 3047 0 
L 2419 0 
L 2419 1100 
L 313 1100 
L 313 1709 
L 2253 4666 
z
" transform="scale(0.015625)"/>
       </defs>
       <use xlink:href="#DejaVuSans-34"/>
       <use xlink:href="#DejaVuSans-30" x="63.623047"/>
       <use xlink:href="#DejaVuSans-30" x="127.246094"/>
      </g>
     </g>
    </g>
    <g id="ytick_4">
     <g id="line2d_6">
      <g>
       <use xlink:href="#m840c3e7f2f" x="54" y="174.667925" style="stroke: #000000; stroke-width: 0.8"/>
      </g>
     </g>
     <g id="text_7">
      <!-- 450 -->
      <g transform="translate(20.2775 179.986831) scale(0.14 -0.14)">
       <use xlink:href="#DejaVuSans-34"/>
       <use xlink:href="#DejaVuSans-35" x="63.623047"/>
       <use xlink:href="#DejaVuSans-30" x="127.246094"/>
      </g>
     </g>
    </g>
    <g id="ytick_5">
     <g id="line2d_7">
      <g>
       <use xlink:href="#m840c3e7f2f" x="54" y="135.045283" style="stroke: #000000; stroke-width: 0.8"/>
      </g>
     </g>
     <g id="text_8">
      <!-- 500 -->
      <g transform="translate(20.2775 140.364189) scale(0.14 -0.14)">
       <use xlink:href="#DejaVuSans-35"/>
       <use xlink:href="#DejaVuSans-30" x="63.623047"/>
       <use xlink:href="#DejaVuSans-30" x="127.246094"/>
      </g>
     </g>
    </g>
    <g id="ytick_6">
     <g id="line2d_8">
      <g>
       <use xlink:href="#m840c3e7f2f" x="54" y="95.422642" style="stroke: #000000; stroke-width: 0.8"/>
      </g>
     </g>
     <g id="text_9">
      <!-- 550 -->
      <g transform="translate(20.2775 100.741548) scale(0.14 -0.14)">
       <use xlink:href="#DejaVuSans-35"/>
       <use xlink:href="#DejaVuSans-35" x="63.623047"/>
       <use xlink:href="#DejaVuSans-30" x="127.246094"/>
      </g>
     </g>
    </g>
    <g id="ytick_7">
     <g id="line2d_9">
      <g>
       <use xlink:href="#m840c3e7f2f" x="54" y="55.8" style="stroke: #000000; stroke-width: 0.8"/>
      </g>
     </g>
     <g id="text_10">
      <!-- 600 -->
      <g transform="translate(20.2775 61.118906) scale(0.14 -0.14)">
       <defs>
        <path id="DejaVuSans-36" d="M 2113 2584 
Q 1688 2584 1439 2293 
Q 1191 2003 1191 1497 
Q 1191 994 1439 701 
Q 1688 409 2113 409 
Q 2538 409 2786 701 
Q 3034 994 3034 1497 
Q 3034 2003 2786 2293 
Q 2538 2584 2113 2584 
z
M 3366 4563 
L 3366 3988 
Q 3128 4100 2886 4159 
Q 2644 4219 2406 4219 
Q 1781 4219 1451 3797 
Q 1122 3375 1075 2522 
Q 1259 2794 1537 2939 
Q 1816 3084 2150 3084 
Q 2853 3084 3261 2657 
Q 3669 2231 3669 1497 
Q 3669 778 3244 343 
Q 2819 -91 2113 -91 
Q 1303 -91 875 529 
Q 447 1150 447 2328 
Q 447 3434 972 4092 
Q 1497 4750 2381 4750 
Q 2619 4750 2861 4703 
Q 3103 4656 3366 4563 
z
" transform="scale(0.015625)"/>
       </defs>
       <use xlink:href="#DejaVuSans-36"/>
       <use xlink:href="#DejaVuSans-30" x="63.623047"/>
       <use xlink:href="#DejaVuSans-30" x="127.246094"/>
      </g>
     </g>
    </g>
    <g id="text_11">
     <!-- Time (s) -->
     <g transform="translate(13.365937 210.260469) rotate(-90) scale(0.14 -0.14)">
      <defs>
       <path id="DejaVuSans-54" d="M -19 4666 
L 3928 4666 
L 3928 4134 
L 2272 4134 
L 2272 0 
L 1638 0 
L 1638 4134 
L -19 4134 
L -19 4666 
z
" transform="scale(0.015625)"/>
       <path id="DejaVuSans-28" d="M 1984 4856 
Q 1566 4138 1362 3434 
Q 1159 2731 1159 2009 
Q 1159 1288 1364 580 
Q 1569 -128 1984 -844 
L 1484 -844 
Q 1016 -109 783 600 
Q 550 1309 550 2009 
Q 550 2706 781 3412 
Q 1013 4119 1484 4856 
L 1984 4856 
z
" transform="scale(0.015625)"/>
       <path id="DejaVuSans-73" d="M 2834 3397 
L 2834 2853 
Q 2591 2978 2328 3040 
Q 2066 3103 1784 3103 
Q 1356 3103 1142 2972 
Q 928 2841 928 2578 
Q 928 2378 1081 2264 
Q 1234 2150 1697 2047 
L 1894 2003 
Q 2506 1872 2764 1633 
Q 3022 1394 3022 966 
Q 3022 478 2636 193 
Q 2250 -91 1575 -91 
Q 1294 -91 989 -36 
Q 684 19 347 128 
L 347 722 
Q 666 556 975 473 
Q 1284 391 1588 391 
Q 1994 391 2212 530 
Q 2431 669 2431 922 
Q 2431 1156 2273 1281 
Q 2116 1406 1581 1522 
L 1381 1569 
Q 847 1681 609 1914 
Q 372 2147 372 2553 
Q 372 3047 722 3315 
Q 1072 3584 1716 3584 
Q 2034 3584 2315 3537 
Q 2597 3491 2834 3397 
z
" transform="scale(0.015625)"/>
       <path id="DejaVuSans-29" d="M 513 4856 
L 1013 4856 
Q 1481 4119 1714 3412 
Q 1947 2706 1947 2009 
Q 1947 1309 1714 600 
Q 1481 -109 1013 -844 
L 513 -844 
Q 928 -128 1133 580 
Q 1338 1288 1338 2009 
Q 1338 2731 1133 3434 
Q 928 4138 513 4856 
z
" transform="scale(0.015625)"/>
      </defs>
      <use xlink:href="#DejaVuSans-54"/>
      <use xlink:href="#DejaVuSans-69" x="57.958984"/>
      <use xlink:href="#DejaVuSans-6d" x="85.742188"/>
      <use xlink:href="#DejaVuSans-65" x="183.154297"/>
      <use xlink:href="#DejaVuSans-20" x="244.677734"/>
      <use xlink:href="#DejaVuSans-28" x="276.464844"/>
      <use xlink:href="#DejaVuSans-73" x="315.478516"/>
      <use xlink:href="#DejaVuSans-29" x="367.578125"/>
     </g>
    </g>
   </g>
   <g id="patch_3">
    <path d="M 54 320.4 
L 54 43.2 
" style="fill: none; stroke: #000000; stroke-width: 0.8; stroke-linejoin: miter; stroke-linecap: square"/>
   </g>
   <g id="patch_4">
    <path d="M 388.8 320.4 
L 388.8 43.2 
" style="fill: none; stroke: #000000; stroke-width: 0.8; stroke-linejoin: miter; stroke-linecap: square"/>
   </g>
   <g id="patch_5">
    <path d="M 54 320.4 
L 388.8 320.4 
" style="fill: none; stroke: #000000; stroke-width: 0.8; stroke-linejoin: miter; stroke-linecap: square"/>
   </g>
   <g id="patch_6">
    <path d="M 54 43.2 
L 388.8 43.2 
" style="fill: none; stroke: #000000; stroke-width: 0.8; stroke-linejoin: miter; stroke-linecap: square"/>
   </g>
   <g id="PathCollection_1">
    <defs>
     <path id="C0_0_df6b8740e0" d="M 0 2.5 
C 0.663008 2.5 1.29895 2.236584 1.767767 1.767767 
C 2.236584 1.29895 2.5 0.663008 2.5 -0 
C 2.5 -0.663008 2.236584 -1.29895 1.767767 -1.767767 
C 1.29895 -2.236584 0.663008 -2.5 0 -2.5 
C -0.663008 -2.5 -1.29895 -2.236584 -1.767767 -1.767767 
C -2.236584 -1.29895 -2.5 -0.663008 -2.5 0 
C -2.5 0.663008 -2.236584 1.29895 -1.767767 1.767767 
C -1.29895 2.236584 -0.663008 2.5 0 2.5 
z
"/>
    </defs>
    <g clip-path="url(#p41cedf47fc)">
     <use xlink:href="#C0_0_df6b8740e0" x="137.7" y="55.8" style="fill: #262626; fill-opacity: 0.5"/>
    </g>
    <g clip-path="url(#p41cedf47fc)">
     <use xlink:href="#C0_0_df6b8740e0" x="137.7" y="291.158491" style="fill: #262626; fill-opacity: 0.5"/>
    </g>
    <g clip-path="url(#p41cedf47fc)">
     <use xlink:href="#C0_0_df6b8740e0" x="137.7" y="168.328302" style="fill: #262626; fill-opacity: 0.5"/>
    </g>
    <g clip-path="url(#p41cedf47fc)">
     <use xlink:href="#C0_0_df6b8740e0" x="137.7" y="272.139623" style="fill: #262626; fill-opacity: 0.5"/>
    </g>
    <g clip-path="url(#p41cedf47fc)">
     <use xlink:href="#C0_0_df6b8740e0" x="137.7" y="307.8" style="fill: #262626; fill-opacity: 0.5"/>
    </g>
    <g clip-path="url(#p41cedf47fc)">
     <use xlink:href="#C0_0_df6b8740e0" x="136.075834" y="163.573585" style="fill: #262626; fill-opacity: 0.5"/>
    </g>
    <g clip-path="url(#p41cedf47fc)">
     <use xlink:href="#C0_0_df6b8740e0" x="141.055101" y="161.988679" style="fill: #262626; fill-opacity: 0.5"/>
    </g>
    <g clip-path="url(#p41cedf47fc)">
     <use xlink:href="#C0_0_df6b8740e0" x="137.7" y="184.969811" style="fill: #262626; fill-opacity: 0.5"/>
    </g>
    <g clip-path="url(#p41cedf47fc)">
     <use xlink:href="#C0_0_df6b8740e0" x="132.720733" y="116.818868" style="fill: #262626; fill-opacity: 0.5"/>
    </g>
    <g clip-path="url(#p41cedf47fc)">
     <use xlink:href="#C0_0_df6b8740e0" x="137.7" y="118.403774" style="fill: #262626; fill-opacity: 0.5"/>
    </g>
   </g>
   <g id="PathCollection_2">
    <defs>
     <path id="C1_0_9d76730cf3" d="M 0 2.5 
C 0.663008 2.5 1.29895 2.236584 1.767767 1.767767 
C 2.236584 1.29895 2.5 0.663008 2.5 -0 
C 2.5 -0.663008 2.236584 -1.29895 1.767767 -1.767767 
C 1.29895 -2.236584 0.663008 -2.5 0 -2.5 
C -0.663008 -2.5 -1.29895 -2.236584 -1.767767 -1.767767 
C -2.236584 -1.29895 -2.5 -0.663008 -2.5 0 
C -2.5 0.663008 -2.236584 1.29895 -1.767767 1.767767 
C -1.29895 2.236584 -0.663008 2.5 0 2.5 
z
"/>
    </defs>
    <g clip-path="url(#p41cedf47fc)">
     <use xlink:href="#C1_0_9d76730cf3" x="301.039839" y="135.045283" style="fill-opacity: 0.5"/>
    </g>
    <g clip-path="url(#p41cedf47fc)">
     <use xlink:href="#C1_0_9d76730cf3" x="305.1" y="97.007547" style="fill-opacity: 0.5"/>
    </g>
    <g clip-path="url(#p41cedf47fc)">
     <use xlink:href="#C1_0_9d76730cf3" x="305.1" y="173.875472" style="fill-opacity: 0.5"/>
    </g>
    <g clip-path="url(#p41cedf47fc)">
     <use xlink:href="#C1_0_9d76730cf3" x="305.1" y="210.328302" style="fill-opacity: 0.5"/>
    </g>
    <g clip-path="url(#p41cedf47fc)">
     <use xlink:href="#C1_0_9d76730cf3" x="305.1" y="241.233962" style="fill-opacity: 0.5"/>
    </g>
    <g clip-path="url(#p41cedf47fc)">
     <use xlink:href="#C1_0_9d76730cf3" x="305.1" y="138.215094" style="fill-opacity: 0.5"/>
    </g>
    <g clip-path="url(#p41cedf47fc)">
     <use xlink:href="#C1_0_9d76730cf3" x="305.1" y="77.196226" style="fill-opacity: 0.5"/>
    </g>
    <g clip-path="url(#p41cedf47fc)">
     <use xlink:href="#C1_0_9d76730cf3" x="305.1" y="147.724528" style="fill-opacity: 0.5"/>
    </g>
    <g clip-path="url(#p41cedf47fc)">
     <use xlink:href="#C1_0_9d76730cf3" x="305.1" y="55.8" style="fill-opacity: 0.5"/>
    </g>
    <g clip-path="url(#p41cedf47fc)">
     <use xlink:href="#C1_0_9d76730cf3" x="305.1" y="125.535849" style="fill-opacity: 0.5"/>
    </g>
   </g>
   <g id="line2d_10">
    <path d="M 70.74 165.950943 
L 204.66 165.950943 
" clip-path="url(#p41cedf47fc)" style="fill: none; stroke: #000000; stroke-linecap: square"/>
   </g>
   <g id="line2d_11">
    <path d="M 70.74 184.098113 
L 204.66 184.098113 
" clip-path="url(#p41cedf47fc)" style="fill: none; stroke-dasharray: 3.7,1.6; stroke-dashoffset: 0; stroke: #2ca02c"/>
   </g>
   <g id="line2d_12">
    <path d="M 238.14 136.630189 
L 372.06 136.630189 
" clip-path="url(#p41cedf47fc)" style="fill: none; stroke: #000000; stroke-linecap: square"/>
   </g>
   <g id="line2d_13">
    <path d="M 238.14 140.196226 
L 372.06 140.196226 
" clip-path="url(#p41cedf47fc)" style="fill: none; stroke-dasharray: 3.7,1.6; stroke-dashoffset: 0; stroke: #2ca02c"/>
   </g>
  </g>
 </g>
 <defs>
  <clipPath id="p41cedf47fc">
   <rect x="54" y="43.2" width="334.8" height="277.2"/>
  </clipPath>
 </defs>
</svg>
