<?xml version="1.0" encoding="utf-8" standalone="no"?>
<!DOCTYPE svg PUBLIC "-//W3C//DTD SVG 1.1//EN"
  "http://www.w3.org/Graphics/SVG/1.1/DTD/svg11.dtd">
<svg xmlns:xlink="http://www.w3.org/1999/xlink" width="360pt" height="360pt" viewBox="0 0 360 360" xmlns="http://www.w3.org/2000/svg" version="1.1">
 <metadata>
  <rdf:RDF xmlns:dc="http://purl.org/dc/elements/1.1/" xmlns:cc="http://creativecommons.org/ns#" xmlns:rdf="http://www.w3.org/1999/02/22-rdf-syntax-ns#">
   <cc:Work>
    <dc:type rdf:resource="http://purl.org/dc/dcmitype/StillImage"/>
    <dc:date>2023-03-28T15:44:59.558997</dc:date>
    <dc:format>image/svg+xml</dc:format>
    <dc:creator>
     <cc:Agent>
      <dc:title>Matplotlib v3.7.1, https://matplotlib.org/</dc:title>
     </cc:Agent>
    </dc:creator>
   </cc:Work>
  </rdf:RDF>
 </metadata>
 <defs>
  <style type="text/css">*{stroke-linejoin: round; stroke-linecap: butt}</style>
 </defs>
 <g id="figure_1">
  <g id="patch_1">
   <path d="M 0 360 
L 360 360 
L 360 0 
L 0 0 
z
" style="fill: #ffffff"/>
  </g>
  <g id="axes_1">
   <g id="patch_2">
    <path d="M 51.05 318.04 
L 349.2 318.04 
L 349.2 10.8 
L 51.05 10.8 
z
" style="fill: #ffffff"/>
   </g>
   <g id="PathCollection_1">
    <defs>
     <path id="m3a4c5b0580" d="M 0 3 
C 0.795609 3 1.55874 2.683901 2.12132 2.12132 
C 2.683901 1.55874 3 0.795609 3 0 
C 3 -0.795609 2.683901 -1.55874 2.12132 -2.12132 
C 1.55874 -2.683901 0.795609 -3 0 -3 
C -0.795609 -3 -1.55874 -2.683901 -2.12132 -2.12132 
C -2.683901 -1.55874 -3 -0.795609 -3 0 
C -3 0.795609 -2.683901 1.55874 -2.12132 2.12132 
C -1.55874 2.683901 -0.795609 3 0 3 
z
" style="stroke: #1f77b4; stroke-opacity: 0.8"/>
    </defs>
    <g clip-path="url(#p75ccdf1a49)">
     <use xlink:href="#m3a4c5b0580" x="311.93125" y="126.015" style="fill: #1f77b4; fill-opacity: 0.8; stroke: #1f77b4; stroke-opacity: 0.8"/>
     <use xlink:href="#m3a4c5b0580" x="90.554875" y="89.1462" style="fill: #1f77b4; fill-opacity: 0.8; stroke: #1f77b4; stroke-opacity: 0.8"/>
     <use xlink:href="#m3a4c5b0580" x="206.088" y="163.6519" style="fill: #1f77b4; fill-opacity: 0.8; stroke: #1f77b4; stroke-opacity: 0.8"/>
     <use xlink:href="#m3a4c5b0580" x="108.443875" y="198.9845" style="fill: #1f77b4; fill-opacity: 0.8; stroke: #1f77b4; stroke-opacity: 0.8"/>
     <use xlink:href="#m3a4c5b0580" x="74.902" y="228.9404" style="fill: #1f77b4; fill-opacity: 0.8; stroke: #1f77b4; stroke-opacity: 0.8"/>
     <use xlink:href="#m3a4c5b0580" x="210.56025" y="129.0874" style="fill: #1f77b4; fill-opacity: 0.8; stroke: #1f77b4; stroke-opacity: 0.8"/>
     <use xlink:href="#m3a4c5b0580" x="212.051" y="69.9437" style="fill: #1f77b4; fill-opacity: 0.8; stroke: #1f77b4; stroke-opacity: 0.8"/>
     <use xlink:href="#m3a4c5b0580" x="190.435125" y="138.3046" style="fill: #1f77b4; fill-opacity: 0.8; stroke: #1f77b4; stroke-opacity: 0.8"/>
     <use xlink:href="#m3a4c5b0580" x="254.537375" y="49.205" style="fill: #1f77b4; fill-opacity: 0.8; stroke: #1f77b4; stroke-opacity: 0.8"/>
     <use xlink:href="#m3a4c5b0580" x="253.046625" y="116.7978" style="fill: #1f77b4; fill-opacity: 0.8; stroke: #1f77b4; stroke-opacity: 0.8"/>
    </g>
   </g>
   <g id="PolyCollection_1">
    <path d="M 74.902 91.987918 
L 74.902 232.318811 
L 77.296235 230.357067 
L 79.69047 228.39758 
L 82.084705 226.299273 
L 84.478939 223.877988 
L 86.873174 221.586834 
L 89.267409 219.736145 
L 91.661644 217.566268 
L 94.055879 215.630441 
L 96.450114 213.938985 
L 98.844348 212.235681 
L 101.238583 210.453226 
L 103.632818 208.524046 
L 106.027053 206.685774 
L 108.421288 205.006286 
L 110.815523 203.087116 
L 113.209758 201.350528 
L 115.603992 200.076827 
L 117.998227 198.409805 
L 120.392462 197.076153 
L 122.786697 195.524643 
L 125.180932 194.233232 
L 127.575167 192.811985 
L 129.969402 191.157758 
L 132.363636 189.7584 
L 134.757871 188.355286 
L 137.152106 186.947252 
L 139.546341 185.384525 
L 141.940576 184.124435 
L 144.334811 182.712921 
L 146.729045 181.424174 
L 149.12328 180.019097 
L 151.517515 178.645964 
L 153.91175 177.263592 
L 156.305985 175.881381 
L 158.70022 174.558892 
L 161.094455 173.285063 
L 163.488689 172.131302 
L 165.882924 171.029528 
L 168.277159 169.902778 
L 170.671394 168.530136 
L 173.065629 167.055094 
L 175.459864 165.597061 
L 177.854098 164.460594 
L 180.248333 163.347352 
L 182.642568 162.231978 
L 185.036803 161.109091 
L 187.431038 159.986204 
L 189.825273 158.502324 
L 192.219508 157.37795 
L 194.613742 156.244525 
L 197.007977 155.096264 
L 199.402212 153.761627 
L 201.796447 152.840428 
L 204.190682 151.747023 
L 206.584917 150.629008 
L 208.979152 149.82181 
L 211.373386 148.799242 
L 213.767621 148.019155 
L 216.161856 147.26285 
L 218.556091 146.470679 
L 220.950326 145.551704 
L 223.344561 144.755777 
L 225.738795 143.937283 
L 228.13303 142.821 
L 230.527265 142.024073 
L 232.9215 141.135579 
L 235.315735 140.065871 
L 237.70997 139.022896 
L 240.104205 138.351686 
L 242.498439 137.532386 
L 244.892674 137.314361 
L 247.286909 136.368508 
L 249.681144 135.703752 
L 252.075379 135.237898 
L 254.469614 134.825148 
L 256.863848 134.362395 
L 259.258083 133.652161 
L 261.652318 133.264594 
L 264.046553 133.184454 
L 266.440788 132.799777 
L 268.835023 132.659552 
L 271.229258 132.268895 
L 273.623492 132.089157 
L 276.017727 131.98007 
L 278.411962 131.84516 
L 280.806197 131.703256 
L 283.200432 131.622185 
L 285.594667 131.387659 
L 287.988902 131.276398 
L 290.383136 130.994454 
L 292.777371 130.862173 
L 295.171606 130.85083 
L 297.565841 130.834196 
L 299.960076 130.862528 
L 302.354311 130.728042 
L 304.748545 130.758109 
L 307.14278 130.849672 
L 309.537015 130.958427 
L 311.93125 130.707353 
L 311.93125 16.013592 
L 311.93125 16.013592 
L 309.537015 18.215724 
L 307.14278 20.417856 
L 304.748545 22.216318 
L 302.354311 23.994153 
L 299.960076 26.327475 
L 297.565841 28.136967 
L 295.171606 30.288796 
L 292.777371 32.601926 
L 290.383136 34.766464 
L 287.988902 36.647421 
L 285.594667 38.834239 
L 283.200432 41.023788 
L 280.806197 43.232275 
L 278.411962 45.18304 
L 276.017727 46.999842 
L 273.623492 48.816644 
L 271.229258 50.706157 
L 268.835023 52.99676 
L 266.440788 54.929712 
L 264.046553 56.466121 
L 261.652318 58.630099 
L 259.258083 60.342968 
L 256.863848 62.341572 
L 254.469614 64.447937 
L 252.075379 66.56807 
L 249.681144 68.716658 
L 247.286909 70.851291 
L 244.892674 72.645547 
L 242.498439 75.006709 
L 240.104205 76.874287 
L 237.70997 78.570646 
L 235.315735 80.223167 
L 232.9215 81.603971 
L 230.527265 82.839386 
L 228.13303 84.585749 
L 225.738795 86.153786 
L 223.344561 87.897075 
L 220.950326 89.189066 
L 218.556091 90.184935 
L 216.161856 91.257938 
L 213.767621 92.5981 
L 211.373386 93.41214 
L 208.979152 94.167728 
L 206.584917 94.464922 
L 204.190682 95.667988 
L 201.796447 95.913083 
L 199.402212 97.109944 
L 197.007977 97.906842 
L 194.613742 98.628058 
L 192.219508 99.335464 
L 189.825273 99.957465 
L 187.431038 100.664443 
L 185.036803 101.091405 
L 182.642568 101.291922 
L 180.248333 101.606054 
L 177.854098 101.744922 
L 175.459864 101.6216 
L 173.065629 101.349758 
L 170.671394 101.446092 
L 168.277159 101.562897 
L 165.882924 101.541649 
L 163.488689 101.516892 
L 161.094455 101.299144 
L 158.70022 101.081396 
L 156.305985 100.863648 
L 153.91175 100.645901 
L 151.517515 100.452424 
L 149.12328 101.371339 
L 146.729045 101.629688 
L 144.334811 101.166431 
L 141.940576 100.718596 
L 139.546341 100.72747 
L 137.152106 100.291564 
L 134.757871 99.859087 
L 132.363636 99.592436 
L 129.969402 99.723351 
L 127.575167 99.854265 
L 125.180932 99.416512 
L 122.786697 98.902244 
L 120.392462 98.390109 
L 117.998227 97.877973 
L 115.603992 97.365837 
L 113.209758 96.9548 
L 110.815523 96.729873 
L 108.421288 96.508691 
L 106.027053 96.16371 
L 103.632818 95.666102 
L 101.238583 95.261387 
L 98.844348 95.022054 
L 96.450114 94.786537 
L 94.055879 94.5546 
L 91.661644 94.322663 
L 89.267409 93.826094 
L 86.873174 93.469469 
L 84.478939 93.15823 
L 82.084705 92.440006 
L 79.69047 92.289267 
L 77.296235 92.138593 
L 74.902 91.987918 
z
" clip-path="url(#p75ccdf1a49)" style="fill: #1f77b4; fill-opacity: 0.15"/>
   </g>
   <g id="matplotlib.axis_1">
    <g id="xtick_1">
     <g id="line2d_1">
      <defs>
       <path id="m1b84abebd8" d="M 0 0 
L 0 3.5 
" style="stroke: #000000; stroke-width: 0.8"/>
      </defs>
      <g>
       <use xlink:href="#m1b84abebd8" x="51.05" y="318.04" style="stroke: #000000; stroke-width: 0.8"/>
      </g>
     </g>
     <g id="text_1">
      <!-- 250 -->
      <g transform="translate(41.50625 332.638438) scale(0.1 -0.1)">
       <defs>
        <path id="DejaVuSans-32" d="M 1228 531 
L 3431 531 
L 3431 0 
L 469 0 
L 469 531 
Q 828 903 1448 1529 
Q 2069 2156 2228 2338 
Q 2531 2678 2651 2914 
Q 2772 3150 2772 3378 
Q 2772 3750 2511 3984 
Q 2250 4219 1831 4219 
Q 1534 4219 1204 4116 
Q 875 4013 500 3803 
L 500 4441 
Q 881 4594 1212 4672 
Q 1544 4750 1819 4750 
Q 2544 4750 2975 4387 
Q 3406 4025 3406 3419 
Q 3406 3131 3298 2873 
Q 3191 2616 2906 2266 
Q 2828 2175 2409 1742 
Q 1991 1309 1228 531 
z
" transform="scale(0.015625)"/>
        <path id="DejaVuSans-35" d="M 691 4666 
L 3169 4666 
L 3169 4134 
L 1269 4134 
L 1269 2991 
Q 1406 3038 1543 3061 
Q 1681 3084 1819 3084 
Q 2600 3084 3056 2656 
Q 3513 2228 3513 1497 
Q 3513 744 3044 326 
Q 2575 -91 1722 -91 
Q 1428 -91 1123 -41 
Q 819 9 494 109 
L 494 744 
Q 775 591 1075 516 
Q 1375 441 1709 441 
Q 2250 441 2565 725 
Q 2881 1009 2881 1497 
Q 2881 1984 2565 2268 
Q 2250 2553 1709 2553 
Q 1456 2553 1204 2497 
Q 953 2441 691 2322 
L 691 4666 
z
" transform="scale(0.015625)"/>
        <path id="DejaVuSans-30" d="M 2034 4250 
Q 1547 4250 1301 3770 
Q 1056 3291 1056 2328 
Q 1056 1369 1301 889 
Q 1547 409 2034 409 
Q 2525 409 2770 889 
Q 3016 1369 3016 2328 
Q 3016 3291 2770 3770 
Q 2525 4250 2034 4250 
z
M 2034 4750 
Q 2819 4750 3233 4129 
Q 3647 3509 3647 2328 
Q 3647 1150 3233 529 
Q 2819 -91 2034 -91 
Q 1250 -91 836 529 
Q 422 1150 422 2328 
Q 422 3509 836 4129 
Q 1250 4750 2034 4750 
z
" transform="scale(0.015625)"/>
       </defs>
       <use xlink:href="#DejaVuSans-32"/>
       <use xlink:href="#DejaVuSans-35" x="63.623047"/>
       <use xlink:href="#DejaVuSans-30" x="127.246094"/>
      </g>
     </g>
    </g>
    <g id="xtick_2">
     <g id="line2d_2">
      <g>
       <use xlink:href="#m1b84abebd8" x="88.31875" y="318.04" style="stroke: #000000; stroke-width: 0.8"/>
      </g>
     </g>
     <g id="text_2">
      <!-- 300 -->
      <g transform="translate(78.775 332.638438) scale(0.1 -0.1)">
       <defs>
        <path id="DejaVuSans-33" d="M 2597 2516 
Q 3050 2419 3304 2112 
Q 3559 1806 3559 1356 
Q 3559 666 3084 287 
Q 2609 -91 1734 -91 
Q 1441 -91 1130 -33 
Q 819 25 488 141 
L 488 750 
Q 750 597 1062 519 
Q 1375 441 1716 441 
Q 2309 441 2620 675 
Q 2931 909 2931 1356 
Q 2931 1769 2642 2001 
Q 2353 2234 1838 2234 
L 1294 2234 
L 1294 2753 
L 1863 2753 
Q 2328 2753 2575 2939 
Q 2822 3125 2822 3475 
Q 2822 3834 2567 4026 
Q 2313 4219 1838 4219 
Q 1578 4219 1281 4162 
Q 984 4106 628 3988 
L 628 4550 
Q 988 4650 1302 4700 
Q 1616 4750 1894 4750 
Q 2613 4750 3031 4423 
Q 3450 4097 3450 3541 
Q 3450 3153 3228 2886 
Q 3006 2619 2597 2516 
z
" transform="scale(0.015625)"/>
       </defs>
       <use xlink:href="#DejaVuSans-33"/>
       <use xlink:href="#DejaVuSans-30" x="63.623047"/>
       <use xlink:href="#DejaVuSans-30" x="127.246094"/>
      </g>
     </g>
    </g>
    <g id="xtick_3">
     <g id="line2d_3">
      <g>
       <use xlink:href="#m1b84abebd8" x="125.5875" y="318.04" style="stroke: #000000; stroke-width: 0.8"/>
      </g>
     </g>
     <g id="text_3">
      <!-- 350 -->
      <g transform="translate(116.04375 332.638438) scale(0.1 -0.1)">
       <use xlink:href="#DejaVuSans-33"/>
       <use xlink:href="#DejaVuSans-35" x="63.623047"/>
       <use xlink:href="#DejaVuSans-30" x="127.246094"/>
      </g>
     </g>
    </g>
    <g id="xtick_4">
     <g id="line2d_4">
      <g>
       <use xlink:href="#m1b84abebd8" x="162.85625" y="318.04" style="stroke: #000000; stroke-width: 0.8"/>
      </g>
     </g>
     <g id="text_4">
      <!-- 400 -->
      <g transform="translate(153.3125 332.638438) scale(0.1 -0.1)">
       <defs>
        <path id="DejaVuSans-34" d="M 2419 4116 
L 825 1625 
L 2419 1625 
L 2419 4116 
z
M 2253 4666 
L 3047 4666 
L 3047 1625 
L 3713 1625 
L 3713 1100 
L 3047 1100 
L 3047 0 
L 2419 0 
L 2419 1100 
L 313 1100 
L 313 1709 
L 2253 4666 
z
" transform="scale(0.015625)"/>
       </defs>
       <use xlink:href="#DejaVuSans-34"/>
       <use xlink:href="#DejaVuSans-30" x="63.623047"/>
       <use xlink:href="#DejaVuSans-30" x="127.246094"/>
      </g>
     </g>
    </g>
    <g id="xtick_5">
     <g id="line2d_5">
      <g>
       <use xlink:href="#m1b84abebd8" x="200.125" y="318.04" style="stroke: #000000; stroke-width: 0.8"/>
      </g>
     </g>
     <g id="text_5">
      <!-- 450 -->
      <g transform="translate(190.58125 332.638438) scale(0.1 -0.1)">
       <use xlink:href="#DejaVuSans-34"/>
       <use xlink:href="#DejaVuSans-35" x="63.623047"/>
       <use xlink:href="#DejaVuSans-30" x="127.246094"/>
      </g>
     </g>
    </g>
    <g id="xtick_6">
     <g id="line2d_6">
      <g>
       <use xlink:href="#m1b84abebd8" x="237.39375" y="318.04" style="stroke: #000000; stroke-width: 0.8"/>
      </g>
     </g>
     <g id="text_6">
      <!-- 500 -->
      <g transform="translate(227.85 332.638438) scale(0.1 -0.1)">
       <use xlink:href="#DejaVuSans-35"/>
       <use xlink:href="#DejaVuSans-30" x="63.623047"/>
       <use xlink:href="#DejaVuSans-30" x="127.246094"/>
      </g>
     </g>
    </g>
    <g id="xtick_7">
     <g id="line2d_7">
      <g>
       <use xlink:href="#m1b84abebd8" x="274.6625" y="318.04" style="stroke: #000000; stroke-width: 0.8"/>
      </g>
     </g>
     <g id="text_7">
      <!-- 550 -->
      <g transform="translate(265.11875 332.638438) scale(0.1 -0.1)">
       <use xlink:href="#DejaVuSans-35"/>
       <use xlink:href="#DejaVuSans-35" x="63.623047"/>
       <use xlink:href="#DejaVuSans-30" x="127.246094"/>
      </g>
     </g>
    </g>
    <g id="xtick_8">
     <g id="line2d_8">
      <g>
       <use xlink:href="#m1b84abebd8" x="311.93125" y="318.04" style="stroke: #000000; stroke-width: 0.8"/>
      </g>
     </g>
     <g id="text_8">
      <!-- 600 -->
      <g transform="translate(302.3875 332.638438) scale(0.1 -0.1)">
       <defs>
        <path id="DejaVuSans-36" d="M 2113 2584 
Q 1688 2584 1439 2293 
Q 1191 2003 1191 1497 
Q 1191 994 1439 701 
Q 1688 409 2113 409 
Q 2538 409 2786 701 
Q 3034 994 3034 1497 
Q 3034 2003 2786 2293 
Q 2538 2584 2113 2584 
z
M 3366 4563 
L 3366 3988 
Q 3128 4100 2886 4159 
Q 2644 4219 2406 4219 
Q 1781 4219 1451 3797 
Q 1122 3375 1075 2522 
Q 1259 2794 1537 2939 
Q 1816 3084 2150 3084 
Q 2853 3084 3261 2657 
Q 3669 2231 3669 1497 
Q 3669 778 3244 343 
Q 2819 -91 2113 -91 
Q 1303 -91 875 529 
Q 447 1150 447 2328 
Q 447 3434 972 4092 
Q 1497 4750 2381 4750 
Q 2619 4750 2861 4703 
Q 3103 4656 3366 4563 
z
" transform="scale(0.015625)"/>
       </defs>
       <use xlink:href="#DejaVuSans-36"/>
       <use xlink:href="#DejaVuSans-30" x="63.623047"/>
       <use xlink:href="#DejaVuSans-30" x="127.246094"/>
      </g>
     </g>
    </g>
    <g id="xtick_9">
     <g id="line2d_9">
      <g>
       <use xlink:href="#m1b84abebd8" x="349.2" y="318.04" style="stroke: #000000; stroke-width: 0.8"/>
      </g>
     </g>
     <g id="text_9">
      <!-- 650 -->
      <g transform="translate(339.65625 332.638438) scale(0.1 -0.1)">
       <use xlink:href="#DejaVuSans-36"/>
       <use xlink:href="#DejaVuSans-35" x="63.623047"/>
       <use xlink:href="#DejaVuSans-30" x="127.246094"/>
      </g>
     </g>
    </g>
    <g id="text_10">
     <!-- Forced commit -->
     <g transform="translate(162.940625 346.316563) scale(0.1 -0.1)">
      <defs>
       <path id="DejaVuSans-46" d="M 628 4666 
L 3309 4666 
L 3309 4134 
L 1259 4134 
L 1259 2759 
L 3109 2759 
L 3109 2228 
L 1259 2228 
L 1259 0 
L 628 0 
L 628 4666 
z
" transform="scale(0.015625)"/>
       <path id="DejaVuSans-6f" d="M 1959 3097 
Q 1497 3097 1228 2736 
Q 959 2375 959 1747 
Q 959 1119 1226 758 
Q 1494 397 1959 397 
Q 2419 397 2687 759 
Q 2956 1122 2956 1747 
Q 2956 2369 2687 2733 
Q 2419 3097 1959 3097 
z
M 1959 3584 
Q 2709 3584 3137 3096 
Q 3566 2609 3566 1747 
Q 3566 888 3137 398 
Q 2709 -91 1959 -91 
Q 1206 -91 779 398 
Q 353 888 353 1747 
Q 353 2609 779 3096 
Q 1206 3584 1959 3584 
z
" transform="scale(0.015625)"/>
       <path id="DejaVuSans-72" d="M 2631 2963 
Q 2534 3019 2420 3045 
Q 2306 3072 2169 3072 
Q 1681 3072 1420 2755 
Q 1159 2438 1159 1844 
L 1159 0 
L 581 0 
L 581 3500 
L 1159 3500 
L 1159 2956 
Q 1341 3275 1631 3429 
Q 1922 3584 2338 3584 
Q 2397 3584 2469 3576 
Q 2541 3569 2628 3553 
L 2631 2963 
z
" transform="scale(0.015625)"/>
       <path id="DejaVuSans-63" d="M 3122 3366 
L 3122 2828 
Q 2878 2963 2633 3030 
Q 2388 3097 2138 3097 
Q 1578 3097 1268 2742 
Q 959 2388 959 1747 
Q 959 1106 1268 751 
Q 1578 397 2138 397 
Q 2388 397 2633 464 
Q 2878 531 3122 666 
L 3122 134 
Q 2881 22 2623 -34 
Q 2366 -91 2075 -91 
Q 1284 -91 818 406 
Q 353 903 353 1747 
Q 353 2603 823 3093 
Q 1294 3584 2113 3584 
Q 2378 3584 2631 3529 
Q 2884 3475 3122 3366 
z
" transform="scale(0.015625)"/>
       <path id="DejaVuSans-65" d="M 3597 1894 
L 3597 1613 
L 953 1613 
Q 991 1019 1311 708 
Q 1631 397 2203 397 
Q 2534 397 2845 478 
Q 3156 559 3463 722 
L 3463 178 
Q 3153 47 2828 -22 
Q 2503 -91 2169 -91 
Q 1331 -91 842 396 
Q 353 884 353 1716 
Q 353 2575 817 3079 
Q 1281 3584 2069 3584 
Q 2775 3584 3186 3129 
Q 3597 2675 3597 1894 
z
M 3022 2063 
Q 3016 2534 2758 2815 
Q 2500 3097 2075 3097 
Q 1594 3097 1305 2825 
Q 1016 2553 972 2059 
L 3022 2063 
z
" transform="scale(0.015625)"/>
       <path id="DejaVuSans-64" d="M 2906 2969 
L 2906 4863 
L 3481 4863 
L 3481 0 
L 2906 0 
L 2906 525 
Q 2725 213 2448 61 
Q 2172 -91 1784 -91 
Q 1150 -91 751 415 
Q 353 922 353 1747 
Q 353 2572 751 3078 
Q 1150 3584 1784 3584 
Q 2172 3584 2448 3432 
Q 2725 3281 2906 2969 
z
M 947 1747 
Q 947 1113 1208 752 
Q 1469 391 1925 391 
Q 2381 391 2643 752 
Q 2906 1113 2906 1747 
Q 2906 2381 2643 2742 
Q 2381 3103 1925 3103 
Q 1469 3103 1208 2742 
Q 947 2381 947 1747 
z
" transform="scale(0.015625)"/>
       <path id="DejaVuSans-20" transform="scale(0.015625)"/>
       <path id="DejaVuSans-6d" d="M 3328 2828 
Q 3544 3216 3844 3400 
Q 4144 3584 4550 3584 
Q 5097 3584 5394 3201 
Q 5691 2819 5691 2113 
L 5691 0 
L 5113 0 
L 5113 2094 
Q 5113 2597 4934 2840 
Q 4756 3084 4391 3084 
Q 3944 3084 3684 2787 
Q 3425 2491 3425 1978 
L 3425 0 
L 2847 0 
L 2847 2094 
Q 2847 2600 2669 2842 
Q 2491 3084 2119 3084 
Q 1678 3084 1418 2786 
Q 1159 2488 1159 1978 
L 1159 0 
L 581 0 
L 581 3500 
L 1159 3500 
L 1159 2956 
Q 1356 3278 1631 3431 
Q 1906 3584 2284 3584 
Q 2666 3584 2933 3390 
Q 3200 3197 3328 2828 
z
" transform="scale(0.015625)"/>
       <path id="DejaVuSans-69" d="M 603 3500 
L 1178 3500 
L 1178 0 
L 603 0 
L 603 3500 
z
M 603 4863 
L 1178 4863 
L 1178 4134 
L 603 4134 
L 603 4863 
z
" transform="scale(0.015625)"/>
       <path id="DejaVuSans-74" d="M 1172 4494 
L 1172 3500 
L 2356 3500 
L 2356 3053 
L 1172 3053 
L 1172 1153 
Q 1172 725 1289 603 
Q 1406 481 1766 481 
L 2356 481 
L 2356 0 
L 1766 0 
Q 1100 0 847 248 
Q 594 497 594 1153 
L 594 3053 
L 172 3053 
L 172 3500 
L 594 3500 
L 594 4494 
L 1172 4494 
z
" transform="scale(0.015625)"/>
      </defs>
      <use xlink:href="#DejaVuSans-46"/>
      <use xlink:href="#DejaVuSans-6f" x="53.894531"/>
      <use xlink:href="#DejaVuSans-72" x="115.076172"/>
      <use xlink:href="#DejaVuSans-63" x="153.939453"/>
      <use xlink:href="#DejaVuSans-65" x="208.919922"/>
      <use xlink:href="#DejaVuSans-64" x="270.443359"/>
      <use xlink:href="#DejaVuSans-20" x="333.919922"/>
      <use xlink:href="#DejaVuSans-63" x="365.707031"/>
      <use xlink:href="#DejaVuSans-6f" x="420.6875"/>
      <use xlink:href="#DejaVuSans-6d" x="481.869141"/>
      <use xlink:href="#DejaVuSans-6d" x="579.28125"/>
      <use xlink:href="#DejaVuSans-69" x="676.693359"/>
      <use xlink:href="#DejaVuSans-74" x="704.476562"/>
     </g>
    </g>
   </g>
   <g id="matplotlib.axis_2">
    <g id="ytick_1">
     <g id="line2d_10">
      <defs>
       <path id="m58dfc889a8" d="M 0 0 
L -3.5 0 
" style="stroke: #000000; stroke-width: 0.8"/>
      </defs>
      <g>
       <use xlink:href="#m58dfc889a8" x="51.05" y="318.04" style="stroke: #000000; stroke-width: 0.8"/>
      </g>
     </g>
     <g id="text_11">
      <!-- 250 -->
      <g transform="translate(24.9625 321.839219) scale(0.1 -0.1)">
       <use xlink:href="#DejaVuSans-32"/>
       <use xlink:href="#DejaVuSans-35" x="63.623047"/>
       <use xlink:href="#DejaVuSans-30" x="127.246094"/>
      </g>
     </g>
    </g>
    <g id="ytick_2">
     <g id="line2d_11">
      <g>
       <use xlink:href="#m58dfc889a8" x="51.05" y="279.635" style="stroke: #000000; stroke-width: 0.8"/>
      </g>
     </g>
     <g id="text_12">
      <!-- 300 -->
      <g transform="translate(24.9625 283.434219) scale(0.1 -0.1)">
       <use xlink:href="#DejaVuSans-33"/>
       <use xlink:href="#DejaVuSans-30" x="63.623047"/>
       <use xlink:href="#DejaVuSans-30" x="127.246094"/>
      </g>
     </g>
    </g>
    <g id="ytick_3">
     <g id="line2d_12">
      <g>
       <use xlink:href="#m58dfc889a8" x="51.05" y="241.23" style="stroke: #000000; stroke-width: 0.8"/>
      </g>
     </g>
     <g id="text_13">
      <!-- 350 -->
      <g transform="translate(24.9625 245.029219) scale(0.1 -0.1)">
       <use xlink:href="#DejaVuSans-33"/>
       <use xlink:href="#DejaVuSans-35" x="63.623047"/>
       <use xlink:href="#DejaVuSans-30" x="127.246094"/>
      </g>
     </g>
    </g>
    <g id="ytick_4">
     <g id="line2d_13">
      <g>
       <use xlink:href="#m58dfc889a8" x="51.05" y="202.825" style="stroke: #000000; stroke-width: 0.8"/>
      </g>
     </g>
     <g id="text_14">
      <!-- 400 -->
      <g transform="translate(24.9625 206.624219) scale(0.1 -0.1)">
       <use xlink:href="#DejaVuSans-34"/>
       <use xlink:href="#DejaVuSans-30" x="63.623047"/>
       <use xlink:href="#DejaVuSans-30" x="127.246094"/>
      </g>
     </g>
    </g>
    <g id="ytick_5">
     <g id="line2d_14">
      <g>
       <use xlink:href="#m58dfc889a8" x="51.05" y="164.42" style="stroke: #000000; stroke-width: 0.8"/>
      </g>
     </g>
     <g id="text_15">
      <!-- 450 -->
      <g transform="translate(24.9625 168.219219) scale(0.1 -0.1)">
       <use xlink:href="#DejaVuSans-34"/>
       <use xlink:href="#DejaVuSans-35" x="63.623047"/>
       <use xlink:href="#DejaVuSans-30" x="127.246094"/>
      </g>
     </g>
    </g>
    <g id="ytick_6">
     <g id="line2d_15">
      <g>
       <use xlink:href="#m58dfc889a8" x="51.05" y="126.015" style="stroke: #000000; stroke-width: 0.8"/>
      </g>
     </g>
     <g id="text_16">
      <!-- 500 -->
      <g transform="translate(24.9625 129.814219) scale(0.1 -0.1)">
       <use xlink:href="#DejaVuSans-35"/>
       <use xlink:href="#DejaVuSans-30" x="63.623047"/>
       <use xlink:href="#DejaVuSans-30" x="127.246094"/>
      </g>
     </g>
    </g>
    <g id="ytick_7">
     <g id="line2d_16">
      <g>
       <use xlink:href="#m58dfc889a8" x="51.05" y="87.61" style="stroke: #000000; stroke-width: 0.8"/>
      </g>
     </g>
     <g id="text_17">
      <!-- 550 -->
      <g transform="translate(24.9625 91.409219) scale(0.1 -0.1)">
       <use xlink:href="#DejaVuSans-35"/>
       <use xlink:href="#DejaVuSans-35" x="63.623047"/>
       <use xlink:href="#DejaVuSans-30" x="127.246094"/>
      </g>
     </g>
    </g>
    <g id="ytick_8">
     <g id="line2d_17">
      <g>
       <use xlink:href="#m58dfc889a8" x="51.05" y="49.205" style="stroke: #000000; stroke-width: 0.8"/>
      </g>
     </g>
     <g id="text_18">
      <!-- 600 -->
      <g transform="translate(24.9625 53.004219) scale(0.1 -0.1)">
       <use xlink:href="#DejaVuSans-36"/>
       <use xlink:href="#DejaVuSans-30" x="63.623047"/>
       <use xlink:href="#DejaVuSans-30" x="127.246094"/>
      </g>
     </g>
    </g>
    <g id="ytick_9">
     <g id="line2d_18">
      <g>
       <use xlink:href="#m58dfc889a8" x="51.05" y="10.8" style="stroke: #000000; stroke-width: 0.8"/>
      </g>
     </g>
     <g id="text_19">
      <!-- 650 -->
      <g transform="translate(24.9625 14.599219) scale(0.1 -0.1)">
       <use xlink:href="#DejaVuSans-36"/>
       <use xlink:href="#DejaVuSans-35" x="63.623047"/>
       <use xlink:href="#DejaVuSans-30" x="127.246094"/>
      </g>
     </g>
    </g>
    <g id="text_20">
     <!-- Voting commit -->
     <g transform="translate(18.882812 200.691875) rotate(-90) scale(0.1 -0.1)">
      <defs>
       <path id="DejaVuSans-56" d="M 1831 0 
L 50 4666 
L 709 4666 
L 2188 738 
L 3669 4666 
L 4325 4666 
L 2547 0 
L 1831 0 
z
" transform="scale(0.015625)"/>
       <path id="DejaVuSans-6e" d="M 3513 2113 
L 3513 0 
L 2938 0 
L 2938 2094 
Q 2938 2591 2744 2837 
Q 2550 3084 2163 3084 
Q 1697 3084 1428 2787 
Q 1159 2491 1159 1978 
L 1159 0 
L 581 0 
L 581 3500 
L 1159 3500 
L 1159 2956 
Q 1366 3272 1645 3428 
Q 1925 3584 2291 3584 
Q 2894 3584 3203 3211 
Q 3513 2838 3513 2113 
z
" transform="scale(0.015625)"/>
       <path id="DejaVuSans-67" d="M 2906 1791 
Q 2906 2416 2648 2759 
Q 2391 3103 1925 3103 
Q 1463 3103 1205 2759 
Q 947 2416 947 1791 
Q 947 1169 1205 825 
Q 1463 481 1925 481 
Q 2391 481 2648 825 
Q 2906 1169 2906 1791 
z
M 3481 434 
Q 3481 -459 3084 -895 
Q 2688 -1331 1869 -1331 
Q 1566 -1331 1297 -1286 
Q 1028 -1241 775 -1147 
L 775 -588 
Q 1028 -725 1275 -790 
Q 1522 -856 1778 -856 
Q 2344 -856 2625 -561 
Q 2906 -266 2906 331 
L 2906 616 
Q 2728 306 2450 153 
Q 2172 0 1784 0 
Q 1141 0 747 490 
Q 353 981 353 1791 
Q 353 2603 747 3093 
Q 1141 3584 1784 3584 
Q 2172 3584 2450 3431 
Q 2728 3278 2906 2969 
L 2906 3500 
L 3481 3500 
L 3481 434 
z
" transform="scale(0.015625)"/>
      </defs>
      <use xlink:href="#DejaVuSans-56"/>
      <use xlink:href="#DejaVuSans-6f" x="60.658203"/>
      <use xlink:href="#DejaVuSans-74" x="121.839844"/>
      <use xlink:href="#DejaVuSans-69" x="161.048828"/>
      <use xlink:href="#DejaVuSans-6e" x="188.832031"/>
      <use xlink:href="#DejaVuSans-67" x="252.210938"/>
      <use xlink:href="#DejaVuSans-20" x="315.6875"/>
      <use xlink:href="#DejaVuSans-63" x="347.474609"/>
      <use xlink:href="#DejaVuSans-6f" x="402.455078"/>
      <use xlink:href="#DejaVuSans-6d" x="463.636719"/>
      <use xlink:href="#DejaVuSans-6d" x="561.048828"/>
      <use xlink:href="#DejaVuSans-69" x="658.460938"/>
      <use xlink:href="#DejaVuSans-74" x="686.244141"/>
     </g>
    </g>
   </g>
   <g id="line2d_19">
    <path d="M 74.902 174.778303 
L 77.296235 173.87762 
L 79.69047 172.976936 
L 82.084705 172.076253 
L 84.478939 171.17557 
L 86.873174 170.274887 
L 89.267409 169.374204 
L 91.661644 168.473521 
L 94.055879 167.572837 
L 96.450114 166.672154 
L 98.844348 165.771471 
L 101.238583 164.870788 
L 103.632818 163.970105 
L 106.027053 163.069422 
L 108.421288 162.168738 
L 110.815523 161.268055 
L 113.209758 160.367372 
L 115.603992 159.466689 
L 117.998227 158.566006 
L 120.392462 157.665323 
L 122.786697 156.764639 
L 125.180932 155.863956 
L 127.575167 154.963273 
L 129.969402 154.06259 
L 132.363636 153.161907 
L 134.757871 152.261224 
L 137.152106 151.36054 
L 139.546341 150.459857 
L 141.940576 149.559174 
L 144.334811 148.658491 
L 146.729045 147.757808 
L 149.12328 146.857125 
L 151.517515 145.956441 
L 153.91175 145.055758 
L 156.305985 144.155075 
L 158.70022 143.254392 
L 161.094455 142.353709 
L 163.488689 141.453026 
L 165.882924 140.552342 
L 168.277159 139.651659 
L 170.671394 138.750976 
L 173.065629 137.850293 
L 175.459864 136.94961 
L 177.854098 136.048927 
L 180.248333 135.148243 
L 182.642568 134.24756 
L 185.036803 133.346877 
L 187.431038 132.446194 
L 189.825273 131.545511 
L 192.219508 130.644828 
L 194.613742 129.744144 
L 197.007977 128.843461 
L 199.402212 127.942778 
L 201.796447 127.042095 
L 204.190682 126.141412 
L 206.584917 125.240729 
L 208.979152 124.340045 
L 211.373386 123.439362 
L 213.767621 122.538679 
L 216.161856 121.637996 
L 218.556091 120.737313 
L 220.950326 119.83663 
L 223.344561 118.935946 
L 225.738795 118.035263 
L 228.13303 117.13458 
L 230.527265 116.233897 
L 232.9215 115.333214 
L 235.315735 114.432531 
L 237.70997 113.531847 
L 240.104205 112.631164 
L 242.498439 111.730481 
L 244.892674 110.829798 
L 247.286909 109.929115 
L 249.681144 109.028432 
L 252.075379 108.127748 
L 254.469614 107.227065 
L 256.863848 106.326382 
L 259.258083 105.425699 
L 261.652318 104.525016 
L 264.046553 103.624333 
L 266.440788 102.723649 
L 268.835023 101.822966 
L 271.229258 100.922283 
L 273.623492 100.0216 
L 276.017727 99.120917 
L 278.411962 98.220234 
L 280.806197 97.31955 
L 283.200432 96.418867 
L 285.594667 95.518184 
L 287.988902 94.617501 
L 290.383136 93.716818 
L 292.777371 92.816135 
L 295.171606 91.915451 
L 297.565841 91.014768 
L 299.960076 90.114085 
L 302.354311 89.213402 
L 304.748545 88.312719 
L 307.14278 87.412036 
L 309.537015 86.511352 
L 311.93125 85.610669 
" clip-path="url(#p75ccdf1a49)" style="fill: none; stroke: #1f77b4; stroke-width: 2.25; stroke-linecap: square"/>
   </g>
   <g id="patch_3">
    <path d="M 51.05 318.04 
L 51.05 10.8 
" style="fill: none; stroke: #000000; stroke-width: 0.8; stroke-linejoin: miter; stroke-linecap: square"/>
   </g>
   <g id="patch_4">
    <path d="M 51.05 318.04 
L 349.2 318.04 
" style="fill: none; stroke: #000000; stroke-width: 0.8; stroke-linejoin: miter; stroke-linecap: square"/>
   </g>
  </g>
 </g>
 <defs>
  <clipPath id="p75ccdf1a49">
   <rect x="51.05" y="10.8" width="298.15" height="307.24"/>
  </clipPath>
 </defs>
</svg>
