<?xml version="1.0" encoding="utf-8" standalone="no"?>
<!DOCTYPE svg PUBLIC "-//W3C//DTD SVG 1.1//EN"
  "http://www.w3.org/Graphics/SVG/1.1/DTD/svg11.dtd">
<svg xmlns:xlink="http://www.w3.org/1999/xlink" width="470.43pt" height="360pt" viewBox="0 0 470.43 360" xmlns="http://www.w3.org/2000/svg" version="1.1">
 <metadata>
  <rdf:RDF xmlns:dc="http://purl.org/dc/elements/1.1/" xmlns:cc="http://creativecommons.org/ns#" xmlns:rdf="http://www.w3.org/1999/02/22-rdf-syntax-ns#">
   <cc:Work>
    <dc:type rdf:resource="http://purl.org/dc/dcmitype/StillImage"/>
    <dc:date>2023-03-28T15:43:40.870638</dc:date>
    <dc:format>image/svg+xml</dc:format>
    <dc:creator>
     <cc:Agent>
      <dc:title>Matplotlib v3.7.1, https://matplotlib.org/</dc:title>
     </cc:Agent>
    </dc:creator>
   </cc:Work>
  </rdf:RDF>
 </metadata>
 <defs>
  <style type="text/css">*{stroke-linejoin: round; stroke-linecap: butt}</style>
 </defs>
 <g id="figure_1">
  <g id="patch_1">
   <path d="M 0 360 
L 470.43 360 
L 470.43 0 
L 0 0 
z
" style="fill: #ffffff"/>
  </g>
  <g id="axes_1">
   <g id="patch_2">
    <path d="M 58.359455 318.04 
L 355.2957 318.04 
L 355.2957 10.8 
L 58.359455 10.8 
z
" style="fill: #ffffff"/>
   </g>
   <g id="PathCollection_1">
    <defs>
     <path id="m12f35be1c1" d="M 0 3 
C 0.795609 3 1.55874 2.683901 2.12132 2.12132 
C 2.683901 1.55874 3 0.795609 3 0 
C 3 -0.795609 2.683901 -1.55874 2.12132 -2.12132 
C 1.55874 -2.683901 0.795609 -3 0 -3 
C -0.795609 -3 -1.55874 -2.683901 -2.12132 -2.12132 
C -2.683901 -1.55874 -3 -0.795609 -3 0 
C -3 0.795609 -2.683901 1.55874 -2.12132 2.12132 
C -1.55874 2.683901 -0.795609 3 0 3 
z
" style="stroke: #1f77b4; stroke-opacity: 0.8"/>
    </defs>
    <g clip-path="url(#p7cdf779fa1)">
     <use xlink:href="#m12f35be1c1" x="334.085968" y="99.8996" style="fill: #1f77b4; fill-opacity: 0.8; stroke: #1f77b4; stroke-opacity: 0.8"/>
     <use xlink:href="#m12f35be1c1" x="334.085968" y="99.8996" style="fill: #1f77b4; fill-opacity: 0.8; stroke: #1f77b4; stroke-opacity: 0.8"/>
     <use xlink:href="#m12f35be1c1" x="82.114355" y="176.09512" style="fill: #1f77b4; fill-opacity: 0.8; stroke: #1f77b4; stroke-opacity: 0.8"/>
     <use xlink:href="#m12f35be1c1" x="82.114355" y="176.09512" style="fill: #1f77b4; fill-opacity: 0.8; stroke: #1f77b4; stroke-opacity: 0.8"/>
     <use xlink:href="#m12f35be1c1" x="213.614692" y="127.5512" style="fill: #1f77b4; fill-opacity: 0.8; stroke: #1f77b4; stroke-opacity: 0.8"/>
     <use xlink:href="#m12f35be1c1" x="213.614692" y="127.5512" style="fill: #1f77b4; fill-opacity: 0.8; stroke: #1f77b4; stroke-opacity: 0.8"/>
     <use xlink:href="#m12f35be1c1" x="102.475697" y="101.927384" style="fill: #1f77b4; fill-opacity: 0.8; stroke: #1f77b4; stroke-opacity: 0.8"/>
     <use xlink:href="#m12f35be1c1" x="102.475697" y="101.927384" style="fill: #1f77b4; fill-opacity: 0.8; stroke: #1f77b4; stroke-opacity: 0.8"/>
     <use xlink:href="#m12f35be1c1" x="64.29818" y="191.641464" style="fill: #1f77b4; fill-opacity: 0.8; stroke: #1f77b4; stroke-opacity: 0.8"/>
     <use xlink:href="#m12f35be1c1" x="64.29818" y="191.641464" style="fill: #1f77b4; fill-opacity: 0.8; stroke: #1f77b4; stroke-opacity: 0.8"/>
     <use xlink:href="#m12f35be1c1" x="218.705027" y="186.909968" style="fill: #1f77b4; fill-opacity: 0.8; stroke: #1f77b4; stroke-opacity: 0.8"/>
     <use xlink:href="#m12f35be1c1" x="218.705027" y="186.909968" style="fill: #1f77b4; fill-opacity: 0.8; stroke: #1f77b4; stroke-opacity: 0.8"/>
     <use xlink:href="#m12f35be1c1" x="220.401806" y="100.452632" style="fill: #1f77b4; fill-opacity: 0.8; stroke: #1f77b4; stroke-opacity: 0.8"/>
     <use xlink:href="#m12f35be1c1" x="220.401806" y="100.452632" style="fill: #1f77b4; fill-opacity: 0.8; stroke: #1f77b4; stroke-opacity: 0.8"/>
     <use xlink:href="#m12f35be1c1" x="195.798517" y="187.278656" style="fill: #1f77b4; fill-opacity: 0.8; stroke: #1f77b4; stroke-opacity: 0.8"/>
     <use xlink:href="#m12f35be1c1" x="195.798517" y="187.278656" style="fill: #1f77b4; fill-opacity: 0.8; stroke: #1f77b4; stroke-opacity: 0.8"/>
     <use xlink:href="#m12f35be1c1" x="268.759994" y="131.23808" style="fill: #1f77b4; fill-opacity: 0.8; stroke: #1f77b4; stroke-opacity: 0.8"/>
     <use xlink:href="#m12f35be1c1" x="268.759994" y="131.23808" style="fill: #1f77b4; fill-opacity: 0.8; stroke: #1f77b4; stroke-opacity: 0.8"/>
     <use xlink:href="#m12f35be1c1" x="267.063216" y="142.29872" style="fill: #1f77b4; fill-opacity: 0.8; stroke: #1f77b4; stroke-opacity: 0.8"/>
     <use xlink:href="#m12f35be1c1" x="267.063216" y="142.29872" style="fill: #1f77b4; fill-opacity: 0.8; stroke: #1f77b4; stroke-opacity: 0.8"/>
    </g>
   </g>
   <g id="PolyCollection_1">
    <path d="M 64.29818 136.704992 
L 64.29818 196.810888 
L 67.023309 195.999239 
L 69.748438 195.187591 
L 72.473567 194.353535 
L 75.198697 193.550321 
L 77.923826 192.747244 
L 80.648955 191.944167 
L 83.374084 191.138584 
L 86.099213 190.329245 
L 88.824342 189.519568 
L 91.549472 188.682849 
L 94.274601 187.843931 
L 96.99973 187.005014 
L 99.724859 186.166097 
L 102.449988 185.327179 
L 105.175118 184.488861 
L 107.900247 183.728021 
L 110.625376 182.991011 
L 113.350505 182.235463 
L 116.075634 181.447546 
L 118.800763 180.686871 
L 121.525893 179.901048 
L 124.251022 179.133242 
L 126.976151 178.300888 
L 129.70128 177.49556 
L 132.426409 176.693731 
L 135.151538 175.891902 
L 137.876668 175.086682 
L 140.601797 174.265091 
L 143.326926 173.451933 
L 146.052055 172.67478 
L 148.777184 171.947548 
L 151.502313 171.178187 
L 154.227443 170.443136 
L 156.952572 169.629053 
L 159.677701 168.673681 
L 162.40283 167.860563 
L 165.127959 167.054933 
L 167.853089 166.254163 
L 170.578218 165.517765 
L 173.303347 164.736939 
L 176.028476 164.084292 
L 178.753605 163.432362 
L 181.478734 162.779143 
L 184.203864 162.127873 
L 186.928993 161.405601 
L 189.654122 160.655168 
L 192.379251 159.933286 
L 195.10438 159.298886 
L 197.829509 158.659955 
L 200.554639 157.901095 
L 203.279768 157.566803 
L 206.004897 156.918218 
L 208.730026 156.236197 
L 211.455155 155.409368 
L 214.180285 154.586379 
L 216.905414 154.088476 
L 219.630543 153.377123 
L 222.355672 152.820715 
L 225.080801 152.424548 
L 227.80593 152.108536 
L 230.53106 151.607464 
L 233.256189 151.315853 
L 235.981318 151.060976 
L 238.706447 150.814616 
L 241.431576 150.559161 
L 244.156705 150.274353 
L 246.881835 150.022094 
L 249.606964 149.72187 
L 252.332093 149.570929 
L 255.057222 149.280939 
L 257.782351 149.092575 
L 260.50748 148.68655 
L 263.23261 148.541705 
L 265.957739 148.353432 
L 268.682868 148.108375 
L 271.407997 147.824299 
L 274.133126 147.224085 
L 276.858256 147.368939 
L 279.583385 147.114777 
L 282.308514 146.878125 
L 285.033643 146.68416 
L 287.758772 146.453483 
L 290.483901 146.196316 
L 293.209031 145.953439 
L 295.93416 145.795534 
L 298.659289 145.648852 
L 301.384418 145.369368 
L 304.109547 145.282719 
L 306.834676 145.192983 
L 309.559806 145.103246 
L 312.284935 145.01351 
L 315.010064 144.923774 
L 317.735193 144.754566 
L 320.460322 144.554061 
L 323.185452 144.221255 
L 325.910581 144.15169 
L 328.63571 143.956662 
L 331.360839 143.761635 
L 334.085968 143.566608 
L 334.085968 100.841934 
L 334.085968 100.841934 
L 331.360839 101.594653 
L 328.63571 102.354765 
L 325.910581 103.114877 
L 323.185452 103.875686 
L 320.460322 104.639402 
L 317.735193 105.403118 
L 315.010064 106.166833 
L 312.284935 106.987427 
L 309.559806 107.735987 
L 306.834676 108.45087 
L 304.109547 109.202467 
L 301.384418 109.968571 
L 298.659289 110.729272 
L 295.93416 111.374801 
L 293.209031 111.96557 
L 290.483901 112.541647 
L 287.758772 113.261808 
L 285.033643 113.937497 
L 282.308514 114.428286 
L 279.583385 115.017217 
L 276.858256 115.618755 
L 274.133126 116.256089 
L 271.407997 116.982498 
L 268.682868 117.709349 
L 265.957739 118.304609 
L 263.23261 118.88961 
L 260.50748 119.546547 
L 257.782351 120.218726 
L 255.057222 120.697693 
L 252.332093 121.221434 
L 249.606964 121.663647 
L 246.881835 122.233521 
L 244.156705 122.717303 
L 241.431576 123.221972 
L 238.706447 123.542937 
L 235.981318 123.966156 
L 233.256189 124.703877 
L 230.53106 125.083398 
L 227.80593 125.531408 
L 225.080801 126.12562 
L 222.355672 126.480176 
L 219.630543 126.783275 
L 216.905414 127.163275 
L 214.180285 127.548551 
L 211.455155 127.931749 
L 208.730026 128.334495 
L 206.004897 128.663627 
L 203.279768 129.088937 
L 200.554639 129.457429 
L 197.829509 129.649918 
L 195.10438 130.029253 
L 192.379251 130.508562 
L 189.654122 130.976926 
L 186.928993 131.147361 
L 184.203864 131.44168 
L 181.478734 131.798874 
L 178.753605 132.15233 
L 176.028476 132.506746 
L 173.303347 132.85873 
L 170.578218 133.215469 
L 167.853089 133.546149 
L 165.127959 133.70462 
L 162.40283 133.85756 
L 159.677701 133.98145 
L 156.952572 134.178196 
L 154.227443 134.241595 
L 151.502313 134.459651 
L 148.777184 134.577093 
L 146.052055 134.600799 
L 143.326926 134.70349 
L 140.601797 134.962791 
L 137.876668 135.169196 
L 135.151538 135.104676 
L 132.426409 135.180861 
L 129.70128 135.295601 
L 126.976151 135.087902 
L 124.251022 135.154633 
L 121.525893 135.221364 
L 118.800763 135.293764 
L 116.075634 135.367213 
L 113.350505 135.440662 
L 110.625376 135.510555 
L 107.900247 135.573014 
L 105.175118 135.635473 
L 102.449988 135.702234 
L 99.724859 135.771267 
L 96.99973 135.840299 
L 94.274601 135.909332 
L 91.549472 135.978364 
L 88.824342 136.050665 
L 86.099213 136.12454 
L 83.374084 136.175189 
L 80.648955 136.194292 
L 77.923826 136.213394 
L 75.198697 136.232497 
L 72.473567 136.365464 
L 69.748438 136.559733 
L 67.023309 136.630849 
L 64.29818 136.704992 
z
" clip-path="url(#p7cdf779fa1)" style="fill: #1f77b4; fill-opacity: 0.15"/>
   </g>
   <g id="PathCollection_2">
    <defs>
     <path id="mcc91bbc40b" d="M 0 3 
C 0.795609 3 1.55874 2.683901 2.12132 2.12132 
C 2.683901 1.55874 3 0.795609 3 0 
C 3 -0.795609 2.683901 -1.55874 2.12132 -2.12132 
C 1.55874 -2.683901 0.795609 -3 0 -3 
C -0.795609 -3 -1.55874 -2.683901 -2.12132 -2.12132 
C -2.683901 -1.55874 -3 -0.795609 -3 0 
C -3 0.795609 -2.683901 1.55874 -2.12132 2.12132 
C -1.55874 2.683901 -0.795609 3 0 3 
z
" style="stroke: #ff7f0e; stroke-opacity: 0.8"/>
    </defs>
    <g clip-path="url(#p7cdf779fa1)">
     <use xlink:href="#mcc91bbc40b" x="249.247041" y="43.98192" style="fill: #ff7f0e; fill-opacity: 0.8; stroke: #ff7f0e; stroke-opacity: 0.8"/>
     <use xlink:href="#mcc91bbc40b" x="249.247041" y="43.98192" style="fill: #ff7f0e; fill-opacity: 0.8; stroke: #ff7f0e; stroke-opacity: 0.8"/>
     <use xlink:href="#mcc91bbc40b" x="289.969726" y="163.313936" style="fill: #ff7f0e; fill-opacity: 0.8; stroke: #ff7f0e; stroke-opacity: 0.8"/>
     <use xlink:href="#mcc91bbc40b" x="289.969726" y="163.313936" style="fill: #ff7f0e; fill-opacity: 0.8; stroke: #ff7f0e; stroke-opacity: 0.8"/>
     <use xlink:href="#mcc91bbc40b" x="207.675967" y="244.486744" style="fill: #ff7f0e; fill-opacity: 0.8; stroke: #ff7f0e; stroke-opacity: 0.8"/>
     <use xlink:href="#mcc91bbc40b" x="207.675967" y="244.486744" style="fill: #ff7f0e; fill-opacity: 0.8; stroke: #ff7f0e; stroke-opacity: 0.8"/>
     <use xlink:href="#mcc91bbc40b" x="168.65006" y="217.87976" style="fill: #ff7f0e; fill-opacity: 0.8; stroke: #ff7f0e; stroke-opacity: 0.8"/>
     <use xlink:href="#mcc91bbc40b" x="168.65006" y="217.87976" style="fill: #ff7f0e; fill-opacity: 0.8; stroke: #ff7f0e; stroke-opacity: 0.8"/>
     <use xlink:href="#mcc91bbc40b" x="135.562879" y="74.583024" style="fill: #ff7f0e; fill-opacity: 0.8; stroke: #ff7f0e; stroke-opacity: 0.8"/>
     <use xlink:href="#mcc91bbc40b" x="135.562879" y="74.583024" style="fill: #ff7f0e; fill-opacity: 0.8; stroke: #ff7f0e; stroke-opacity: 0.8"/>
     <use xlink:href="#mcc91bbc40b" x="245.853484" y="226.359584" style="fill: #ff7f0e; fill-opacity: 0.8; stroke: #ff7f0e; stroke-opacity: 0.8"/>
     <use xlink:href="#mcc91bbc40b" x="245.853484" y="226.359584" style="fill: #ff7f0e; fill-opacity: 0.8; stroke: #ff7f0e; stroke-opacity: 0.8"/>
     <use xlink:href="#mcc91bbc40b" x="311.179458" y="81.035064" style="fill: #ff7f0e; fill-opacity: 0.8; stroke: #ff7f0e; stroke-opacity: 0.8"/>
     <use xlink:href="#mcc91bbc40b" x="311.179458" y="81.035064" style="fill: #ff7f0e; fill-opacity: 0.8; stroke: #ff7f0e; stroke-opacity: 0.8"/>
     <use xlink:href="#mcc91bbc40b" x="235.672813" y="131.422424" style="fill: #ff7f0e; fill-opacity: 0.8; stroke: #ff7f0e; stroke-opacity: 0.8"/>
     <use xlink:href="#mcc91bbc40b" x="235.672813" y="131.422424" style="fill: #ff7f0e; fill-opacity: 0.8; stroke: #ff7f0e; stroke-opacity: 0.8"/>
     <use xlink:href="#mcc91bbc40b" x="334.085968" y="80.420584" style="fill: #ff7f0e; fill-opacity: 0.8; stroke: #ff7f0e; stroke-opacity: 0.8"/>
     <use xlink:href="#mcc91bbc40b" x="334.085968" y="80.420584" style="fill: #ff7f0e; fill-opacity: 0.8; stroke: #ff7f0e; stroke-opacity: 0.8"/>
     <use xlink:href="#mcc91bbc40b" x="259.427712" y="231.644112" style="fill: #ff7f0e; fill-opacity: 0.8; stroke: #ff7f0e; stroke-opacity: 0.8"/>
     <use xlink:href="#mcc91bbc40b" x="259.427712" y="231.644112" style="fill: #ff7f0e; fill-opacity: 0.8; stroke: #ff7f0e; stroke-opacity: 0.8"/>
    </g>
   </g>
   <g id="PolyCollection_2">
    <path d="M 135.562879 114.916499 
L 135.562879 274.58235 
L 137.568162 272.662269 
L 139.573446 270.74199 
L 141.57873 268.945267 
L 143.584014 267.269204 
L 145.589297 265.59314 
L 147.594581 263.821049 
L 149.599865 261.741239 
L 151.605149 259.767101 
L 153.610432 257.981499 
L 155.615716 256.195896 
L 157.621 254.410294 
L 159.626283 252.623769 
L 161.631567 250.825494 
L 163.636851 249.027219 
L 165.642135 247.228943 
L 167.647418 245.371627 
L 169.652702 243.624725 
L 171.657986 241.859678 
L 173.66327 240.072066 
L 175.668553 238.284454 
L 177.673837 236.496842 
L 179.679121 234.895442 
L 181.684405 232.921618 
L 183.689688 231.163049 
L 185.694972 229.553533 
L 187.700256 227.91248 
L 189.705539 226.170144 
L 191.710823 224.421976 
L 193.716107 222.648255 
L 195.721391 220.92867 
L 197.726674 219.172082 
L 199.731958 217.100458 
L 201.737242 215.251192 
L 203.742526 213.457043 
L 205.747809 211.759136 
L 207.753093 210.096024 
L 209.758377 208.584603 
L 211.763661 207.145341 
L 213.768944 206.128295 
L 215.774228 204.464213 
L 217.779512 203.086516 
L 219.784795 201.486374 
L 221.790079 200.137905 
L 223.795363 199.039697 
L 225.800647 197.252768 
L 227.80593 195.34374 
L 229.811214 193.738745 
L 231.816498 192.621154 
L 233.821782 191.297141 
L 235.827065 190.641928 
L 237.832349 189.291663 
L 239.837633 187.438032 
L 241.842917 185.962205 
L 243.8482 184.901894 
L 245.853484 183.000973 
L 247.858768 182.424984 
L 249.864051 182.127523 
L 251.869335 181.117155 
L 253.874619 180.546229 
L 255.879903 179.398031 
L 257.885186 178.300436 
L 259.89047 177.936313 
L 261.895754 177.843482 
L 263.901038 177.051821 
L 265.906321 177.378057 
L 267.911605 177.441162 
L 269.916889 177.043254 
L 271.922173 176.285682 
L 273.927456 175.68582 
L 275.93274 175.810014 
L 277.938024 175.923749 
L 279.943307 176.087014 
L 281.948591 176.370884 
L 283.953875 176.562153 
L 285.959159 176.893431 
L 287.964442 177.303827 
L 289.969726 177.501241 
L 291.97501 177.793126 
L 293.980294 177.60014 
L 295.985577 177.448989 
L 297.990861 177.662894 
L 299.996145 177.890264 
L 302.001428 178.11499 
L 304.006712 178.894117 
L 306.011996 179.340152 
L 308.01728 179.025366 
L 310.022563 178.986767 
L 312.027847 179.197006 
L 314.033131 179.43061 
L 316.038415 179.695604 
L 318.043698 180.04849 
L 320.048982 180.472046 
L 322.054266 180.81195 
L 324.05955 181.303615 
L 326.064833 181.487225 
L 328.070117 181.823115 
L 330.075401 182.170966 
L 332.080684 182.479906 
L 334.085968 182.809192 
L 334.085968 76.41392 
L 334.085968 76.41392 
L 332.080684 78.21565 
L 330.075401 79.944073 
L 328.070117 81.673074 
L 326.064833 83.406662 
L 324.05955 85.139851 
L 322.054266 86.739953 
L 320.048982 88.589079 
L 318.043698 90.011719 
L 316.038415 91.3634 
L 314.033131 92.952304 
L 312.027847 94.200522 
L 310.022563 95.425443 
L 308.01728 96.772455 
L 306.011996 97.969864 
L 304.006712 99.128084 
L 302.001428 100.349806 
L 299.996145 101.726405 
L 297.990861 103.112364 
L 295.985577 104.242426 
L 293.980294 105.327206 
L 291.97501 106.466271 
L 289.969726 107.361841 
L 287.964442 107.959677 
L 285.959159 108.657323 
L 283.953875 109.43685 
L 281.948591 110.276606 
L 279.943307 111.204287 
L 277.938024 111.39715 
L 275.93274 111.432041 
L 273.927456 111.917341 
L 271.922173 112.276651 
L 269.916889 112.912829 
L 267.911605 113.346948 
L 265.906321 113.832568 
L 263.901038 114.296302 
L 261.895754 114.514887 
L 259.89047 115.402519 
L 257.885186 115.900872 
L 255.879903 116.409924 
L 253.874619 117.024176 
L 251.869335 117.396253 
L 249.864051 117.424677 
L 247.858768 117.542058 
L 245.853484 118.031237 
L 243.8482 118.167299 
L 241.842917 118.410986 
L 239.837633 118.908737 
L 237.832349 118.528594 
L 235.827065 118.954706 
L 233.821782 119.383792 
L 231.816498 119.812877 
L 229.811214 120.061278 
L 227.80593 120.036723 
L 225.800647 120.173744 
L 223.795363 120.648391 
L 221.790079 120.976759 
L 219.784795 121.477358 
L 217.779512 121.835741 
L 215.774228 121.995493 
L 213.768944 122.155245 
L 211.763661 122.315771 
L 209.758377 122.482824 
L 207.753093 122.606716 
L 205.747809 122.276723 
L 203.742526 122.121447 
L 201.737242 122.028363 
L 199.731958 121.622025 
L 197.726674 121.39784 
L 195.721391 121.439843 
L 193.716107 121.417921 
L 191.710823 121.526755 
L 189.705539 121.344106 
L 187.700256 121.270275 
L 185.694972 121.197732 
L 183.689688 121.357191 
L 181.684405 120.921981 
L 179.679121 121.084548 
L 177.673837 121.274042 
L 175.668553 121.484127 
L 173.66327 121.387147 
L 171.657986 121.059318 
L 169.652702 120.956232 
L 167.647418 121.03435 
L 165.642135 120.452463 
L 163.636851 120.498734 
L 161.631567 120.54737 
L 159.626283 120.596005 
L 157.621 120.039867 
L 155.615716 119.310204 
L 153.610432 118.583612 
L 151.605149 118.00099 
L 149.599865 117.905867 
L 147.594581 117.63057 
L 145.589297 116.895127 
L 143.584014 116.805788 
L 141.57873 116.433983 
L 139.573446 115.955496 
L 137.568162 115.477009 
L 135.562879 114.916499 
z
" clip-path="url(#p7cdf779fa1)" style="fill: #ff7f0e; fill-opacity: 0.15"/>
   </g>
   <g id="matplotlib.axis_1">
    <g id="xtick_1">
     <g id="line2d_1">
      <defs>
       <path id="ma101248253" d="M 0 0 
L 0 3.5 
" style="stroke: #000000; stroke-width: 0.8"/>
      </defs>
      <g>
       <use xlink:href="#ma101248253" x="79.569187" y="318.04" style="stroke: #000000; stroke-width: 0.8"/>
      </g>
     </g>
     <g id="text_1">
      <!-- 300 -->
      <g transform="translate(66.207937 335.677813) scale(0.14 -0.14)">
       <defs>
        <path id="DejaVuSans-33" d="M 2597 2516 
Q 3050 2419 3304 2112 
Q 3559 1806 3559 1356 
Q 3559 666 3084 287 
Q 2609 -91 1734 -91 
Q 1441 -91 1130 -33 
Q 819 25 488 141 
L 488 750 
Q 750 597 1062 519 
Q 1375 441 1716 441 
Q 2309 441 2620 675 
Q 2931 909 2931 1356 
Q 2931 1769 2642 2001 
Q 2353 2234 1838 2234 
L 1294 2234 
L 1294 2753 
L 1863 2753 
Q 2328 2753 2575 2939 
Q 2822 3125 2822 3475 
Q 2822 3834 2567 4026 
Q 2313 4219 1838 4219 
Q 1578 4219 1281 4162 
Q 984 4106 628 3988 
L 628 4550 
Q 988 4650 1302 4700 
Q 1616 4750 1894 4750 
Q 2613 4750 3031 4423 
Q 3450 4097 3450 3541 
Q 3450 3153 3228 2886 
Q 3006 2619 2597 2516 
z
" transform="scale(0.015625)"/>
        <path id="DejaVuSans-30" d="M 2034 4250 
Q 1547 4250 1301 3770 
Q 1056 3291 1056 2328 
Q 1056 1369 1301 889 
Q 1547 409 2034 409 
Q 2525 409 2770 889 
Q 3016 1369 3016 2328 
Q 3016 3291 2770 3770 
Q 2525 4250 2034 4250 
z
M 2034 4750 
Q 2819 4750 3233 4129 
Q 3647 3509 3647 2328 
Q 3647 1150 3233 529 
Q 2819 -91 2034 -91 
Q 1250 -91 836 529 
Q 422 1150 422 2328 
Q 422 3509 836 4129 
Q 1250 4750 2034 4750 
z
" transform="scale(0.015625)"/>
       </defs>
       <use xlink:href="#DejaVuSans-33"/>
       <use xlink:href="#DejaVuSans-30" x="63.623047"/>
       <use xlink:href="#DejaVuSans-30" x="127.246094"/>
      </g>
     </g>
    </g>
    <g id="xtick_2">
     <g id="line2d_2">
      <g>
       <use xlink:href="#ma101248253" x="121.98865" y="318.04" style="stroke: #000000; stroke-width: 0.8"/>
      </g>
     </g>
     <g id="text_2">
      <!-- 350 -->
      <g transform="translate(108.6274 335.677813) scale(0.14 -0.14)">
       <defs>
        <path id="DejaVuSans-35" d="M 691 4666 
L 3169 4666 
L 3169 4134 
L 1269 4134 
L 1269 2991 
Q 1406 3038 1543 3061 
Q 1681 3084 1819 3084 
Q 2600 3084 3056 2656 
Q 3513 2228 3513 1497 
Q 3513 744 3044 326 
Q 2575 -91 1722 -91 
Q 1428 -91 1123 -41 
Q 819 9 494 109 
L 494 744 
Q 775 591 1075 516 
Q 1375 441 1709 441 
Q 2250 441 2565 725 
Q 2881 1009 2881 1497 
Q 2881 1984 2565 2268 
Q 2250 2553 1709 2553 
Q 1456 2553 1204 2497 
Q 953 2441 691 2322 
L 691 4666 
z
" transform="scale(0.015625)"/>
       </defs>
       <use xlink:href="#DejaVuSans-33"/>
       <use xlink:href="#DejaVuSans-35" x="63.623047"/>
       <use xlink:href="#DejaVuSans-30" x="127.246094"/>
      </g>
     </g>
    </g>
    <g id="xtick_3">
     <g id="line2d_3">
      <g>
       <use xlink:href="#ma101248253" x="164.408114" y="318.04" style="stroke: #000000; stroke-width: 0.8"/>
      </g>
     </g>
     <g id="text_3">
      <!-- 400 -->
      <g transform="translate(151.046864 335.677813) scale(0.14 -0.14)">
       <defs>
        <path id="DejaVuSans-34" d="M 2419 4116 
L 825 1625 
L 2419 1625 
L 2419 4116 
z
M 2253 4666 
L 3047 4666 
L 3047 1625 
L 3713 1625 
L 3713 1100 
L 3047 1100 
L 3047 0 
L 2419 0 
L 2419 1100 
L 313 1100 
L 313 1709 
L 2253 4666 
z
" transform="scale(0.015625)"/>
       </defs>
       <use xlink:href="#DejaVuSans-34"/>
       <use xlink:href="#DejaVuSans-30" x="63.623047"/>
       <use xlink:href="#DejaVuSans-30" x="127.246094"/>
      </g>
     </g>
    </g>
    <g id="xtick_4">
     <g id="line2d_4">
      <g>
       <use xlink:href="#ma101248253" x="206.827577" y="318.04" style="stroke: #000000; stroke-width: 0.8"/>
      </g>
     </g>
     <g id="text_4">
      <!-- 450 -->
      <g transform="translate(193.466327 335.677813) scale(0.14 -0.14)">
       <use xlink:href="#DejaVuSans-34"/>
       <use xlink:href="#DejaVuSans-35" x="63.623047"/>
       <use xlink:href="#DejaVuSans-30" x="127.246094"/>
      </g>
     </g>
    </g>
    <g id="xtick_5">
     <g id="line2d_5">
      <g>
       <use xlink:href="#ma101248253" x="249.247041" y="318.04" style="stroke: #000000; stroke-width: 0.8"/>
      </g>
     </g>
     <g id="text_5">
      <!-- 500 -->
      <g transform="translate(235.885791 335.677813) scale(0.14 -0.14)">
       <use xlink:href="#DejaVuSans-35"/>
       <use xlink:href="#DejaVuSans-30" x="63.623047"/>
       <use xlink:href="#DejaVuSans-30" x="127.246094"/>
      </g>
     </g>
    </g>
    <g id="xtick_6">
     <g id="line2d_6">
      <g>
       <use xlink:href="#ma101248253" x="291.666505" y="318.04" style="stroke: #000000; stroke-width: 0.8"/>
      </g>
     </g>
     <g id="text_6">
      <!-- 550 -->
      <g transform="translate(278.305255 335.677813) scale(0.14 -0.14)">
       <use xlink:href="#DejaVuSans-35"/>
       <use xlink:href="#DejaVuSans-35" x="63.623047"/>
       <use xlink:href="#DejaVuSans-30" x="127.246094"/>
      </g>
     </g>
    </g>
    <g id="xtick_7">
     <g id="line2d_7">
      <g>
       <use xlink:href="#ma101248253" x="334.085968" y="318.04" style="stroke: #000000; stroke-width: 0.8"/>
      </g>
     </g>
     <g id="text_7">
      <!-- 600 -->
      <g transform="translate(320.724718 335.677813) scale(0.14 -0.14)">
       <defs>
        <path id="DejaVuSans-36" d="M 2113 2584 
Q 1688 2584 1439 2293 
Q 1191 2003 1191 1497 
Q 1191 994 1439 701 
Q 1688 409 2113 409 
Q 2538 409 2786 701 
Q 3034 994 3034 1497 
Q 3034 2003 2786 2293 
Q 2538 2584 2113 2584 
z
M 3366 4563 
L 3366 3988 
Q 3128 4100 2886 4159 
Q 2644 4219 2406 4219 
Q 1781 4219 1451 3797 
Q 1122 3375 1075 2522 
Q 1259 2794 1537 2939 
Q 1816 3084 2150 3084 
Q 2853 3084 3261 2657 
Q 3669 2231 3669 1497 
Q 3669 778 3244 343 
Q 2819 -91 2113 -91 
Q 1303 -91 875 529 
Q 447 1150 447 2328 
Q 447 3434 972 4092 
Q 1497 4750 2381 4750 
Q 2619 4750 2861 4703 
Q 3103 4656 3366 4563 
z
" transform="scale(0.015625)"/>
       </defs>
       <use xlink:href="#DejaVuSans-36"/>
       <use xlink:href="#DejaVuSans-30" x="63.623047"/>
       <use xlink:href="#DejaVuSans-30" x="127.246094"/>
      </g>
     </g>
    </g>
    <g id="text_8">
     <!-- Time -->
     <g transform="translate(189.700546 353.227188) scale(0.14 -0.14)">
      <defs>
       <path id="DejaVuSans-54" d="M -19 4666 
L 3928 4666 
L 3928 4134 
L 2272 4134 
L 2272 0 
L 1638 0 
L 1638 4134 
L -19 4134 
L -19 4666 
z
" transform="scale(0.015625)"/>
       <path id="DejaVuSans-69" d="M 603 3500 
L 1178 3500 
L 1178 0 
L 603 0 
L 603 3500 
z
M 603 4863 
L 1178 4863 
L 1178 4134 
L 603 4134 
L 603 4863 
z
" transform="scale(0.015625)"/>
       <path id="DejaVuSans-6d" d="M 3328 2828 
Q 3544 3216 3844 3400 
Q 4144 3584 4550 3584 
Q 5097 3584 5394 3201 
Q 5691 2819 5691 2113 
L 5691 0 
L 5113 0 
L 5113 2094 
Q 5113 2597 4934 2840 
Q 4756 3084 4391 3084 
Q 3944 3084 3684 2787 
Q 3425 2491 3425 1978 
L 3425 0 
L 2847 0 
L 2847 2094 
Q 2847 2600 2669 2842 
Q 2491 3084 2119 3084 
Q 1678 3084 1418 2786 
Q 1159 2488 1159 1978 
L 1159 0 
L 581 0 
L 581 3500 
L 1159 3500 
L 1159 2956 
Q 1356 3278 1631 3431 
Q 1906 3584 2284 3584 
Q 2666 3584 2933 3390 
Q 3200 3197 3328 2828 
z
" transform="scale(0.015625)"/>
       <path id="DejaVuSans-65" d="M 3597 1894 
L 3597 1613 
L 953 1613 
Q 991 1019 1311 708 
Q 1631 397 2203 397 
Q 2534 397 2845 478 
Q 3156 559 3463 722 
L 3463 178 
Q 3153 47 2828 -22 
Q 2503 -91 2169 -91 
Q 1331 -91 842 396 
Q 353 884 353 1716 
Q 353 2575 817 3079 
Q 1281 3584 2069 3584 
Q 2775 3584 3186 3129 
Q 3597 2675 3597 1894 
z
M 3022 2063 
Q 3016 2534 2758 2815 
Q 2500 3097 2075 3097 
Q 1594 3097 1305 2825 
Q 1016 2553 972 2059 
L 3022 2063 
z
" transform="scale(0.015625)"/>
      </defs>
      <use xlink:href="#DejaVuSans-54"/>
      <use xlink:href="#DejaVuSans-69" x="57.958984"/>
      <use xlink:href="#DejaVuSans-6d" x="85.742188"/>
      <use xlink:href="#DejaVuSans-65" x="183.154297"/>
     </g>
    </g>
   </g>
   <g id="matplotlib.axis_2">
    <g id="ytick_1">
     <g id="line2d_8">
      <defs>
       <path id="m22ddfaf1cd" d="M 0 0 
L -3.5 0 
" style="stroke: #000000; stroke-width: 0.8"/>
      </defs>
      <g>
       <use xlink:href="#m22ddfaf1cd" x="58.359455" y="318.04" style="stroke: #000000; stroke-width: 0.8"/>
      </g>
     </g>
     <g id="text_9">
      <!-- 0 -->
      <g transform="translate(42.451955 323.358906) scale(0.14 -0.14)">
       <use xlink:href="#DejaVuSans-30"/>
      </g>
     </g>
    </g>
    <g id="ytick_2">
     <g id="line2d_9">
      <g>
       <use xlink:href="#m22ddfaf1cd" x="58.359455" y="256.592" style="stroke: #000000; stroke-width: 0.8"/>
      </g>
     </g>
     <g id="text_10">
      <!-- 10 -->
      <g transform="translate(33.544455 261.910906) scale(0.14 -0.14)">
       <defs>
        <path id="DejaVuSans-31" d="M 794 531 
L 1825 531 
L 1825 4091 
L 703 3866 
L 703 4441 
L 1819 4666 
L 2450 4666 
L 2450 531 
L 3481 531 
L 3481 0 
L 794 0 
L 794 531 
z
" transform="scale(0.015625)"/>
       </defs>
       <use xlink:href="#DejaVuSans-31"/>
       <use xlink:href="#DejaVuSans-30" x="63.623047"/>
      </g>
     </g>
    </g>
    <g id="ytick_3">
     <g id="line2d_10">
      <g>
       <use xlink:href="#m22ddfaf1cd" x="58.359455" y="195.144" style="stroke: #000000; stroke-width: 0.8"/>
      </g>
     </g>
     <g id="text_11">
      <!-- 20 -->
      <g transform="translate(33.544455 200.462906) scale(0.14 -0.14)">
       <defs>
        <path id="DejaVuSans-32" d="M 1228 531 
L 3431 531 
L 3431 0 
L 469 0 
L 469 531 
Q 828 903 1448 1529 
Q 2069 2156 2228 2338 
Q 2531 2678 2651 2914 
Q 2772 3150 2772 3378 
Q 2772 3750 2511 3984 
Q 2250 4219 1831 4219 
Q 1534 4219 1204 4116 
Q 875 4013 500 3803 
L 500 4441 
Q 881 4594 1212 4672 
Q 1544 4750 1819 4750 
Q 2544 4750 2975 4387 
Q 3406 4025 3406 3419 
Q 3406 3131 3298 2873 
Q 3191 2616 2906 2266 
Q 2828 2175 2409 1742 
Q 1991 1309 1228 531 
z
" transform="scale(0.015625)"/>
       </defs>
       <use xlink:href="#DejaVuSans-32"/>
       <use xlink:href="#DejaVuSans-30" x="63.623047"/>
      </g>
     </g>
    </g>
    <g id="ytick_4">
     <g id="line2d_11">
      <g>
       <use xlink:href="#m22ddfaf1cd" x="58.359455" y="133.696" style="stroke: #000000; stroke-width: 0.8"/>
      </g>
     </g>
     <g id="text_12">
      <!-- 30 -->
      <g transform="translate(33.544455 139.014906) scale(0.14 -0.14)">
       <use xlink:href="#DejaVuSans-33"/>
       <use xlink:href="#DejaVuSans-30" x="63.623047"/>
      </g>
     </g>
    </g>
    <g id="ytick_5">
     <g id="line2d_12">
      <g>
       <use xlink:href="#m22ddfaf1cd" x="58.359455" y="72.248" style="stroke: #000000; stroke-width: 0.8"/>
      </g>
     </g>
     <g id="text_13">
      <!-- 40 -->
      <g transform="translate(33.544455 77.566906) scale(0.14 -0.14)">
       <use xlink:href="#DejaVuSans-34"/>
       <use xlink:href="#DejaVuSans-30" x="63.623047"/>
      </g>
     </g>
    </g>
    <g id="ytick_6">
     <g id="line2d_13">
      <g>
       <use xlink:href="#m22ddfaf1cd" x="58.359455" y="10.8" style="stroke: #000000; stroke-width: 0.8"/>
      </g>
     </g>
     <g id="text_14">
      <!-- 50 -->
      <g transform="translate(33.544455 16.118906) scale(0.14 -0.14)">
       <use xlink:href="#DejaVuSans-35"/>
       <use xlink:href="#DejaVuSans-30" x="63.623047"/>
      </g>
     </g>
    </g>
    <g id="text_15">
     <!-- Time talking -->
     <g transform="translate(26.632892 207.628594) rotate(-90) scale(0.14 -0.14)">
      <defs>
       <path id="DejaVuSans-20" transform="scale(0.015625)"/>
       <path id="DejaVuSans-74" d="M 1172 4494 
L 1172 3500 
L 2356 3500 
L 2356 3053 
L 1172 3053 
L 1172 1153 
Q 1172 725 1289 603 
Q 1406 481 1766 481 
L 2356 481 
L 2356 0 
L 1766 0 
Q 1100 0 847 248 
Q 594 497 594 1153 
L 594 3053 
L 172 3053 
L 172 3500 
L 594 3500 
L 594 4494 
L 1172 4494 
z
" transform="scale(0.015625)"/>
       <path id="DejaVuSans-61" d="M 2194 1759 
Q 1497 1759 1228 1600 
Q 959 1441 959 1056 
Q 959 750 1161 570 
Q 1363 391 1709 391 
Q 2188 391 2477 730 
Q 2766 1069 2766 1631 
L 2766 1759 
L 2194 1759 
z
M 3341 1997 
L 3341 0 
L 2766 0 
L 2766 531 
Q 2569 213 2275 61 
Q 1981 -91 1556 -91 
Q 1019 -91 701 211 
Q 384 513 384 1019 
Q 384 1609 779 1909 
Q 1175 2209 1959 2209 
L 2766 2209 
L 2766 2266 
Q 2766 2663 2505 2880 
Q 2244 3097 1772 3097 
Q 1472 3097 1187 3025 
Q 903 2953 641 2809 
L 641 3341 
Q 956 3463 1253 3523 
Q 1550 3584 1831 3584 
Q 2591 3584 2966 3190 
Q 3341 2797 3341 1997 
z
" transform="scale(0.015625)"/>
       <path id="DejaVuSans-6c" d="M 603 4863 
L 1178 4863 
L 1178 0 
L 603 0 
L 603 4863 
z
" transform="scale(0.015625)"/>
       <path id="DejaVuSans-6b" d="M 581 4863 
L 1159 4863 
L 1159 1991 
L 2875 3500 
L 3609 3500 
L 1753 1863 
L 3688 0 
L 2938 0 
L 1159 1709 
L 1159 0 
L 581 0 
L 581 4863 
z
" transform="scale(0.015625)"/>
       <path id="DejaVuSans-6e" d="M 3513 2113 
L 3513 0 
L 2938 0 
L 2938 2094 
Q 2938 2591 2744 2837 
Q 2550 3084 2163 3084 
Q 1697 3084 1428 2787 
Q 1159 2491 1159 1978 
L 1159 0 
L 581 0 
L 581 3500 
L 1159 3500 
L 1159 2956 
Q 1366 3272 1645 3428 
Q 1925 3584 2291 3584 
Q 2894 3584 3203 3211 
Q 3513 2838 3513 2113 
z
" transform="scale(0.015625)"/>
       <path id="DejaVuSans-67" d="M 2906 1791 
Q 2906 2416 2648 2759 
Q 2391 3103 1925 3103 
Q 1463 3103 1205 2759 
Q 947 2416 947 1791 
Q 947 1169 1205 825 
Q 1463 481 1925 481 
Q 2391 481 2648 825 
Q 2906 1169 2906 1791 
z
M 3481 434 
Q 3481 -459 3084 -895 
Q 2688 -1331 1869 -1331 
Q 1566 -1331 1297 -1286 
Q 1028 -1241 775 -1147 
L 775 -588 
Q 1028 -725 1275 -790 
Q 1522 -856 1778 -856 
Q 2344 -856 2625 -561 
Q 2906 -266 2906 331 
L 2906 616 
Q 2728 306 2450 153 
Q 2172 0 1784 0 
Q 1141 0 747 490 
Q 353 981 353 1791 
Q 353 2603 747 3093 
Q 1141 3584 1784 3584 
Q 2172 3584 2450 3431 
Q 2728 3278 2906 2969 
L 2906 3500 
L 3481 3500 
L 3481 434 
z
" transform="scale(0.015625)"/>
      </defs>
      <use xlink:href="#DejaVuSans-54"/>
      <use xlink:href="#DejaVuSans-69" x="57.958984"/>
      <use xlink:href="#DejaVuSans-6d" x="85.742188"/>
      <use xlink:href="#DejaVuSans-65" x="183.154297"/>
      <use xlink:href="#DejaVuSans-20" x="244.677734"/>
      <use xlink:href="#DejaVuSans-74" x="276.464844"/>
      <use xlink:href="#DejaVuSans-61" x="315.673828"/>
      <use xlink:href="#DejaVuSans-6c" x="376.953125"/>
      <use xlink:href="#DejaVuSans-6b" x="404.736328"/>
      <use xlink:href="#DejaVuSans-69" x="462.646484"/>
      <use xlink:href="#DejaVuSans-6e" x="490.429688"/>
      <use xlink:href="#DejaVuSans-67" x="553.808594"/>
     </g>
    </g>
   </g>
   <g id="line2d_14">
    <path d="M 64.29818 170.156991 
L 67.023309 169.629641 
L 69.748438 169.102291 
L 72.473567 168.574941 
L 75.198697 168.047591 
L 77.923826 167.520242 
L 80.648955 166.992892 
L 83.374084 166.465542 
L 86.099213 165.938192 
L 88.824342 165.410842 
L 91.549472 164.883493 
L 94.274601 164.356143 
L 96.99973 163.828793 
L 99.724859 163.301443 
L 102.449988 162.774093 
L 105.175118 162.246744 
L 107.900247 161.719394 
L 110.625376 161.192044 
L 113.350505 160.664694 
L 116.075634 160.137344 
L 118.800763 159.609994 
L 121.525893 159.082645 
L 124.251022 158.555295 
L 126.976151 158.027945 
L 129.70128 157.500595 
L 132.426409 156.973245 
L 135.151538 156.445896 
L 137.876668 155.918546 
L 140.601797 155.391196 
L 143.326926 154.863846 
L 146.052055 154.336496 
L 148.777184 153.809147 
L 151.502313 153.281797 
L 154.227443 152.754447 
L 156.952572 152.227097 
L 159.677701 151.699747 
L 162.40283 151.172398 
L 165.127959 150.645048 
L 167.853089 150.117698 
L 170.578218 149.590348 
L 173.303347 149.062998 
L 176.028476 148.535648 
L 178.753605 148.008299 
L 181.478734 147.480949 
L 184.203864 146.953599 
L 186.928993 146.426249 
L 189.654122 145.898899 
L 192.379251 145.37155 
L 195.10438 144.8442 
L 197.829509 144.31685 
L 200.554639 143.7895 
L 203.279768 143.26215 
L 206.004897 142.734801 
L 208.730026 142.207451 
L 211.455155 141.680101 
L 214.180285 141.152751 
L 216.905414 140.625401 
L 219.630543 140.098051 
L 222.355672 139.570702 
L 225.080801 139.043352 
L 227.80593 138.516002 
L 230.53106 137.988652 
L 233.256189 137.461302 
L 235.981318 136.933953 
L 238.706447 136.406603 
L 241.431576 135.879253 
L 244.156705 135.351903 
L 246.881835 134.824553 
L 249.606964 134.297204 
L 252.332093 133.769854 
L 255.057222 133.242504 
L 257.782351 132.715154 
L 260.50748 132.187804 
L 263.23261 131.660455 
L 265.957739 131.133105 
L 268.682868 130.605755 
L 271.407997 130.078405 
L 274.133126 129.551055 
L 276.858256 129.023705 
L 279.583385 128.496356 
L 282.308514 127.969006 
L 285.033643 127.441656 
L 287.758772 126.914306 
L 290.483901 126.386956 
L 293.209031 125.859607 
L 295.93416 125.332257 
L 298.659289 124.804907 
L 301.384418 124.277557 
L 304.109547 123.750207 
L 306.834676 123.222858 
L 309.559806 122.695508 
L 312.284935 122.168158 
L 315.010064 121.640808 
L 317.735193 121.113458 
L 320.460322 120.586109 
L 323.185452 120.058759 
L 325.910581 119.531409 
L 328.63571 119.004059 
L 331.360839 118.476709 
L 334.085968 117.949359 
" clip-path="url(#p7cdf779fa1)" style="fill: none; stroke: #1f77b4; stroke-width: 2.25; stroke-linecap: square"/>
   </g>
   <g id="line2d_15">
    <path d="M 135.562879 180.394703 
L 137.568162 179.822202 
L 139.573446 179.249702 
L 141.57873 178.677202 
L 143.584014 178.104702 
L 145.589297 177.532201 
L 147.594581 176.959701 
L 149.599865 176.387201 
L 151.605149 175.8147 
L 153.610432 175.2422 
L 155.615716 174.6697 
L 157.621 174.097199 
L 159.626283 173.524699 
L 161.631567 172.952199 
L 163.636851 172.379699 
L 165.642135 171.807198 
L 167.647418 171.234698 
L 169.652702 170.662198 
L 171.657986 170.089697 
L 173.66327 169.517197 
L 175.668553 168.944697 
L 177.673837 168.372196 
L 179.679121 167.799696 
L 181.684405 167.227196 
L 183.689688 166.654695 
L 185.694972 166.082195 
L 187.700256 165.509695 
L 189.705539 164.937195 
L 191.710823 164.364694 
L 193.716107 163.792194 
L 195.721391 163.219694 
L 197.726674 162.647193 
L 199.731958 162.074693 
L 201.737242 161.502193 
L 203.742526 160.929692 
L 205.747809 160.357192 
L 207.753093 159.784692 
L 209.758377 159.212192 
L 211.763661 158.639691 
L 213.768944 158.067191 
L 215.774228 157.494691 
L 217.779512 156.92219 
L 219.784795 156.34969 
L 221.790079 155.77719 
L 223.795363 155.204689 
L 225.800647 154.632189 
L 227.80593 154.059689 
L 229.811214 153.487188 
L 231.816498 152.914688 
L 233.821782 152.342188 
L 235.827065 151.769688 
L 237.832349 151.197187 
L 239.837633 150.624687 
L 241.842917 150.052187 
L 243.8482 149.479686 
L 245.853484 148.907186 
L 247.858768 148.334686 
L 249.864051 147.762185 
L 251.869335 147.189685 
L 253.874619 146.617185 
L 255.879903 146.044685 
L 257.885186 145.472184 
L 259.89047 144.899684 
L 261.895754 144.327184 
L 263.901038 143.754683 
L 265.906321 143.182183 
L 267.911605 142.609683 
L 269.916889 142.037182 
L 271.922173 141.464682 
L 273.927456 140.892182 
L 275.93274 140.319681 
L 277.938024 139.747181 
L 279.943307 139.174681 
L 281.948591 138.602181 
L 283.953875 138.02968 
L 285.959159 137.45718 
L 287.964442 136.88468 
L 289.969726 136.312179 
L 291.97501 135.739679 
L 293.980294 135.167179 
L 295.985577 134.594678 
L 297.990861 134.022178 
L 299.996145 133.449678 
L 302.001428 132.877178 
L 304.006712 132.304677 
L 306.011996 131.732177 
L 308.01728 131.159677 
L 310.022563 130.587176 
L 312.027847 130.014676 
L 314.033131 129.442176 
L 316.038415 128.869675 
L 318.043698 128.297175 
L 320.048982 127.724675 
L 322.054266 127.152174 
L 324.05955 126.579674 
L 326.064833 126.007174 
L 328.070117 125.434674 
L 330.075401 124.862173 
L 332.080684 124.289673 
L 334.085968 123.717173 
" clip-path="url(#p7cdf779fa1)" style="fill: none; stroke: #ff7f0e; stroke-width: 2.25; stroke-linecap: square"/>
   </g>
   <g id="patch_3">
    <path d="M 58.359455 318.04 
L 58.359455 10.8 
" style="fill: none; stroke: #000000; stroke-width: 0.8; stroke-linejoin: miter; stroke-linecap: square"/>
   </g>
   <g id="patch_4">
    <path d="M 58.359455 318.04 
L 355.2957 318.04 
" style="fill: none; stroke: #000000; stroke-width: 0.8; stroke-linejoin: miter; stroke-linecap: square"/>
   </g>
  </g>
  <g id="legend_1">
   <g id="text_16">
    <!-- Method -->
    <g transform="translate(391.4925 168.08125) scale(0.1 -0.1)">
     <defs>
      <path id="DejaVuSans-4d" d="M 628 4666 
L 1569 4666 
L 2759 1491 
L 3956 4666 
L 4897 4666 
L 4897 0 
L 4281 0 
L 4281 4097 
L 3078 897 
L 2444 897 
L 1241 4097 
L 1241 0 
L 628 0 
L 628 4666 
z
" transform="scale(0.015625)"/>
      <path id="DejaVuSans-68" d="M 3513 2113 
L 3513 0 
L 2938 0 
L 2938 2094 
Q 2938 2591 2744 2837 
Q 2550 3084 2163 3084 
Q 1697 3084 1428 2787 
Q 1159 2491 1159 1978 
L 1159 0 
L 581 0 
L 581 4863 
L 1159 4863 
L 1159 2956 
Q 1366 3272 1645 3428 
Q 1925 3584 2291 3584 
Q 2894 3584 3203 3211 
Q 3513 2838 3513 2113 
z
" transform="scale(0.015625)"/>
      <path id="DejaVuSans-6f" d="M 1959 3097 
Q 1497 3097 1228 2736 
Q 959 2375 959 1747 
Q 959 1119 1226 758 
Q 1494 397 1959 397 
Q 2419 397 2687 759 
Q 2956 1122 2956 1747 
Q 2956 2369 2687 2733 
Q 2419 3097 1959 3097 
z
M 1959 3584 
Q 2709 3584 3137 3096 
Q 3566 2609 3566 1747 
Q 3566 888 3137 398 
Q 2709 -91 1959 -91 
Q 1206 -91 779 398 
Q 353 888 353 1747 
Q 353 2609 779 3096 
Q 1206 3584 1959 3584 
z
" transform="scale(0.015625)"/>
      <path id="DejaVuSans-64" d="M 2906 2969 
L 2906 4863 
L 3481 4863 
L 3481 0 
L 2906 0 
L 2906 525 
Q 2725 213 2448 61 
Q 2172 -91 1784 -91 
Q 1150 -91 751 415 
Q 353 922 353 1747 
Q 353 2572 751 3078 
Q 1150 3584 1784 3584 
Q 2172 3584 2448 3432 
Q 2725 3281 2906 2969 
z
M 947 1747 
Q 947 1113 1208 752 
Q 1469 391 1925 391 
Q 2381 391 2643 752 
Q 2906 1113 2906 1747 
Q 2906 2381 2643 2742 
Q 2381 3103 1925 3103 
Q 1469 3103 1208 2742 
Q 947 2381 947 1747 
z
" transform="scale(0.015625)"/>
     </defs>
     <use xlink:href="#DejaVuSans-4d"/>
     <use xlink:href="#DejaVuSans-65" x="86.279297"/>
     <use xlink:href="#DejaVuSans-74" x="147.802734"/>
     <use xlink:href="#DejaVuSans-68" x="187.011719"/>
     <use xlink:href="#DejaVuSans-6f" x="250.390625"/>
     <use xlink:href="#DejaVuSans-64" x="311.572266"/>
    </g>
   </g>
   <g id="PathCollection_3">
    <g>
     <use xlink:href="#m12f35be1c1" x="369.06125" y="180.134375" style="fill: #1f77b4; fill-opacity: 0.8; stroke: #1f77b4; stroke-opacity: 0.8"/>
    </g>
   </g>
   <g id="text_17">
    <!-- Forced commit -->
    <g transform="translate(387.06125 182.759375) scale(0.1 -0.1)">
     <defs>
      <path id="DejaVuSans-46" d="M 628 4666 
L 3309 4666 
L 3309 4134 
L 1259 4134 
L 1259 2759 
L 3109 2759 
L 3109 2228 
L 1259 2228 
L 1259 0 
L 628 0 
L 628 4666 
z
" transform="scale(0.015625)"/>
      <path id="DejaVuSans-72" d="M 2631 2963 
Q 2534 3019 2420 3045 
Q 2306 3072 2169 3072 
Q 1681 3072 1420 2755 
Q 1159 2438 1159 1844 
L 1159 0 
L 581 0 
L 581 3500 
L 1159 3500 
L 1159 2956 
Q 1341 3275 1631 3429 
Q 1922 3584 2338 3584 
Q 2397 3584 2469 3576 
Q 2541 3569 2628 3553 
L 2631 2963 
z
" transform="scale(0.015625)"/>
      <path id="DejaVuSans-63" d="M 3122 3366 
L 3122 2828 
Q 2878 2963 2633 3030 
Q 2388 3097 2138 3097 
Q 1578 3097 1268 2742 
Q 959 2388 959 1747 
Q 959 1106 1268 751 
Q 1578 397 2138 397 
Q 2388 397 2633 464 
Q 2878 531 3122 666 
L 3122 134 
Q 2881 22 2623 -34 
Q 2366 -91 2075 -91 
Q 1284 -91 818 406 
Q 353 903 353 1747 
Q 353 2603 823 3093 
Q 1294 3584 2113 3584 
Q 2378 3584 2631 3529 
Q 2884 3475 3122 3366 
z
" transform="scale(0.015625)"/>
     </defs>
     <use xlink:href="#DejaVuSans-46"/>
     <use xlink:href="#DejaVuSans-6f" x="53.894531"/>
     <use xlink:href="#DejaVuSans-72" x="115.076172"/>
     <use xlink:href="#DejaVuSans-63" x="153.939453"/>
     <use xlink:href="#DejaVuSans-65" x="208.919922"/>
     <use xlink:href="#DejaVuSans-64" x="270.443359"/>
     <use xlink:href="#DejaVuSans-20" x="333.919922"/>
     <use xlink:href="#DejaVuSans-63" x="365.707031"/>
     <use xlink:href="#DejaVuSans-6f" x="420.6875"/>
     <use xlink:href="#DejaVuSans-6d" x="481.869141"/>
     <use xlink:href="#DejaVuSans-6d" x="579.28125"/>
     <use xlink:href="#DejaVuSans-69" x="676.693359"/>
     <use xlink:href="#DejaVuSans-74" x="704.476562"/>
    </g>
   </g>
   <g id="PathCollection_4">
    <g>
     <use xlink:href="#mcc91bbc40b" x="369.06125" y="194.8125" style="fill: #ff7f0e; fill-opacity: 0.8; stroke: #ff7f0e; stroke-opacity: 0.8"/>
    </g>
   </g>
   <g id="text_18">
    <!-- Voting commit -->
    <g transform="translate(387.06125 197.4375) scale(0.1 -0.1)">
     <defs>
      <path id="DejaVuSans-56" d="M 1831 0 
L 50 4666 
L 709 4666 
L 2188 738 
L 3669 4666 
L 4325 4666 
L 2547 0 
L 1831 0 
z
" transform="scale(0.015625)"/>
     </defs>
     <use xlink:href="#DejaVuSans-56"/>
     <use xlink:href="#DejaVuSans-6f" x="60.658203"/>
     <use xlink:href="#DejaVuSans-74" x="121.839844"/>
     <use xlink:href="#DejaVuSans-69" x="161.048828"/>
     <use xlink:href="#DejaVuSans-6e" x="188.832031"/>
     <use xlink:href="#DejaVuSans-67" x="252.210938"/>
     <use xlink:href="#DejaVuSans-20" x="315.6875"/>
     <use xlink:href="#DejaVuSans-63" x="347.474609"/>
     <use xlink:href="#DejaVuSans-6f" x="402.455078"/>
     <use xlink:href="#DejaVuSans-6d" x="463.636719"/>
     <use xlink:href="#DejaVuSans-6d" x="561.048828"/>
     <use xlink:href="#DejaVuSans-69" x="658.460938"/>
     <use xlink:href="#DejaVuSans-74" x="686.244141"/>
    </g>
   </g>
  </g>
 </g>
 <defs>
  <clipPath id="p7cdf779fa1">
   <rect x="58.359455" y="10.8" width="296.936245" height="307.24"/>
  </clipPath>
 </defs>
</svg>
