<?xml version="1.0" encoding="utf-8" standalone="no"?>
<!DOCTYPE svg PUBLIC "-//W3C//DTD SVG 1.1//EN"
  "http://www.w3.org/Graphics/SVG/1.1/DTD/svg11.dtd">
<svg xmlns:xlink="http://www.w3.org/1999/xlink" width="432pt" height="360pt" viewBox="0 0 432 360" xmlns="http://www.w3.org/2000/svg" version="1.1">
 <metadata>
  <rdf:RDF xmlns:dc="http://purl.org/dc/elements/1.1/" xmlns:cc="http://creativecommons.org/ns#" xmlns:rdf="http://www.w3.org/1999/02/22-rdf-syntax-ns#">
   <cc:Work>
    <dc:type rdf:resource="http://purl.org/dc/dcmitype/StillImage"/>
    <dc:date>2023-03-30T15:20:54.955146</dc:date>
    <dc:format>image/svg+xml</dc:format>
    <dc:creator>
     <cc:Agent>
      <dc:title>Matplotlib v3.7.1, https://matplotlib.org/</dc:title>
     </cc:Agent>
    </dc:creator>
   </cc:Work>
  </rdf:RDF>
 </metadata>
 <defs>
  <style type="text/css">*{stroke-linejoin: round; stroke-linecap: butt}</style>
 </defs>
 <g id="figure_1">
  <g id="patch_1">
   <path d="M 0 360 
L 432 360 
L 432 0 
L 0 0 
z
" style="fill: #ffffff"/>
  </g>
  <g id="axes_1">
   <g id="patch_2">
    <path d="M 54 320.4 
L 388.8 320.4 
L 388.8 43.2 
L 54 43.2 
z
" style="fill: #ffffff"/>
   </g>
   <g id="PolyCollection_1">
    <defs>
     <path id="m8b2b2d1155" d="M 138.350642 -22.345617 
L 137.049358 -22.345617 
L 136.729733 -25.49419 
L 136.316057 -28.642763 
L 135.811908 -31.791337 
L 135.236197 -34.93991 
L 134.624848 -38.088484 
L 134.028826 -41.237057 
L 133.508 -44.38563 
L 133.121582 -47.534204 
L 132.917142 -50.682777 
L 132.920996 -53.831351 
L 133.132637 -56.979924 
L 133.524845 -60.128497 
L 134.049426 -63.277071 
L 134.646911 -66.425644 
L 135.2575 -69.574218 
L 135.830458 -72.722791 
L 136.329966 -75.871364 
L 136.736682 -79.019938 
L 137.045513 -82.168511 
L 137.260858 -85.317085 
L 137.390818 -88.465658 
L 137.441673 -91.614231 
L 137.413492 -94.762805 
L 137.29746 -97.911378 
L 137.075353 -101.059952 
L 136.721572 -104.208525 
L 136.20806 -107.357098 
L 135.512049 -110.505672 
L 134.625781 -113.654245 
L 133.566347 -116.802819 
L 132.382843 -119.951392 
L 131.157802 -123.099965 
L 130.000685 -126.248539 
L 129.03317 -129.397112 
L 128.368598 -132.545686 
L 128.090261 -135.694259 
L 128.234266 -138.842832 
L 128.781841 -141.991406 
L 129.663348 -145.139979 
L 130.772812 -148.288553 
L 131.98877 -151.437126 
L 133.195745 -154.585699 
L 134.301132 -157.734273 
L 135.24426 -160.882846 
L 135.997036 -164.03142 
L 136.55779 -167.179993 
L 136.94118 -170.328566 
L 137.167087 -173.47714 
L 137.250784 -176.625713 
L 137.195805 -179.774287 
L 136.990255 -182.92286 
L 136.607064 -186.071434 
L 136.008579 -189.220007 
L 135.155677 -192.36858 
L 134.020867 -195.517154 
L 132.603591 -198.665727 
L 130.944383 -201.814301 
L 129.133451 -204.962874 
L 127.309328 -208.111447 
L 125.645061 -211.260021 
L 124.322774 -214.408594 
L 123.501401 -217.557168 
L 123.285383 -220.705741 
L 123.702866 -223.854314 
L 124.699661 -227.002888 
L 126.150755 -230.151461 
L 127.885944 -233.300035 
L 129.722244 -236.448608 
L 131.494373 -239.597181 
L 133.076128 -242.745755 
L 134.388841 -245.894328 
L 135.396927 -249.042902 
L 136.093417 -252.191475 
L 136.479672 -255.340048 
L 136.543455 -258.488622 
L 136.238955 -261.637195 
L 135.472093 -264.785769 
L 134.094761 -267.934342 
L 131.912361 -271.082915 
L 128.708903 -274.231489 
L 124.291809 -277.380062 
L 118.553639 -280.528636 
L 111.540645 -283.677209 
L 103.510676 -286.825782 
L 94.958919 -289.974356 
L 86.59275 -293.122929 
L 79.248101 -296.271503 
L 73.757005 -299.420076 
L 70.793968 -302.568649 
L 70.74 -305.717223 
L 73.602149 -308.865796 
L 79.011997 -312.01437 
L 86.303561 -315.162943 
L 94.647877 -318.311516 
L 103.206764 -321.46009 
L 111.266714 -324.608663 
L 118.324799 -327.757237 
L 124.116268 -330.90581 
L 128.591018 -334.054383 
L 146.808982 -334.054383 
L 146.808982 -334.054383 
L 151.283732 -330.90581 
L 157.075201 -327.757237 
L 164.133286 -324.608663 
L 172.193236 -321.46009 
L 180.752123 -318.311516 
L 189.096439 -315.162943 
L 196.388003 -312.01437 
L 201.797851 -308.865796 
L 204.66 -305.717223 
L 204.606032 -302.568649 
L 201.642995 -299.420076 
L 196.151899 -296.271503 
L 188.80725 -293.122929 
L 180.441081 -289.974356 
L 171.889324 -286.825782 
L 163.859355 -283.677209 
L 156.846361 -280.528636 
L 151.108191 -277.380062 
L 146.691097 -274.231489 
L 143.487639 -271.082915 
L 141.305239 -267.934342 
L 139.927907 -264.785769 
L 139.161045 -261.637195 
L 138.856545 -258.488622 
L 138.920328 -255.340048 
L 139.306583 -252.191475 
L 140.003073 -249.042902 
L 141.011159 -245.894328 
L 142.323872 -242.745755 
L 143.905627 -239.597181 
L 145.677756 -236.448608 
L 147.514056 -233.300035 
L 149.249245 -230.151461 
L 150.700339 -227.002888 
L 151.697134 -223.854314 
L 152.114617 -220.705741 
L 151.898599 -217.557168 
L 151.077226 -214.408594 
L 149.754939 -211.260021 
L 148.090672 -208.111447 
L 146.266549 -204.962874 
L 144.455617 -201.814301 
L 142.796409 -198.665727 
L 141.379133 -195.517154 
L 140.244323 -192.36858 
L 139.391421 -189.220007 
L 138.792936 -186.071434 
L 138.409745 -182.92286 
L 138.204195 -179.774287 
L 138.149216 -176.625713 
L 138.232913 -173.47714 
L 138.45882 -170.328566 
L 138.84221 -167.179993 
L 139.402964 -164.03142 
L 140.15574 -160.882846 
L 141.098868 -157.734273 
L 142.204255 -154.585699 
L 143.41123 -151.437126 
L 144.627188 -148.288553 
L 145.736652 -145.139979 
L 146.618159 -141.991406 
L 147.165734 -138.842832 
L 147.309739 -135.694259 
L 147.031402 -132.545686 
L 146.36683 -129.397112 
L 145.399315 -126.248539 
L 144.242198 -123.099965 
L 143.017157 -119.951392 
L 141.833653 -116.802819 
L 140.774219 -113.654245 
L 139.887951 -110.505672 
L 139.19194 -107.357098 
L 138.678428 -104.208525 
L 138.324647 -101.059952 
L 138.10254 -97.911378 
L 137.986508 -94.762805 
L 137.958327 -91.614231 
L 138.009182 -88.465658 
L 138.139142 -85.317085 
L 138.354487 -82.168511 
L 138.663318 -79.019938 
L 139.070034 -75.871364 
L 139.569542 -72.722791 
L 140.1425 -69.574218 
L 140.753089 -66.425644 
L 141.350574 -63.277071 
L 141.875155 -60.128497 
L 142.267363 -56.979924 
L 142.479004 -53.831351 
L 142.482858 -50.682777 
L 142.278418 -47.534204 
L 141.892 -44.38563 
L 141.371174 -41.237057 
L 140.775152 -38.088484 
L 140.163803 -34.93991 
L 139.588092 -31.791337 
L 139.083943 -28.642763 
L 138.670267 -25.49419 
L 138.350642 -22.345617 
z
" style="stroke: #3f3f3f; stroke-width: 1.5"/>
    </defs>
    <g clip-path="url(#pbfffd9bb9f)">
     <use xlink:href="#m8b2b2d1155" x="0" y="360" style="fill: #3274a1; stroke: #3f3f3f; stroke-width: 1.5"/>
    </g>
   </g>
   <g id="PolyCollection_2">
    <defs>
     <path id="m1f4bb77399" d="M 305.751729 -22.395415 
L 304.448271 -22.395415 
L 304.127617 -25.542983 
L 303.712498 -28.69055 
L 303.206543 -31.838117 
L 302.628828 -34.985685 
L 302.015562 -38.133252 
L 301.418077 -41.28082 
L 300.896618 -44.428387 
L 300.510675 -47.575954 
L 300.307918 -50.723522 
L 300.314521 -53.871089 
L 300.529617 -57.018656 
L 300.925482 -60.166224 
L 301.45339 -63.313791 
L 302.053441 -66.461359 
L 302.665589 -69.608926 
L 303.239071 -72.756493 
L 303.738222 -75.904061 
L 304.14398 -79.051628 
L 304.451564 -82.199195 
L 304.665656 -85.346763 
L 304.794569 -88.49433 
L 304.844703 -91.641897 
L 304.816156 -94.789465 
L 304.700061 -97.937032 
L 304.478062 -101.0846 
L 304.124356 -104.232167 
L 303.610627 -107.379734 
L 302.913829 -110.527302 
L 302.025974 -113.674869 
L 300.964053 -116.822436 
L 299.777268 -119.970004 
L 298.548512 -123.117571 
L 297.387822 -126.265138 
L 296.417562 -129.412706 
L 295.751704 -132.560273 
L 295.473929 -135.707841 
L 295.620368 -138.855408 
L 296.171881 -142.002975 
L 297.058156 -145.150543 
L 298.172412 -148.29811 
L 299.392433 -151.445677 
L 300.602188 -154.593245 
L 301.708746 -157.740812 
L 302.651239 -160.888379 
L 303.401268 -164.035947 
L 303.95638 -167.183514 
L 304.329478 -170.331082 
L 304.537102 -173.478649 
L 304.58891 -176.626216 
L 304.479881 -179.773784 
L 304.186232 -182.921351 
L 303.665891 -186.068918 
L 302.864339 -189.216486 
L 301.726329 -192.364053 
L 300.212975 -195.511621 
L 298.32192 -198.659188 
L 296.106163 -201.806755 
L 293.685555 -204.954323 
L 291.245078 -208.10189 
L 289.016402 -211.249457 
L 287.243792 -214.397025 
L 286.140744 -217.544592 
L 285.847853 -220.692159 
L 286.403383 -223.839727 
L 287.735047 -226.987294 
L 289.675414 -230.134862 
L 291.996384 -233.282429 
L 294.452826 -236.429996 
L 296.823733 -239.577564 
L 298.941262 -242.725131 
L 300.702682 -245.872698 
L 302.065426 -249.020266 
L 303.029363 -252.167833 
L 303.612115 -255.3154 
L 303.823009 -258.462968 
L 303.640113 -261.610535 
L 302.993792 -264.758103 
L 301.76004 -267.90567 
L 299.767186 -271.053237 
L 296.819527 -274.200805 
L 292.739602 -277.348372 
L 287.426411 -280.495939 
L 280.920202 -283.643507 
L 273.457551 -286.791074 
L 265.496594 -289.938641 
L 257.694744 -293.086209 
L 250.831495 -296.233776 
L 245.685101 -299.381344 
L 242.888792 -302.528911 
L 242.802938 -305.676478 
L 245.438783 -308.824046 
L 250.456028 -311.971613 
L 257.235006 -315.11918 
L 265.002309 -318.266748 
L 272.974764 -321.414315 
L 280.485054 -324.561883 
L 287.062471 -327.70945 
L 292.459018 -330.857017 
L 296.627527 -334.004585 
L 313.572473 -334.004585 
L 313.572473 -334.004585 
L 317.740982 -330.857017 
L 323.137529 -327.70945 
L 329.714946 -324.561883 
L 337.225236 -321.414315 
L 345.197691 -318.266748 
L 352.964994 -315.11918 
L 359.743972 -311.971613 
L 364.761217 -308.824046 
L 367.397062 -305.676478 
L 367.311208 -302.528911 
L 364.514899 -299.381344 
L 359.368505 -296.233776 
L 352.505256 -293.086209 
L 344.703406 -289.938641 
L 336.742449 -286.791074 
L 329.279798 -283.643507 
L 322.773589 -280.495939 
L 317.460398 -277.348372 
L 313.380473 -274.200805 
L 310.432814 -271.053237 
L 308.43996 -267.90567 
L 307.206208 -264.758103 
L 306.559887 -261.610535 
L 306.376991 -258.462968 
L 306.587885 -255.3154 
L 307.170637 -252.167833 
L 308.134574 -249.020266 
L 309.497318 -245.872698 
L 311.258738 -242.725131 
L 313.376267 -239.577564 
L 315.747174 -236.429996 
L 318.203616 -233.282429 
L 320.524586 -230.134862 
L 322.464953 -226.987294 
L 323.796617 -223.839727 
L 324.352147 -220.692159 
L 324.059256 -217.544592 
L 322.956208 -214.397025 
L 321.183598 -211.249457 
L 318.954922 -208.10189 
L 316.514445 -204.954323 
L 314.093837 -201.806755 
L 311.87808 -198.659188 
L 309.987025 -195.511621 
L 308.473671 -192.364053 
L 307.335661 -189.216486 
L 306.534109 -186.068918 
L 306.013768 -182.921351 
L 305.720119 -179.773784 
L 305.61109 -176.626216 
L 305.662898 -173.478649 
L 305.870522 -170.331082 
L 306.24362 -167.183514 
L 306.798732 -164.035947 
L 307.548761 -160.888379 
L 308.491254 -157.740812 
L 309.597812 -154.593245 
L 310.807567 -151.445677 
L 312.027588 -148.29811 
L 313.141844 -145.150543 
L 314.028119 -142.002975 
L 314.579632 -138.855408 
L 314.726071 -135.707841 
L 314.448296 -132.560273 
L 313.782438 -129.412706 
L 312.812178 -126.265138 
L 311.651488 -123.117571 
L 310.422732 -119.970004 
L 309.235947 -116.822436 
L 308.174026 -113.674869 
L 307.286171 -110.527302 
L 306.589373 -107.379734 
L 306.075644 -104.232167 
L 305.721938 -101.0846 
L 305.499939 -97.937032 
L 305.383844 -94.789465 
L 305.355297 -91.641897 
L 305.405431 -88.49433 
L 305.534344 -85.346763 
L 305.748436 -82.199195 
L 306.05602 -79.051628 
L 306.461778 -75.904061 
L 306.960929 -72.756493 
L 307.534411 -69.608926 
L 308.146559 -66.461359 
L 308.74661 -63.313791 
L 309.274518 -60.166224 
L 309.670383 -57.018656 
L 309.885479 -53.871089 
L 309.892082 -50.723522 
L 309.689325 -47.575954 
L 309.303382 -44.428387 
L 308.781923 -41.28082 
L 308.184438 -38.133252 
L 307.571172 -34.985685 
L 306.993457 -31.838117 
L 306.487502 -28.69055 
L 306.072383 -25.542983 
L 305.751729 -22.395415 
z
" style="stroke: #3f3f3f; stroke-width: 1.5"/>
    </defs>
    <g clip-path="url(#pbfffd9bb9f)">
     <use xlink:href="#m1f4bb77399" x="0" y="360" style="fill: #e1812c; stroke: #3f3f3f; stroke-width: 1.5"/>
    </g>
   </g>
   <g id="matplotlib.axis_1">
    <g id="xtick_1">
     <g id="line2d_1">
      <defs>
       <path id="maf14d37f8c" d="M 0 0 
L 0 3.5 
" style="stroke: #000000; stroke-width: 0.8"/>
      </defs>
      <g>
       <use xlink:href="#maf14d37f8c" x="137.7" y="320.4" style="stroke: #000000; stroke-width: 0.8"/>
      </g>
     </g>
     <g id="text_1">
      <!-- Forced commit -->
      <g transform="translate(85.641875 338.037813) scale(0.14 -0.14)">
       <defs>
        <path id="DejaVuSans-46" d="M 628 4666 
L 3309 4666 
L 3309 4134 
L 1259 4134 
L 1259 2759 
L 3109 2759 
L 3109 2228 
L 1259 2228 
L 1259 0 
L 628 0 
L 628 4666 
z
" transform="scale(0.015625)"/>
        <path id="DejaVuSans-6f" d="M 1959 3097 
Q 1497 3097 1228 2736 
Q 959 2375 959 1747 
Q 959 1119 1226 758 
Q 1494 397 1959 397 
Q 2419 397 2687 759 
Q 2956 1122 2956 1747 
Q 2956 2369 2687 2733 
Q 2419 3097 1959 3097 
z
M 1959 3584 
Q 2709 3584 3137 3096 
Q 3566 2609 3566 1747 
Q 3566 888 3137 398 
Q 2709 -91 1959 -91 
Q 1206 -91 779 398 
Q 353 888 353 1747 
Q 353 2609 779 3096 
Q 1206 3584 1959 3584 
z
" transform="scale(0.015625)"/>
        <path id="DejaVuSans-72" d="M 2631 2963 
Q 2534 3019 2420 3045 
Q 2306 3072 2169 3072 
Q 1681 3072 1420 2755 
Q 1159 2438 1159 1844 
L 1159 0 
L 581 0 
L 581 3500 
L 1159 3500 
L 1159 2956 
Q 1341 3275 1631 3429 
Q 1922 3584 2338 3584 
Q 2397 3584 2469 3576 
Q 2541 3569 2628 3553 
L 2631 2963 
z
" transform="scale(0.015625)"/>
        <path id="DejaVuSans-63" d="M 3122 3366 
L 3122 2828 
Q 2878 2963 2633 3030 
Q 2388 3097 2138 3097 
Q 1578 3097 1268 2742 
Q 959 2388 959 1747 
Q 959 1106 1268 751 
Q 1578 397 2138 397 
Q 2388 397 2633 464 
Q 2878 531 3122 666 
L 3122 134 
Q 2881 22 2623 -34 
Q 2366 -91 2075 -91 
Q 1284 -91 818 406 
Q 353 903 353 1747 
Q 353 2603 823 3093 
Q 1294 3584 2113 3584 
Q 2378 3584 2631 3529 
Q 2884 3475 3122 3366 
z
" transform="scale(0.015625)"/>
        <path id="DejaVuSans-65" d="M 3597 1894 
L 3597 1613 
L 953 1613 
Q 991 1019 1311 708 
Q 1631 397 2203 397 
Q 2534 397 2845 478 
Q 3156 559 3463 722 
L 3463 178 
Q 3153 47 2828 -22 
Q 2503 -91 2169 -91 
Q 1331 -91 842 396 
Q 353 884 353 1716 
Q 353 2575 817 3079 
Q 1281 3584 2069 3584 
Q 2775 3584 3186 3129 
Q 3597 2675 3597 1894 
z
M 3022 2063 
Q 3016 2534 2758 2815 
Q 2500 3097 2075 3097 
Q 1594 3097 1305 2825 
Q 1016 2553 972 2059 
L 3022 2063 
z
" transform="scale(0.015625)"/>
        <path id="DejaVuSans-64" d="M 2906 2969 
L 2906 4863 
L 3481 4863 
L 3481 0 
L 2906 0 
L 2906 525 
Q 2725 213 2448 61 
Q 2172 -91 1784 -91 
Q 1150 -91 751 415 
Q 353 922 353 1747 
Q 353 2572 751 3078 
Q 1150 3584 1784 3584 
Q 2172 3584 2448 3432 
Q 2725 3281 2906 2969 
z
M 947 1747 
Q 947 1113 1208 752 
Q 1469 391 1925 391 
Q 2381 391 2643 752 
Q 2906 1113 2906 1747 
Q 2906 2381 2643 2742 
Q 2381 3103 1925 3103 
Q 1469 3103 1208 2742 
Q 947 2381 947 1747 
z
" transform="scale(0.015625)"/>
        <path id="DejaVuSans-20" transform="scale(0.015625)"/>
        <path id="DejaVuSans-6d" d="M 3328 2828 
Q 3544 3216 3844 3400 
Q 4144 3584 4550 3584 
Q 5097 3584 5394 3201 
Q 5691 2819 5691 2113 
L 5691 0 
L 5113 0 
L 5113 2094 
Q 5113 2597 4934 2840 
Q 4756 3084 4391 3084 
Q 3944 3084 3684 2787 
Q 3425 2491 3425 1978 
L 3425 0 
L 2847 0 
L 2847 2094 
Q 2847 2600 2669 2842 
Q 2491 3084 2119 3084 
Q 1678 3084 1418 2786 
Q 1159 2488 1159 1978 
L 1159 0 
L 581 0 
L 581 3500 
L 1159 3500 
L 1159 2956 
Q 1356 3278 1631 3431 
Q 1906 3584 2284 3584 
Q 2666 3584 2933 3390 
Q 3200 3197 3328 2828 
z
" transform="scale(0.015625)"/>
        <path id="DejaVuSans-69" d="M 603 3500 
L 1178 3500 
L 1178 0 
L 603 0 
L 603 3500 
z
M 603 4863 
L 1178 4863 
L 1178 4134 
L 603 4134 
L 603 4863 
z
" transform="scale(0.015625)"/>
        <path id="DejaVuSans-74" d="M 1172 4494 
L 1172 3500 
L 2356 3500 
L 2356 3053 
L 1172 3053 
L 1172 1153 
Q 1172 725 1289 603 
Q 1406 481 1766 481 
L 2356 481 
L 2356 0 
L 1766 0 
Q 1100 0 847 248 
Q 594 497 594 1153 
L 594 3053 
L 172 3053 
L 172 3500 
L 594 3500 
L 594 4494 
L 1172 4494 
z
" transform="scale(0.015625)"/>
       </defs>
       <use xlink:href="#DejaVuSans-46"/>
       <use xlink:href="#DejaVuSans-6f" x="53.894531"/>
       <use xlink:href="#DejaVuSans-72" x="115.076172"/>
       <use xlink:href="#DejaVuSans-63" x="153.939453"/>
       <use xlink:href="#DejaVuSans-65" x="208.919922"/>
       <use xlink:href="#DejaVuSans-64" x="270.443359"/>
       <use xlink:href="#DejaVuSans-20" x="333.919922"/>
       <use xlink:href="#DejaVuSans-63" x="365.707031"/>
       <use xlink:href="#DejaVuSans-6f" x="420.6875"/>
       <use xlink:href="#DejaVuSans-6d" x="481.869141"/>
       <use xlink:href="#DejaVuSans-6d" x="579.28125"/>
       <use xlink:href="#DejaVuSans-69" x="676.693359"/>
       <use xlink:href="#DejaVuSans-74" x="704.476562"/>
      </g>
     </g>
    </g>
    <g id="xtick_2">
     <g id="line2d_2">
      <g>
       <use xlink:href="#maf14d37f8c" x="305.1" y="320.4" style="stroke: #000000; stroke-width: 0.8"/>
      </g>
     </g>
     <g id="text_2">
      <!-- Voting commit -->
      <g transform="translate(254.319375 338.037813) scale(0.14 -0.14)">
       <defs>
        <path id="DejaVuSans-56" d="M 1831 0 
L 50 4666 
L 709 4666 
L 2188 738 
L 3669 4666 
L 4325 4666 
L 2547 0 
L 1831 0 
z
" transform="scale(0.015625)"/>
        <path id="DejaVuSans-6e" d="M 3513 2113 
L 3513 0 
L 2938 0 
L 2938 2094 
Q 2938 2591 2744 2837 
Q 2550 3084 2163 3084 
Q 1697 3084 1428 2787 
Q 1159 2491 1159 1978 
L 1159 0 
L 581 0 
L 581 3500 
L 1159 3500 
L 1159 2956 
Q 1366 3272 1645 3428 
Q 1925 3584 2291 3584 
Q 2894 3584 3203 3211 
Q 3513 2838 3513 2113 
z
" transform="scale(0.015625)"/>
        <path id="DejaVuSans-67" d="M 2906 1791 
Q 2906 2416 2648 2759 
Q 2391 3103 1925 3103 
Q 1463 3103 1205 2759 
Q 947 2416 947 1791 
Q 947 1169 1205 825 
Q 1463 481 1925 481 
Q 2391 481 2648 825 
Q 2906 1169 2906 1791 
z
M 3481 434 
Q 3481 -459 3084 -895 
Q 2688 -1331 1869 -1331 
Q 1566 -1331 1297 -1286 
Q 1028 -1241 775 -1147 
L 775 -588 
Q 1028 -725 1275 -790 
Q 1522 -856 1778 -856 
Q 2344 -856 2625 -561 
Q 2906 -266 2906 331 
L 2906 616 
Q 2728 306 2450 153 
Q 2172 0 1784 0 
Q 1141 0 747 490 
Q 353 981 353 1791 
Q 353 2603 747 3093 
Q 1141 3584 1784 3584 
Q 2172 3584 2450 3431 
Q 2728 3278 2906 2969 
L 2906 3500 
L 3481 3500 
L 3481 434 
z
" transform="scale(0.015625)"/>
       </defs>
       <use xlink:href="#DejaVuSans-56"/>
       <use xlink:href="#DejaVuSans-6f" x="60.658203"/>
       <use xlink:href="#DejaVuSans-74" x="121.839844"/>
       <use xlink:href="#DejaVuSans-69" x="161.048828"/>
       <use xlink:href="#DejaVuSans-6e" x="188.832031"/>
       <use xlink:href="#DejaVuSans-67" x="252.210938"/>
       <use xlink:href="#DejaVuSans-20" x="315.6875"/>
       <use xlink:href="#DejaVuSans-63" x="347.474609"/>
       <use xlink:href="#DejaVuSans-6f" x="402.455078"/>
       <use xlink:href="#DejaVuSans-6d" x="463.636719"/>
       <use xlink:href="#DejaVuSans-6d" x="561.048828"/>
       <use xlink:href="#DejaVuSans-69" x="658.460938"/>
       <use xlink:href="#DejaVuSans-74" x="686.244141"/>
      </g>
     </g>
    </g>
    <g id="text_3">
     <!-- Method -->
     <g transform="translate(195.145625 355.587188) scale(0.14 -0.14)">
      <defs>
       <path id="DejaVuSans-4d" d="M 628 4666 
L 1569 4666 
L 2759 1491 
L 3956 4666 
L 4897 4666 
L 4897 0 
L 4281 0 
L 4281 4097 
L 3078 897 
L 2444 897 
L 1241 4097 
L 1241 0 
L 628 0 
L 628 4666 
z
" transform="scale(0.015625)"/>
       <path id="DejaVuSans-68" d="M 3513 2113 
L 3513 0 
L 2938 0 
L 2938 2094 
Q 2938 2591 2744 2837 
Q 2550 3084 2163 3084 
Q 1697 3084 1428 2787 
Q 1159 2491 1159 1978 
L 1159 0 
L 581 0 
L 581 4863 
L 1159 4863 
L 1159 2956 
Q 1366 3272 1645 3428 
Q 1925 3584 2291 3584 
Q 2894 3584 3203 3211 
Q 3513 2838 3513 2113 
z
" transform="scale(0.015625)"/>
      </defs>
      <use xlink:href="#DejaVuSans-4d"/>
      <use xlink:href="#DejaVuSans-65" x="86.279297"/>
      <use xlink:href="#DejaVuSans-74" x="147.802734"/>
      <use xlink:href="#DejaVuSans-68" x="187.011719"/>
      <use xlink:href="#DejaVuSans-6f" x="250.390625"/>
      <use xlink:href="#DejaVuSans-64" x="311.572266"/>
     </g>
    </g>
   </g>
   <g id="matplotlib.axis_2">
    <g id="ytick_1">
     <g id="line2d_3">
      <defs>
       <path id="m033d433683" d="M 0 0 
L -3.5 0 
" style="stroke: #000000; stroke-width: 0.8"/>
      </defs>
      <g>
       <use xlink:href="#m033d433683" x="54" y="307.8" style="stroke: #000000; stroke-width: 0.8"/>
      </g>
     </g>
     <g id="text_4">
      <!-- 2 -->
      <g transform="translate(38.0925 313.118906) scale(0.14 -0.14)">
       <defs>
        <path id="DejaVuSans-32" d="M 1228 531 
L 3431 531 
L 3431 0 
L 469 0 
L 469 531 
Q 828 903 1448 1529 
Q 2069 2156 2228 2338 
Q 2531 2678 2651 2914 
Q 2772 3150 2772 3378 
Q 2772 3750 2511 3984 
Q 2250 4219 1831 4219 
Q 1534 4219 1204 4116 
Q 875 4013 500 3803 
L 500 4441 
Q 881 4594 1212 4672 
Q 1544 4750 1819 4750 
Q 2544 4750 2975 4387 
Q 3406 4025 3406 3419 
Q 3406 3131 3298 2873 
Q 3191 2616 2906 2266 
Q 2828 2175 2409 1742 
Q 1991 1309 1228 531 
z
" transform="scale(0.015625)"/>
       </defs>
       <use xlink:href="#DejaVuSans-32"/>
      </g>
     </g>
    </g>
    <g id="ytick_2">
     <g id="line2d_4">
      <g>
       <use xlink:href="#m033d433683" x="54" y="223.8" style="stroke: #000000; stroke-width: 0.8"/>
      </g>
     </g>
     <g id="text_5">
      <!-- 3 -->
      <g transform="translate(38.0925 229.118906) scale(0.14 -0.14)">
       <defs>
        <path id="DejaVuSans-33" d="M 2597 2516 
Q 3050 2419 3304 2112 
Q 3559 1806 3559 1356 
Q 3559 666 3084 287 
Q 2609 -91 1734 -91 
Q 1441 -91 1130 -33 
Q 819 25 488 141 
L 488 750 
Q 750 597 1062 519 
Q 1375 441 1716 441 
Q 2309 441 2620 675 
Q 2931 909 2931 1356 
Q 2931 1769 2642 2001 
Q 2353 2234 1838 2234 
L 1294 2234 
L 1294 2753 
L 1863 2753 
Q 2328 2753 2575 2939 
Q 2822 3125 2822 3475 
Q 2822 3834 2567 4026 
Q 2313 4219 1838 4219 
Q 1578 4219 1281 4162 
Q 984 4106 628 3988 
L 628 4550 
Q 988 4650 1302 4700 
Q 1616 4750 1894 4750 
Q 2613 4750 3031 4423 
Q 3450 4097 3450 3541 
Q 3450 3153 3228 2886 
Q 3006 2619 2597 2516 
z
" transform="scale(0.015625)"/>
       </defs>
       <use xlink:href="#DejaVuSans-33"/>
      </g>
     </g>
    </g>
    <g id="ytick_3">
     <g id="line2d_5">
      <g>
       <use xlink:href="#m033d433683" x="54" y="139.8" style="stroke: #000000; stroke-width: 0.8"/>
      </g>
     </g>
     <g id="text_6">
      <!-- 4 -->
      <g transform="translate(38.0925 145.118906) scale(0.14 -0.14)">
       <defs>
        <path id="DejaVuSans-34" d="M 2419 4116 
L 825 1625 
L 2419 1625 
L 2419 4116 
z
M 2253 4666 
L 3047 4666 
L 3047 1625 
L 3713 1625 
L 3713 1100 
L 3047 1100 
L 3047 0 
L 2419 0 
L 2419 1100 
L 313 1100 
L 313 1709 
L 2253 4666 
z
" transform="scale(0.015625)"/>
       </defs>
       <use xlink:href="#DejaVuSans-34"/>
      </g>
     </g>
    </g>
    <g id="ytick_4">
     <g id="line2d_6">
      <g>
       <use xlink:href="#m033d433683" x="54" y="55.8" style="stroke: #000000; stroke-width: 0.8"/>
      </g>
     </g>
     <g id="text_7">
      <!-- 5 -->
      <g transform="translate(38.0925 61.118906) scale(0.14 -0.14)">
       <defs>
        <path id="DejaVuSans-35" d="M 691 4666 
L 3169 4666 
L 3169 4134 
L 1269 4134 
L 1269 2991 
Q 1406 3038 1543 3061 
Q 1681 3084 1819 3084 
Q 2600 3084 3056 2656 
Q 3513 2228 3513 1497 
Q 3513 744 3044 326 
Q 2575 -91 1722 -91 
Q 1428 -91 1123 -41 
Q 819 9 494 109 
L 494 744 
Q 775 591 1075 516 
Q 1375 441 1709 441 
Q 2250 441 2565 725 
Q 2881 1009 2881 1497 
Q 2881 1984 2565 2268 
Q 2250 2553 1709 2553 
Q 1456 2553 1204 2497 
Q 953 2441 691 2322 
L 691 4666 
z
" transform="scale(0.015625)"/>
       </defs>
       <use xlink:href="#DejaVuSans-35"/>
      </g>
     </g>
    </g>
    <g id="text_8">
     <!-- I worked closely together with my partner -->
     <g transform="translate(31.180937 328.699375) rotate(-90) scale(0.14 -0.14)">
      <defs>
       <path id="DejaVuSans-49" d="M 628 4666 
L 1259 4666 
L 1259 0 
L 628 0 
L 628 4666 
z
" transform="scale(0.015625)"/>
       <path id="DejaVuSans-77" d="M 269 3500 
L 844 3500 
L 1563 769 
L 2278 3500 
L 2956 3500 
L 3675 769 
L 4391 3500 
L 4966 3500 
L 4050 0 
L 3372 0 
L 2619 2869 
L 1863 0 
L 1184 0 
L 269 3500 
z
" transform="scale(0.015625)"/>
       <path id="DejaVuSans-6b" d="M 581 4863 
L 1159 4863 
L 1159 1991 
L 2875 3500 
L 3609 3500 
L 1753 1863 
L 3688 0 
L 2938 0 
L 1159 1709 
L 1159 0 
L 581 0 
L 581 4863 
z
" transform="scale(0.015625)"/>
       <path id="DejaVuSans-6c" d="M 603 4863 
L 1178 4863 
L 1178 0 
L 603 0 
L 603 4863 
z
" transform="scale(0.015625)"/>
       <path id="DejaVuSans-73" d="M 2834 3397 
L 2834 2853 
Q 2591 2978 2328 3040 
Q 2066 3103 1784 3103 
Q 1356 3103 1142 2972 
Q 928 2841 928 2578 
Q 928 2378 1081 2264 
Q 1234 2150 1697 2047 
L 1894 2003 
Q 2506 1872 2764 1633 
Q 3022 1394 3022 966 
Q 3022 478 2636 193 
Q 2250 -91 1575 -91 
Q 1294 -91 989 -36 
Q 684 19 347 128 
L 347 722 
Q 666 556 975 473 
Q 1284 391 1588 391 
Q 1994 391 2212 530 
Q 2431 669 2431 922 
Q 2431 1156 2273 1281 
Q 2116 1406 1581 1522 
L 1381 1569 
Q 847 1681 609 1914 
Q 372 2147 372 2553 
Q 372 3047 722 3315 
Q 1072 3584 1716 3584 
Q 2034 3584 2315 3537 
Q 2597 3491 2834 3397 
z
" transform="scale(0.015625)"/>
       <path id="DejaVuSans-79" d="M 2059 -325 
Q 1816 -950 1584 -1140 
Q 1353 -1331 966 -1331 
L 506 -1331 
L 506 -850 
L 844 -850 
Q 1081 -850 1212 -737 
Q 1344 -625 1503 -206 
L 1606 56 
L 191 3500 
L 800 3500 
L 1894 763 
L 2988 3500 
L 3597 3500 
L 2059 -325 
z
" transform="scale(0.015625)"/>
       <path id="DejaVuSans-70" d="M 1159 525 
L 1159 -1331 
L 581 -1331 
L 581 3500 
L 1159 3500 
L 1159 2969 
Q 1341 3281 1617 3432 
Q 1894 3584 2278 3584 
Q 2916 3584 3314 3078 
Q 3713 2572 3713 1747 
Q 3713 922 3314 415 
Q 2916 -91 2278 -91 
Q 1894 -91 1617 61 
Q 1341 213 1159 525 
z
M 3116 1747 
Q 3116 2381 2855 2742 
Q 2594 3103 2138 3103 
Q 1681 3103 1420 2742 
Q 1159 2381 1159 1747 
Q 1159 1113 1420 752 
Q 1681 391 2138 391 
Q 2594 391 2855 752 
Q 3116 1113 3116 1747 
z
" transform="scale(0.015625)"/>
       <path id="DejaVuSans-61" d="M 2194 1759 
Q 1497 1759 1228 1600 
Q 959 1441 959 1056 
Q 959 750 1161 570 
Q 1363 391 1709 391 
Q 2188 391 2477 730 
Q 2766 1069 2766 1631 
L 2766 1759 
L 2194 1759 
z
M 3341 1997 
L 3341 0 
L 2766 0 
L 2766 531 
Q 2569 213 2275 61 
Q 1981 -91 1556 -91 
Q 1019 -91 701 211 
Q 384 513 384 1019 
Q 384 1609 779 1909 
Q 1175 2209 1959 2209 
L 2766 2209 
L 2766 2266 
Q 2766 2663 2505 2880 
Q 2244 3097 1772 3097 
Q 1472 3097 1187 3025 
Q 903 2953 641 2809 
L 641 3341 
Q 956 3463 1253 3523 
Q 1550 3584 1831 3584 
Q 2591 3584 2966 3190 
Q 3341 2797 3341 1997 
z
" transform="scale(0.015625)"/>
      </defs>
      <use xlink:href="#DejaVuSans-49"/>
      <use xlink:href="#DejaVuSans-20" x="29.492188"/>
      <use xlink:href="#DejaVuSans-77" x="61.279297"/>
      <use xlink:href="#DejaVuSans-6f" x="143.066406"/>
      <use xlink:href="#DejaVuSans-72" x="204.248047"/>
      <use xlink:href="#DejaVuSans-6b" x="245.361328"/>
      <use xlink:href="#DejaVuSans-65" x="299.646484"/>
      <use xlink:href="#DejaVuSans-64" x="361.169922"/>
      <use xlink:href="#DejaVuSans-20" x="424.646484"/>
      <use xlink:href="#DejaVuSans-63" x="456.433594"/>
      <use xlink:href="#DejaVuSans-6c" x="511.414062"/>
      <use xlink:href="#DejaVuSans-6f" x="539.197266"/>
      <use xlink:href="#DejaVuSans-73" x="600.378906"/>
      <use xlink:href="#DejaVuSans-65" x="652.478516"/>
      <use xlink:href="#DejaVuSans-6c" x="714.001953"/>
      <use xlink:href="#DejaVuSans-79" x="741.785156"/>
      <use xlink:href="#DejaVuSans-20" x="800.964844"/>
      <use xlink:href="#DejaVuSans-74" x="832.751953"/>
      <use xlink:href="#DejaVuSans-6f" x="871.960938"/>
      <use xlink:href="#DejaVuSans-67" x="933.142578"/>
      <use xlink:href="#DejaVuSans-65" x="996.619141"/>
      <use xlink:href="#DejaVuSans-74" x="1058.142578"/>
      <use xlink:href="#DejaVuSans-68" x="1097.351562"/>
      <use xlink:href="#DejaVuSans-65" x="1160.730469"/>
      <use xlink:href="#DejaVuSans-72" x="1222.253906"/>
      <use xlink:href="#DejaVuSans-20" x="1263.367188"/>
      <use xlink:href="#DejaVuSans-77" x="1295.154297"/>
      <use xlink:href="#DejaVuSans-69" x="1376.941406"/>
      <use xlink:href="#DejaVuSans-74" x="1404.724609"/>
      <use xlink:href="#DejaVuSans-68" x="1443.933594"/>
      <use xlink:href="#DejaVuSans-20" x="1507.3125"/>
      <use xlink:href="#DejaVuSans-6d" x="1539.099609"/>
      <use xlink:href="#DejaVuSans-79" x="1636.511719"/>
      <use xlink:href="#DejaVuSans-20" x="1695.691406"/>
      <use xlink:href="#DejaVuSans-70" x="1727.478516"/>
      <use xlink:href="#DejaVuSans-61" x="1790.955078"/>
      <use xlink:href="#DejaVuSans-72" x="1852.234375"/>
      <use xlink:href="#DejaVuSans-74" x="1893.347656"/>
      <use xlink:href="#DejaVuSans-6e" x="1932.556641"/>
      <use xlink:href="#DejaVuSans-65" x="1995.935547"/>
      <use xlink:href="#DejaVuSans-72" x="2057.458984"/>
     </g>
    </g>
   </g>
   <g id="patch_3">
    <path d="M 54 320.4 
L 54 43.2 
" style="fill: none; stroke: #000000; stroke-width: 0.8; stroke-linejoin: miter; stroke-linecap: square"/>
   </g>
   <g id="patch_4">
    <path d="M 388.8 320.4 
L 388.8 43.2 
" style="fill: none; stroke: #000000; stroke-width: 0.8; stroke-linejoin: miter; stroke-linecap: square"/>
   </g>
   <g id="patch_5">
    <path d="M 54 320.4 
L 388.8 320.4 
" style="fill: none; stroke: #000000; stroke-width: 0.8; stroke-linejoin: miter; stroke-linecap: square"/>
   </g>
   <g id="patch_6">
    <path d="M 54 43.2 
L 388.8 43.2 
" style="fill: none; stroke: #000000; stroke-width: 0.8; stroke-linejoin: miter; stroke-linecap: square"/>
   </g>
   <g id="PathCollection_1">
    <defs>
     <path id="C0_0_366427136b" d="M 0 2.5 
C 0.663008 2.5 1.29895 2.236584 1.767767 1.767767 
C 2.236584 1.29895 2.5 0.663008 2.5 -0 
C 2.5 -0.663008 2.236584 -1.29895 1.767767 -1.767767 
C 1.29895 -2.236584 0.663008 -2.5 0 -2.5 
C -0.663008 -2.5 -1.29895 -2.236584 -1.767767 -1.767767 
C -2.236584 -1.29895 -2.5 -0.663008 -2.5 0 
C -2.5 0.663008 -2.236584 1.29895 -1.767767 1.767767 
C -1.29895 2.236584 -0.663008 2.5 0 2.5 
z
"/>
    </defs>
    <g clip-path="url(#pbfffd9bb9f)">
     <use xlink:href="#C0_0_366427136b" x="137.7" y="55.8" style="fill: #262626; fill-opacity: 0.5"/>
    </g>
    <g clip-path="url(#pbfffd9bb9f)">
     <use xlink:href="#C0_0_366427136b" x="137.7" y="139.8" style="fill: #262626; fill-opacity: 0.5"/>
    </g>
    <g clip-path="url(#pbfffd9bb9f)">
     <use xlink:href="#C0_0_366427136b" x="106.2" y="55.8" style="fill: #262626; fill-opacity: 0.5"/>
    </g>
    <g clip-path="url(#pbfffd9bb9f)">
     <use xlink:href="#C0_0_366427136b" x="163.95" y="55.8" style="fill: #262626; fill-opacity: 0.5"/>
    </g>
    <g clip-path="url(#pbfffd9bb9f)">
     <use xlink:href="#C0_0_366427136b" x="137.7" y="307.8" style="fill: #262626; fill-opacity: 0.5"/>
    </g>
    <g clip-path="url(#pbfffd9bb9f)">
     <use xlink:href="#C0_0_366427136b" x="142.95" y="139.8" style="fill: #262626; fill-opacity: 0.5"/>
    </g>
    <g clip-path="url(#pbfffd9bb9f)">
     <use xlink:href="#C0_0_366427136b" x="111.45" y="55.8" style="fill: #262626; fill-opacity: 0.5"/>
    </g>
    <g clip-path="url(#pbfffd9bb9f)">
     <use xlink:href="#C0_0_366427136b" x="158.7" y="55.8" style="fill: #262626; fill-opacity: 0.5"/>
    </g>
    <g clip-path="url(#pbfffd9bb9f)">
     <use xlink:href="#C0_0_366427136b" x="137.7" y="223.8" style="fill: #262626; fill-opacity: 0.5"/>
    </g>
    <g clip-path="url(#pbfffd9bb9f)">
     <use xlink:href="#C0_0_366427136b" x="153.45" y="55.8" style="fill: #262626; fill-opacity: 0.5"/>
    </g>
    <g clip-path="url(#pbfffd9bb9f)">
     <use xlink:href="#C0_0_366427136b" x="169.2" y="55.8" style="fill: #262626; fill-opacity: 0.5"/>
    </g>
    <g clip-path="url(#pbfffd9bb9f)">
     <use xlink:href="#C0_0_366427136b" x="132.45" y="223.8" style="fill: #262626; fill-opacity: 0.5"/>
    </g>
    <g clip-path="url(#pbfffd9bb9f)">
     <use xlink:href="#C0_0_366427136b" x="121.95" y="55.8" style="fill: #262626; fill-opacity: 0.5"/>
    </g>
    <g clip-path="url(#pbfffd9bb9f)">
     <use xlink:href="#C0_0_366427136b" x="148.2" y="55.8" style="fill: #262626; fill-opacity: 0.5"/>
    </g>
    <g clip-path="url(#pbfffd9bb9f)">
     <use xlink:href="#C0_0_366427136b" x="127.2" y="55.8" style="fill: #262626; fill-opacity: 0.5"/>
    </g>
    <g clip-path="url(#pbfffd9bb9f)">
     <use xlink:href="#C0_0_366427136b" x="142.95" y="55.8" style="fill: #262626; fill-opacity: 0.5"/>
    </g>
    <g clip-path="url(#pbfffd9bb9f)">
     <use xlink:href="#C0_0_366427136b" x="132.45" y="55.8" style="fill: #262626; fill-opacity: 0.5"/>
    </g>
    <g clip-path="url(#pbfffd9bb9f)">
     <use xlink:href="#C0_0_366427136b" x="132.45" y="139.8" style="fill: #262626; fill-opacity: 0.5"/>
    </g>
    <g clip-path="url(#pbfffd9bb9f)">
     <use xlink:href="#C0_0_366427136b" x="116.7" y="55.8" style="fill: #262626; fill-opacity: 0.5"/>
    </g>
    <g clip-path="url(#pbfffd9bb9f)">
     <use xlink:href="#C0_0_366427136b" x="100.95" y="55.8" style="fill: #262626; fill-opacity: 0.5"/>
    </g>
   </g>
   <g id="PathCollection_2">
    <defs>
     <path id="C1_0_5cb21b903b" d="M 0 2.5 
C 0.663008 2.5 1.29895 2.236584 1.767767 1.767767 
C 2.236584 1.29895 2.5 0.663008 2.5 -0 
C 2.5 -0.663008 2.236584 -1.29895 1.767767 -1.767767 
C 1.29895 -2.236584 0.663008 -2.5 0 -2.5 
C -0.663008 -2.5 -1.29895 -2.236584 -1.767767 -1.767767 
C -2.236584 -1.29895 -2.5 -0.663008 -2.5 0 
C -2.5 0.663008 -2.236584 1.29895 -1.767767 1.767767 
C -1.29895 2.236584 -0.663008 2.5 0 2.5 
z
"/>
    </defs>
    <g clip-path="url(#pbfffd9bb9f)">
     <use xlink:href="#C1_0_5cb21b903b" x="289.35" y="55.8" style="fill-opacity: 0.5"/>
    </g>
    <g clip-path="url(#pbfffd9bb9f)">
     <use xlink:href="#C1_0_5cb21b903b" x="299.85" y="139.8" style="fill-opacity: 0.5"/>
    </g>
    <g clip-path="url(#pbfffd9bb9f)">
     <use xlink:href="#C1_0_5cb21b903b" x="331.35" y="55.8" style="fill-opacity: 0.5"/>
    </g>
    <g clip-path="url(#pbfffd9bb9f)">
     <use xlink:href="#C1_0_5cb21b903b" x="305.1" y="307.8" style="fill-opacity: 0.5"/>
    </g>
    <g clip-path="url(#pbfffd9bb9f)">
     <use xlink:href="#C1_0_5cb21b903b" x="305.1" y="223.8" style="fill-opacity: 0.5"/>
    </g>
    <g clip-path="url(#pbfffd9bb9f)">
     <use xlink:href="#C1_0_5cb21b903b" x="278.85" y="55.8" style="fill-opacity: 0.5"/>
    </g>
    <g clip-path="url(#pbfffd9bb9f)">
     <use xlink:href="#C1_0_5cb21b903b" x="299.85" y="223.8" style="fill-opacity: 0.5"/>
    </g>
    <g clip-path="url(#pbfffd9bb9f)">
     <use xlink:href="#C1_0_5cb21b903b" x="326.1" y="55.8" style="fill-opacity: 0.5"/>
    </g>
    <g clip-path="url(#pbfffd9bb9f)">
     <use xlink:href="#C1_0_5cb21b903b" x="284.1" y="55.8" style="fill-opacity: 0.5"/>
    </g>
    <g clip-path="url(#pbfffd9bb9f)">
     <use xlink:href="#C1_0_5cb21b903b" x="336.6" y="55.8" style="fill-opacity: 0.5"/>
    </g>
    <g clip-path="url(#pbfffd9bb9f)">
     <use xlink:href="#C1_0_5cb21b903b" x="320.85" y="55.8" style="fill-opacity: 0.5"/>
    </g>
    <g clip-path="url(#pbfffd9bb9f)">
     <use xlink:href="#C1_0_5cb21b903b" x="273.6" y="55.8" style="fill-opacity: 0.5"/>
    </g>
    <g clip-path="url(#pbfffd9bb9f)">
     <use xlink:href="#C1_0_5cb21b903b" x="315.6" y="55.8" style="fill-opacity: 0.5"/>
    </g>
    <g clip-path="url(#pbfffd9bb9f)">
     <use xlink:href="#C1_0_5cb21b903b" x="294.6" y="55.8" style="fill-opacity: 0.5"/>
    </g>
    <g clip-path="url(#pbfffd9bb9f)">
     <use xlink:href="#C1_0_5cb21b903b" x="310.35" y="55.8" style="fill-opacity: 0.5"/>
    </g>
    <g clip-path="url(#pbfffd9bb9f)">
     <use xlink:href="#C1_0_5cb21b903b" x="299.85" y="55.8" style="fill-opacity: 0.5"/>
    </g>
    <g clip-path="url(#pbfffd9bb9f)">
     <use xlink:href="#C1_0_5cb21b903b" x="305.1" y="55.8" style="fill-opacity: 0.5"/>
    </g>
    <g clip-path="url(#pbfffd9bb9f)">
     <use xlink:href="#C1_0_5cb21b903b" x="310.35" y="139.8" style="fill-opacity: 0.5"/>
    </g>
    <g clip-path="url(#pbfffd9bb9f)">
     <use xlink:href="#C1_0_5cb21b903b" x="294.6" y="139.8" style="fill-opacity: 0.5"/>
    </g>
    <g clip-path="url(#pbfffd9bb9f)">
     <use xlink:href="#C1_0_5cb21b903b" x="305.1" y="139.8" style="fill-opacity: 0.5"/>
    </g>
   </g>
   <g id="line2d_7">
    <path d="M 70.74 55.8 
L 204.66 55.8 
" clip-path="url(#pbfffd9bb9f)" style="fill: none; stroke: #000000; stroke-linecap: square"/>
   </g>
   <g id="line2d_8">
    <path d="M 70.74 97.8 
L 204.66 97.8 
" clip-path="url(#pbfffd9bb9f)" style="fill: none; stroke-dasharray: 3.7,1.6; stroke-dashoffset: 0; stroke: #2ca02c"/>
   </g>
   <g id="line2d_9">
    <path d="M 238.14 55.8 
L 372.06 55.8 
" clip-path="url(#pbfffd9bb9f)" style="fill: none; stroke: #000000; stroke-linecap: square"/>
   </g>
   <g id="line2d_10">
    <path d="M 238.14 102 
L 372.06 102 
" clip-path="url(#pbfffd9bb9f)" style="fill: none; stroke-dasharray: 3.7,1.6; stroke-dashoffset: 0; stroke: #2ca02c"/>
   </g>
  </g>
 </g>
 <defs>
  <clipPath id="pbfffd9bb9f">
   <rect x="54" y="43.2" width="334.8" height="277.2"/>
  </clipPath>
 </defs>
</svg>
