# Blender 3.4.1
# www.blender.org
mtllib model.mtl
o Circle.002
v -0.000000 3.379203 -1.021644
v -0.722411 3.379203 -0.722411
v -1.021643 3.379203 -0.000001
v -0.722411 3.379203 0.722410
v 0.000000 3.379203 1.021643
v 0.722411 3.379203 0.722410
v 1.021643 3.379203 -0.000001
v 0.722411 3.379203 -0.722411
v -0.317577 1.354944 -0.766700
v -0.766700 1.354944 0.317577
v 0.317577 1.354945 0.766699
v 0.766700 1.354944 -0.317578
vn 0.0357 0.1304 -0.9908
vn -0.7258 0.1304 -0.6754
vn -0.2895 0.6539 -0.6990
vn 0.9908 0.1304 0.0357
vn 0.6754 0.1304 -0.7258
vn 0.6990 0.6539 -0.2895
vn -0.0357 0.1304 0.9908
vn 0.7258 0.1304 0.6754
vn 0.2895 0.6539 0.6990
vn -0.6754 0.1304 0.7258
vn -0.6990 0.6539 0.2895
vn -0.9908 0.1304 -0.0357
vt 0.512574 0.549310
vt 0.609908 0.540973
vt 0.707265 0.534092
vt 0.805994 0.530866
vt 0.073744 0.623053
vt 0.911091 0.537659
vt 0.195928 0.591626
vt 0.307708 0.572648
vt 0.412706 0.559826
vt 0.593139 0.774967
vt 0.482994 0.950950
vt 0.752992 0.761583
vt 0.310439 0.999912
vt 0.912854 0.773462
vt 0.251809 0.855810
vt 0.424364 0.806848
s 1
f 5/5/1 6/7/2 11/15/3
f 3/3/4 4/4/5 10/12/6
f 1/1/7 2/2/8 9/10/9
f 8/9/10 1/1/7 9/10/9 12/16/11
f 6/7/2 7/8/12 12/16/11 11/15/3
f 4/4/5 5/6/1 11/14/3 10/12/6
f 2/2/8 3/3/4 10/12/6 9/10/9
f 7/8/12 8/9/10 12/16/11
f 9/11/9 10/13/6 11/15/3 12/16/11
o Circle
v -0.722411 3.379203 0.722411
v 0.722411 3.379203 -0.722411
v -0.317577 1.354944 -0.766700
v -0.766700 1.354944 0.317577
v 0.317577 1.354944 0.766700
v 0.766700 1.354944 -0.317577
v -0.217899 0.063950 -0.526056
v -0.526056 0.063950 0.217900
v 0.217900 0.063950 0.526056
v 0.526056 0.063950 -0.217899
v -0.000000 0.352776 -0.869362
v -0.614732 0.352776 -0.614732
v -0.869362 0.352776 0.000000
v -0.614732 0.352776 0.614732
v 0.000000 0.352776 0.869362
v 0.614732 0.352776 0.614732
v 0.869362 0.352776 -0.000000
v 0.614732 0.352776 -0.614732
v -0.000000 1.841181 -1.404419
v -0.993074 1.841181 -0.993074
v -1.404419 1.841181 0.000000
v -0.993074 1.841181 0.993074
v 0.000000 1.841181 1.404419
v 0.993075 1.841181 0.993074
v 1.404419 1.841181 -0.000000
v 0.993075 1.841181 -0.993074
v -0.000000 2.302944 -1.302903
v -0.921292 2.302944 -0.921292
v -1.302903 2.302944 0.000000
v -0.921292 2.302944 0.921292
v 0.000000 2.302944 1.302903
v 0.921292 2.302944 0.921291
v 1.302903 2.302944 -0.000000
v 0.921292 2.302944 -0.921291
v -0.000000 2.632401 -1.023303
v -0.723585 2.632401 -0.723585
v -1.023303 2.632401 0.000000
v -0.723585 2.632401 0.723585
v 0.000000 2.632401 1.023303
v 0.723585 2.632401 0.723585
v 1.023303 2.632401 -0.000000
v 0.723585 2.632401 -0.723585
v -0.000000 2.938548 -1.021459
v -0.722281 2.938548 -0.722281
v -1.021459 2.938548 0.000000
v -0.722281 2.938548 0.722281
v 0.000000 2.938548 1.021459
v 0.722281 2.938548 0.722281
v 1.021459 2.938548 -0.000000
v 0.722281 2.938548 -0.722281
v -0.000000 3.260001 -1.174812
v -0.830718 3.260001 -0.830718
v -1.174812 3.260001 0.000000
v -0.830718 3.260001 0.830718
v 0.000000 3.260001 1.174812
v 0.830718 3.260001 0.830718
v 1.174812 3.260001 -0.000000
v 0.830718 3.260001 -0.830718
v -0.000000 3.379203 -1.021643
v -0.722411 3.379203 -0.722411
v -1.021643 3.379203 0.000000
v 0.000000 3.379203 1.021643
v 0.722411 3.379203 0.722411
v 1.021643 3.379203 -0.000000
v -1.173056 1.096979 0.000000
v -0.829476 1.096979 -0.829476
v 0.829476 1.096979 -0.829476
v 1.173056 1.096979 -0.000000
v 0.829476 1.096979 0.829476
v 0.000000 1.096979 1.173056
v -0.829476 1.096979 0.829476
v -0.000000 1.096979 -1.173056
vn 0.2895 0.6539 0.6990
vn 0.6990 0.6539 -0.2895
vn -0.2895 0.6539 -0.6990
vn -0.6990 0.6539 0.2895
vn 0.4011 -0.9008 -0.1661
vn 0.8206 -0.5710 0.0243
vn 0.5974 -0.5710 0.5631
vn 0.1661 -0.9008 0.4011
vn -0.0000 -0.3344 -0.9424
vn -0.0000 -0.0401 -0.9992
vn 0.7065 -0.0401 -0.7065
vn 0.6664 -0.3344 -0.6664
vn 0.9424 -0.3344 -0.0000
vn 0.9992 -0.0401 -0.0000
vn 0.7065 -0.0401 0.7065
vn 0.6664 -0.3344 0.6664
vn -0.0000 -0.3344 0.9424
vn -0.0000 -0.0401 0.9992
vn -0.7065 -0.0401 0.7065
vn -0.6664 -0.3344 0.6664
vn -0.9424 -0.3344 -0.0000
vn -0.9992 -0.0401 -0.0000
vn -0.7065 -0.0401 -0.7065
vn -0.6664 -0.3344 -0.6664
vn -0.0000 0.4221 -0.9066
vn 0.6410 0.4221 -0.6410
vn 0.9066 0.4221 -0.0000
vn 0.6410 0.4221 0.6410
vn -0.0000 0.4221 0.9066
vn -0.6410 0.4221 0.6410
vn -0.9066 0.4221 -0.0000
vn -0.6410 0.4221 -0.6410
vn -0.6546 0.3780 0.6546
vn -0.9258 0.3780 -0.0000
vn -0.6546 0.3780 -0.6546
vn -0.0000 0.3780 -0.9258
vn 0.6546 0.3780 -0.6546
vn 0.9258 0.3780 -0.0000
vn 0.6546 0.3780 0.6546
vn -0.0000 0.3780 0.9258
vn 0.6881 -0.2304 -0.6881
vn 0.9731 -0.2304 -0.0000
vn 0.6881 -0.2304 0.6881
vn -0.0000 -0.2304 0.9731
vn -0.6881 -0.2304 0.6881
vn -0.9731 -0.2304 -0.0000
vn -0.6881 -0.2304 -0.6881
vn -0.0000 -0.2304 -0.9731
vn -0.0000 0.2019 0.9794
vn -0.6925 0.2019 0.6925
vn -0.9794 0.2019 -0.0000
vn -0.6925 0.2019 -0.6925
vn 0.6925 0.2019 -0.6925
vn 0.9794 0.2019 -0.0000
vn 0.6925 0.2019 0.6925
vn -0.0000 0.2019 -0.9794
vn -0.1684 0.9852 -0.0305
vn -0.1407 0.9852 -0.0975
vn 0.1684 0.9852 0.0305
vn 0.1407 0.9852 0.0975
vn 0.0305 0.9852 -0.1684
vn -0.0305 0.9852 0.1684
vn -0.5974 -0.5710 -0.5631
vn 0.0243 -0.5710 -0.8206
vn -0.5631 -0.5710 0.5974
vn -0.8206 -0.5710 -0.0243
vn -0.0243 -0.5710 0.8206
vn 0.5631 -0.5710 -0.5974
vn -0.4011 -0.9008 0.1661
vn -0.1661 -0.9008 -0.4011
vn 0.0975 0.9852 -0.1407
vn -0.0975 0.9852 0.1407
vt 0.805994 0.530866
vt 0.412706 0.559826
vt 0.482994 0.950950
vt 0.593139 0.774967
vt 0.310439 0.999912
vt 0.752992 0.761583
vt 0.251809 0.855810
vt 0.912854 0.773462
vt 0.424364 0.806848
vt 0.535054 0.193156
vt 0.458084 0.056470
vt 0.664615 0.175840
vt 0.312415 0.000088
vt 0.752148 0.107156
vt 0.244901 0.121737
vt 0.390425 0.178153
vt 0.495643 0.247831
vt 0.575452 0.246683
vt 0.650682 0.232837
vt 0.725592 0.207636
vt 0.794984 0.157950
vt 0.136433 0.134790
vt 0.235860 0.199269
vt 0.327721 0.226845
vt 0.414438 0.244485
vt 0.498556 0.385225
vt 0.593017 0.378698
vt 0.688588 0.367209
vt 0.792740 0.350320
vt 0.931943 0.327201
vt 0.003545 0.372167
vt 0.168757 0.379305
vt 0.293424 0.385253
vt 0.400351 0.387438
vt 0.502526 0.423400
vt 0.599080 0.416234
vt 0.696843 0.406059
vt 0.802104 0.393798
vt 0.931943 0.388053
vt 0.011821 0.444334
vt 0.170102 0.432239
vt 0.294158 0.430270
vt 0.402500 0.427891
vt 0.503647 0.463560
vt 0.601459 0.455923
vt 0.700225 0.446985
vt 0.804537 0.437543
vt 0.042777 0.506471
vt 0.916719 0.436452
vt 0.173747 0.486798
vt 0.294220 0.476839
vt 0.402631 0.470193
vt 0.505699 0.493911
vt 0.603831 0.486073
vt 0.702680 0.478289
vt 0.805622 0.472423
vt 0.916126 0.472281
vt 0.052326 0.547792
vt 0.179833 0.526524
vt 0.297030 0.511453
vt 0.404619 0.502014
vt 0.510577 0.530148
vt 0.608299 0.521970
vt 0.706344 0.514928
vt 0.806786 0.512082
vt 0.054550 0.596929
vt 0.921658 0.519143
vt 0.189659 0.567902
vt 0.304134 0.551598
vt 0.410151 0.539869
vt 0.512574 0.549310
vt 0.609908 0.540973
vt 0.707265 0.534092
vt 0.073744 0.623053
vt 0.911091 0.537659
vt 0.195928 0.591626
vt 0.307708 0.572648
vt 0.674382 0.304771
vt 0.585435 0.318159
vt 0.403878 0.322106
vt 0.303575 0.312517
vt 0.188098 0.291972
vt 0.042569 0.248903
vt 0.878922 0.235685
vt 0.768653 0.280770
vt 0.496594 0.323380
s 1
usemtl Material.002
f 15/19/13 16/21/14 17/23/15 18/25/16
f 22/32/17 29/40/18 28/39/19 21/31/20
f 84/102/21 31/42/22 38/50/23 79/96/24
f 80/97/25 37/49/26 36/48/27 81/98/28
f 82/100/29 35/46/30 34/45/31 83/101/32
f 77/94/33 33/44/34 32/43/35 78/95/36
f 79/96/24 38/50/23 37/49/26 80/97/25
f 81/98/28 36/48/27 35/47/30 82/99/29
f 83/101/32 34/45/31 33/44/34 77/94/33
f 38/50/23 31/42/22 39/51/37 46/59/38
f 36/48/27 37/49/26 45/58/39 44/57/40
f 34/45/31 35/46/30 43/55/41 42/54/42
f 32/43/35 33/44/34 41/53/43 40/52/44
f 37/49/26 38/50/23 46/59/38 45/58/39
f 35/47/30 36/48/27 44/57/40 43/56/41
f 33/44/34 34/45/31 42/54/42 41/53/43
f 31/42/22 32/43/35 40/52/44 39/51/37
f 41/53/43 42/54/42 50/63/45 49/62/46
f 39/51/37 40/52/44 48/61/47 47/60/48
f 46/59/38 39/51/37 47/60/48 54/68/49
f 44/57/40 45/58/39 53/67/50 52/66/51
f 42/54/42 43/55/41 51/65/52 50/63/45
f 40/52/44 41/53/43 49/62/46 48/61/47
f 45/58/39 46/59/38 54/68/49 53/67/50
f 43/56/41 44/57/40 52/66/51 51/64/52
f 53/67/50 54/68/49 62/77/53 61/76/54
f 51/64/52 52/66/51 60/75/55 59/74/56
f 49/62/46 50/63/45 58/72/57 57/71/58
f 47/60/48 48/61/47 56/70/59 55/69/60
f 54/68/49 47/60/48 55/69/60 62/77/53
f 52/66/51 53/67/50 61/76/54 60/75/55
f 50/63/45 51/65/52 59/73/56 58/72/57
f 48/61/47 49/62/46 57/71/58 56/70/59
f 58/72/57 59/73/56 67/83/61 66/81/62
f 56/70/59 57/71/58 65/80/63 64/79/64
f 61/76/54 62/77/53 70/86/65 69/85/66
f 59/74/56 60/75/55 68/84/67 67/82/61
f 57/71/58 58/72/57 66/81/62 65/80/63
f 55/69/60 56/70/59 64/79/64 63/78/68
f 62/77/53 55/69/60 63/78/68 70/86/65
f 60/75/55 61/76/54 69/85/66 68/84/67
f 68/84/67 69/85/66 76/93/69 75/92/70
f 64/79/64 65/80/63 73/89/71 72/88/72
f 67/82/61 68/84/67 75/92/70 74/90/73
f 63/78/68 64/79/64 72/88/72 71/87/74
f 78/95/36 32/43/35 31/42/22 84/102/21
f 24/34/75 78/95/36 84/102/21 23/33/76
f 26/36/77 83/101/32 77/94/33 25/35/78
f 28/39/19 81/98/28 82/99/29 27/38/79
f 30/41/80 79/96/24 80/97/25 29/40/18
f 25/35/78 77/94/33 78/95/36 24/34/75
f 27/37/79 82/100/29 83/101/32 26/36/77
f 29/40/18 80/97/25 81/98/28 28/39/19
f 23/33/76 84/102/21 79/96/24 30/41/80
f 21/30/20 27/37/79 26/36/77 20/28/81
f 20/28/81 25/35/78 24/34/75 19/26/82
f 22/32/17 30/41/80 29/40/18
f 21/31/20 28/39/19 27/38/79
f 20/28/81 26/36/77 25/35/78
f 19/26/82 24/34/75 23/33/76
f 19/26/82 23/33/76 30/41/80 22/32/17
f 19/27/82 22/32/17 21/31/20 20/29/81
f 74/90/73 75/92/70 17/23/15
f 73/89/71 13/17/83 16/22/14
f 71/87/74 72/88/72 15/20/13
f 14/18/84 71/87/74 15/20/13 18/25/16
f 75/92/70 76/93/69 18/25/16 17/23/15
f 13/17/83 74/91/73 17/24/15 16/22/14
f 72/88/72 73/89/71 16/22/14 15/20/13
f 76/93/69 14/18/84 18/25/16
f 70/86/65 63/78/68 71/87/74 14/18/84
f 66/81/62 67/83/61 74/91/73 13/17/83
f 69/85/66 70/86/65 14/18/84 76/93/69
f 65/80/63 66/81/62 13/17/83 73/89/71
