# Blender 3.4.1
# www.blender.org
mtllib model.mtl
o Cube
v 2.116982 1.437932 -0.865379
v 2.116982 1.437932 0.865379
v 2.116983 1.524518 -0.865378
v 2.116981 1.524518 0.865379
v 0.052357 1.437932 -0.705102
v 0.052357 1.437932 0.705101
v 2.011168 1.437932 -0.779042
v 2.011168 1.437932 0.779042
v 1.906454 1.437932 0.779042
v 1.906454 1.437932 -0.779043
v 2.006576 0.940635 0.620664
v 1.864848 0.940635 0.620663
v 0.052357 1.006326 -0.705102
v 0.052357 1.006326 0.705102
v 2.006576 0.940635 -0.620664
v 1.864848 0.940635 -0.620664
v 2.011168 1.006326 -0.779042
v 2.011168 1.006326 0.779042
v 1.906454 1.006326 -0.779042
v 1.906454 1.006326 0.779042
v 1.864848 0.940635 -0.756380
v 1.864848 0.940635 -0.620664
v 2.057082 0.940635 -0.812898
v 2.057082 0.940635 0.812898
v 2.057084 1.027221 -0.812898
v 2.057081 1.027221 0.812899
v 1.864848 0.940635 0.756380
v 1.864848 0.940635 0.620664
v 2.057082 0.940635 0.620664
v 1.864848 0.940635 0.620663
v 2.057082 0.940635 0.812898
v 1.864848 0.940635 0.812898
v 2.057082 0.940635 -0.812898
v 1.864848 0.940635 -0.812898
v 2.057082 0.940635 -0.620664
v 1.864848 0.940635 -0.620664
v 1.864848 0.823426 -0.620664
v 2.006576 0.823426 -0.620664
v 2.006576 0.823426 0.620664
v 1.864848 0.823426 0.620663
v 1.864848 0.823426 -0.756380
v 1.864848 0.823426 -0.620664
v 1.864848 0.823426 0.620664
v 1.864848 0.823426 0.756380
v 2.057082 -0.308700 0.620664
v 1.864848 -0.308700 0.620663
v 2.057082 -0.308700 0.812898
v 1.864848 -0.308700 0.812898
v 2.057082 -0.308700 -0.812898
v 1.864848 -0.308700 -0.812899
v 2.057082 -0.308700 -0.620664
v 1.864848 -0.308700 -0.620664
v -2.116982 1.437932 -0.865379
v -2.116982 1.437932 0.865379
v -2.116983 1.524518 -0.865378
v -2.116981 1.524518 0.865379
v -0.052357 1.437932 -0.705102
v -0.052357 1.437932 0.705101
v -2.011168 1.437932 -0.779042
v -2.011168 1.437932 0.779042
v -1.906454 1.437932 0.779042
v -1.906454 1.437932 -0.779043
v -2.006576 0.940635 0.620664
v -1.864848 0.940635 0.620663
v -0.052357 1.006326 -0.705102
v -0.052357 1.006326 0.705102
v -2.006576 0.940635 -0.620664
v -1.864848 0.940635 -0.620664
v -2.011168 1.006326 -0.779042
v -2.011168 1.006326 0.779042
v -1.906454 1.006326 -0.779042
v -1.906454 1.006326 0.779042
v -1.864848 0.940635 -0.756380
v -1.864848 0.940635 -0.620664
v -2.057082 0.940635 -0.812898
v -2.057082 0.940635 0.812898
v -2.057084 1.027221 -0.812898
v -2.057081 1.027221 0.812899
v -1.864848 0.940635 0.756380
v -1.864848 0.940635 0.620664
v -2.057082 0.940635 0.620664
v -1.864848 0.940635 0.620663
v -2.057082 0.940635 0.812898
v -1.864848 0.940635 0.812898
v -2.057082 0.940635 -0.812898
v -1.864848 0.940635 -0.812898
v -2.057082 0.940635 -0.620664
v -1.864848 0.940635 -0.620664
v -1.864848 0.823426 -0.620664
v -2.006576 0.823426 -0.620664
v -2.006576 0.823426 0.620664
v -1.864848 0.823426 0.620663
v -1.864848 0.823426 -0.756380
v -1.864848 0.823426 -0.620664
v -1.864848 0.823426 0.620664
v -1.864848 0.823426 0.756380
v -2.057082 -0.308700 0.620664
v -1.864848 -0.308700 0.620663
v -2.057082 -0.308700 0.812898
v -1.864848 -0.308700 0.812898
v -2.057082 -0.308700 -0.812898
v -1.864848 -0.308700 -0.812899
v -2.057082 -0.308700 -0.620664
v -1.864848 -0.308700 -0.620664
vn 0.5773 -0.5773 -0.5774
vn 0.5774 0.5774 -0.5773
vn 0.5773 0.5773 0.5774
vn 0.5774 -0.5774 0.5773
vn -0.7071 -0.0000 -0.7071
vn 0.7071 -0.0000 -0.7071
vn 0.7071 -0.0000 0.7071
vn -0.7071 -0.0000 0.7071
vn -0.5774 -0.5774 0.5773
vn -0.5773 0.5773 0.5774
vn -0.5774 0.5774 -0.5773
vn -0.5773 -0.5773 -0.5774
vn -0.5774 -0.5774 -0.5774
vn 0.5774 -0.5774 -0.5774
vn 0.5773 -0.5774 0.5774
vn -0.5774 -0.5774 0.5774
vn 0.5774 -0.5774 0.5774
vn 0.5774 -0.5774 -0.5773
vn -0.5773 -0.5774 -0.5774
vn -0.5773 -0.5774 0.5774
vn -0.5774 -0.5774 -0.5773
vn 0.5773 -0.5774 -0.5774
vt 0.008579 0.001384
vt 0.720939 0.985758
vt 0.799977 0.985756
vt 0.236784 0.001385
vt 0.236784 0.001384
vt 0.720939 0.974928
vt 0.799977 0.974926
vt 0.008579 0.001384
vt 0.641219 0.478134
vt 0.641219 0.086850
vt 0.978830 0.490542
vt 0.978830 0.902801
vt 0.978830 0.930508
vt 0.978830 0.050577
vt 0.978830 0.462836
vt 0.000000 0.000000
vt 0.517753 0.037836
vt 0.000000 0.000000
vt 0.579445 0.037836
vt 0.810596 0.478134
vt 0.810596 0.086850
vt 0.000000 0.000000
vt 0.517753 0.325591
vt 0.000000 0.000000
vt 0.579445 0.325591
vt 0.823000 0.490542
vt 0.823000 0.902801
vt 0.823000 0.462836
vt 0.823000 0.930508
vt 0.823000 0.050577
vt 0.000000 0.000000
vt 0.640152 0.902424
vt 0.579446 0.902424
vt 0.000000 0.000000
vt 0.710671 0.996654
vt 0.236971 0.029466
vt 0.784916 0.996654
vt 0.451337 0.029597
vt 0.710671 0.985824
vt 0.451336 0.029466
vt 0.784916 0.985824
vt 0.236971 0.029466
vt 0.000000 0.000000
vt 0.579447 0.902424
vt 0.000000 0.000000
vt 0.640152 0.902424
vt 0.577008 0.619710
vt 0.577007 0.544525
vt 0.577008 0.694895
vt 0.577007 0.394156
vt 0.577007 0.469340
vt 0.576925 0.619710
vt 0.576953 0.544525
vt 0.577007 0.394156
vt 0.576898 0.694895
vt 0.576980 0.469340
vt 0.000000 0.000000
vt 0.560221 0.325591
vt 0.000000 0.000000
vt 0.536976 0.325591
vt 0.000000 0.000000
vt 0.536976 0.037836
vt 0.000000 0.000000
vt 0.560221 0.037836
vt 0.000000 0.000000
vt 0.620928 0.902424
vt 0.000000 0.000000
vt 0.598669 0.902424
vt 0.000000 0.000000
vt 0.620929 0.902424
vt 0.000000 0.000000
vt 0.598670 0.902424
vt 0.454606 0.619710
vt 0.548239 0.815669
vt 0.454606 0.544525
vt 0.548239 0.779841
vt 0.454606 0.694895
vt 0.454606 0.394156
vt 0.518170 0.815669
vt 0.454606 0.469341
vt 0.518170 0.779841
vt 0.454523 0.619605
vt 0.518145 0.815669
vt 0.454551 0.544420
vt 0.518146 0.779841
vt 0.454606 0.394050
vt 0.454496 0.694790
vt 0.488077 0.815669
vt 0.454578 0.469235
vt 0.488077 0.779841
vt 0.008579 0.993844
vt 0.527588 0.985767
vt 0.993334 0.985747
vt 0.236784 0.993844
vt 0.448541 0.985772
vt 0.236784 0.993844
vt 0.527587 0.974936
vt 0.993334 0.974915
vt 0.008579 0.993843
vt 0.448541 0.974941
vt 0.641219 0.507189
vt 0.641219 0.057795
vt 0.641219 0.898473
vt 0.823000 0.490542
vt 0.823000 0.902801
vt 0.823000 0.930508
vt 0.823000 0.050577
vt 0.823000 0.462836
vt 0.000000 0.000000
vt 0.579445 0.037836
vt 0.000000 0.000000
vt 0.517753 0.037836
vt 0.810596 0.507189
vt 0.810596 0.057795
vt 0.810596 0.898474
vt 0.000000 0.000000
vt 0.579445 0.325591
vt 0.000000 0.000000
vt 0.517753 0.325591
vt 0.978830 0.490542
vt 0.978830 0.902801
vt 0.978830 0.462836
vt 0.978830 0.930508
vt 0.978830 0.050577
vt 0.640151 0.037828
vt 0.000000 0.000000
vt 0.579446 0.037828
vt 0.000000 0.000000
vt 0.236784 0.993844
vt 0.522791 0.996654
vt 0.972801 0.996655
vt 0.451149 0.993976
vt 0.448541 0.996656
vt 0.451336 0.993844
vt 0.522791 0.985824
vt 0.972801 0.985822
vt 0.236971 0.993844
vt 0.448541 0.985826
vt 0.579445 0.037836
vt 0.000000 0.000000
vt 0.640152 0.037835
vt 0.000000 0.000000
vt 0.577007 0.544525
vt 0.577007 0.619710
vt 0.577007 0.469341
vt 0.577007 0.394156
vt 0.577008 0.694895
vt 0.577007 0.544525
vt 0.577007 0.619710
vt 0.577007 0.469340
vt 0.577007 0.394156
vt 0.577007 0.694895
vt 0.000000 0.000000
vt 0.536976 0.325591
vt 0.000000 0.000000
vt 0.560221 0.325591
vt 0.000000 0.000000
vt 0.560221 0.037836
vt 0.000000 0.000000
vt 0.536976 0.037836
vt 0.620928 0.037828
vt 0.000000 0.000000
vt 0.598669 0.037828
vt 0.000000 0.000000
vt 0.620929 0.037835
vt 0.000000 0.000000
vt 0.598668 0.037835
vt 0.000000 0.000000
vt 0.454606 0.544525
vt 0.548249 0.743973
vt 0.454606 0.619710
vt 0.548249 0.779800
vt 0.454606 0.469341
vt 0.518180 0.743973
vt 0.454606 0.394156
vt 0.454606 0.694895
vt 0.518180 0.779800
vt 0.454605 0.544525
vt 0.518156 0.743985
vt 0.454605 0.619710
vt 0.518145 0.779813
vt 0.454606 0.469340
vt 0.488087 0.743973
vt 0.454606 0.394156
vt 0.454605 0.694895
vt 0.488077 0.779800
s 1
usemtl Material.001
f 1/2/1 3/6/2 4/7/3 2/3/4
f 10/15/5 7/11/6 17/26/6 19/28/5
f 8/12/7 9/13/8 20/29/8 18/27/7
f 5/9/6 6/10/7 14/21/7 13/20/6
f 9/14/8 10/15/5 19/28/5 20/30/8
f 7/11/6 8/12/7 18/27/7 17/26/6
f 58/102/8 66/114/8 14/21/7 6/10/7
f 23/35/1 25/39/2 26/41/3 24/37/4
f 54/93/9 2/3/4 4/7/3 56/98/10
f 55/96/11 56/99/10 4/8/3 3/5/2
f 53/91/12 1/1/1 2/4/4 54/94/9
f 77/135/11 25/39/2 23/35/1 75/130/12
f 76/131/9 24/37/4 26/41/3 78/136/10
f 77/134/11 78/137/10 26/42/3 25/40/2
f 75/129/12 23/36/1 24/38/4 76/132/9
f 13/20/6 65/113/5 57/101/5 5/9/6
f 37/58/13 38/60/14 39/62/15 40/64/9
f 11/16/7 12/18/8 40/63/9 39/61/15
f 16/24/5 15/22/6 38/59/14 37/57/13
f 74/127/8 94/163/16 42/68/17 22/33/7
f 15/23/6 11/17/7 39/62/15 38/60/14
f 28/45/6 27/43/7 44/71/17 43/69/14
f 12/19/8 16/25/5 37/58/13 40/64/9
f 21/31/6 22/34/7 42/67/17 41/65/14
f 35/54/7 36/56/8 52/89/9 51/86/15
f 29/47/6 31/49/7 47/77/15 45/73/18
f 31/50/7 32/51/8 48/80/9 47/78/15
f 36/56/8 34/53/5 50/84/19 52/89/9
f 34/53/5 33/52/6 49/82/18 50/84/19
f 32/51/8 30/48/5 46/75/19 48/80/9
f 30/48/5 29/47/6 45/73/18 46/75/19
f 33/52/6 35/55/7 51/87/15 49/82/18
f 53/92/12 54/95/9 56/100/10 55/97/11
f 62/108/6 71/122/6 69/120/5 59/104/5
f 60/105/8 70/121/8 72/123/7 61/106/7
f 57/101/5 65/113/5 66/115/8 58/103/8
f 61/107/7 72/124/7 71/122/6 62/108/6
f 59/104/5 69/120/5 70/121/8 60/105/8
f 41/66/14 42/68/17 94/163/16 93/161/13
f 75/130/12 76/133/9 78/138/10 77/135/11
f 21/32/6 41/66/14 93/161/13 73/125/5
f 89/154/14 92/160/4 91/158/20 90/156/13
f 43/70/14 44/72/17 96/167/16 95/165/13
f 27/44/7 79/139/8 96/167/16 44/72/17
f 43/70/14 95/165/13 80/141/5 28/46/6
f 63/109/8 91/157/20 92/159/4 64/111/7
f 68/118/6 89/153/14 90/155/13 67/116/5
f 67/117/5 90/156/13 91/158/20 63/110/8
f 80/142/5 95/166/13 96/168/16 79/140/8
f 64/112/7 92/160/4 89/154/14 68/119/6
f 73/126/5 93/162/13 94/164/16 74/128/8
f 87/150/8 103/182/20 104/184/4 88/151/7
f 81/143/5 97/169/21 99/173/20 83/145/8
f 83/145/8 99/173/20 100/175/4 84/146/7
f 88/152/7 104/185/4 102/180/22 86/149/6
f 86/149/6 102/180/22 101/178/21 85/148/5
f 84/147/7 100/176/4 98/171/22 82/144/6
f 82/144/6 98/171/22 97/169/21 81/143/5
f 85/148/5 101/178/21 103/182/20 87/150/8
f 55/97/11 3/6/2 1/2/1 53/92/12
f 102/181/22 104/186/4 103/183/20 101/179/21
f 50/85/19 49/83/18 51/88/15 52/90/9
f 98/172/22 100/177/4 99/174/20 97/170/21
f 46/76/19 45/74/18 47/79/15 48/81/9
